<svg width="69" height="59" viewBox="0 0 69 59" fill="none" xmlns="http://www.w3.org/2000/svg">
<path d="M4 4V24.4C4 25.7526 4.35704 27.0498 4.99258 28.0062C5.62812 28.9627 6.4901 29.5 7.38889 29.5H17.5556M17.5556 4V55M51.4444 4V24.4C51.4444 25.7526 51.8015 27.0498 52.437 28.0062C53.0726 28.9627 53.9345 29.5 54.8333 29.5H65M65 4V55M27.7222 9.1V49.9C27.7222 51.2526 28.0793 52.5498 28.7148 53.5063C29.3503 54.4627 30.2123 55 31.1111 55H37.8889C38.7877 55 39.6497 54.4627 40.2852 53.5063C40.9207 52.5498 41.2778 51.2526 41.2778 49.9V9.1C41.2778 7.7474 40.9207 6.45019 40.2852 5.49376C39.6497 4.53732 38.7877 4 37.8889 4H31.1111C30.2123 4 29.3503 4.53732 28.7148 5.49376C28.0793 6.45019 27.7222 7.7474 27.7222 9.1Z" stroke="#2792FF" stroke-width="7" stroke-linecap="round" stroke-linejoin="round"/>
</svg>
