<svg width="24" height="24" viewBox="0 0 24 24" fill="none" xmlns="http://www.w3.org/2000/svg">
<mask id="path-1-inside-1_643_1548" fill="white">
<path d="M8.4652 20.485L16.9502 12L8.4652 3.51498L7.0502 4.92898L14.1222 12L7.0502 19.071L8.4652 20.485Z"/>
</mask>
<path d="M8.4652 20.485L16.9502 12L8.4652 3.51498L7.0502 4.92898L14.1222 12L7.0502 19.071L8.4652 20.485Z" fill="white"/>
<path d="M8.4652 20.485L3.5172 25.4365L8.46694 30.3827L13.4149 25.4347L8.4652 20.485ZM16.9502 12L21.8999 16.9497L26.8497 12L21.8999 7.05024L16.9502 12ZM8.4652 3.51498L13.4149 -1.43476L8.46694 -6.38276L3.5172 -1.43651L8.4652 3.51498ZM7.0502 4.92898L2.1022 -0.0225112L-2.8514 4.92759L2.1008 9.87908L7.0502 4.92898ZM14.1222 12L19.0716 16.9501L24.0224 12L19.0716 7.04989L14.1222 12ZM7.0502 19.071L2.1008 14.1209L-2.8514 19.0724L2.1022 24.0225L7.0502 19.071ZM13.4149 25.4347L21.8999 16.9497L12.0004 7.05024L3.51545 15.5352L13.4149 25.4347ZM21.8999 7.05024L13.4149 -1.43476L3.51545 8.46473L12.0004 16.9497L21.8999 7.05024ZM3.5172 -1.43651L2.1022 -0.0225112L11.9982 9.88048L13.4132 8.46648L3.5172 -1.43651ZM2.1008 9.87908L9.1728 16.9501L19.0716 7.04989L11.9996 -0.0211123L2.1008 9.87908ZM9.1728 7.04989L2.1008 14.1209L11.9996 24.0211L19.0716 16.9501L9.1728 7.04989ZM2.1022 24.0225L3.5172 25.4365L13.4132 15.5335L11.9982 14.1195L2.1022 24.0225Z" fill="white" mask="url(#path-1-inside-1_643_1548)"/>
</svg>
