<svg width="10" height="12" viewBox="0 0 10 12" fill="none" xmlns="http://www.w3.org/2000/svg">
<path d="M9.16691 5.16666H2.84191L5.59191 2.42499C5.74883 2.26807 5.83698 2.05524 5.83698 1.83333C5.83698 1.61141 5.74883 1.39858 5.59191 1.24166C5.43499 1.08474 5.22216 0.996582 5.00024 0.996582C4.77832 0.996582 4.56549 1.08474 4.40857 1.24166L0.241906 5.40832C0.166039 5.48758 0.106568 5.58103 0.0669058 5.68332C-0.0164426 5.88621 -0.0164426 6.11377 0.0669058 6.31666C0.106568 6.41895 0.166039 6.5124 0.241906 6.59166L4.40857 10.7583C4.48604 10.8364 4.57821 10.8984 4.67976 10.9407C4.78131 10.983 4.89023 11.0048 5.00024 11.0048C5.11025 11.0048 5.21917 10.983 5.32072 10.9407C5.42227 10.8984 5.51444 10.8364 5.59191 10.7583C5.67001 10.6809 5.73201 10.5887 5.77432 10.4871C5.81662 10.3856 5.8384 10.2767 5.8384 10.1667C5.8384 10.0566 5.81662 9.94773 5.77432 9.84618C5.73201 9.74463 5.67001 9.65246 5.59191 9.57499L2.84191 6.83332H9.16691C9.38792 6.83332 9.59988 6.74553 9.75616 6.58925C9.91244 6.43297 10.0002 6.221 10.0002 5.99999C10.0002 5.77898 9.91244 5.56702 9.75616 5.41074C9.59988 5.25446 9.38792 5.16666 9.16691 5.16666Z" fill="black"/>
</svg>
