<svg width="20" height="20" viewBox="0 0 20 20" fill="none" xmlns="http://www.w3.org/2000/svg">
<path d="M10 18.9999C9.35502 18.4279 8.62602 17.8329 7.85502 17.1999H7.84502C5.13002 14.9799 2.05302 12.4679 0.694023 9.4579C0.24754 8.49963 0.0109268 7.45703 1.1406e-05 6.3999C-0.00297039 4.94939 0.578794 3.55889 1.61383 2.54267C2.64887 1.52645 4.04981 0.970298 5.50002 0.999904C6.68065 1.00177 7.83586 1.34298 8.82802 1.9829C9.26399 2.26587 9.65844 2.60816 10 2.9999C10.3435 2.6097 10.7381 2.26761 11.173 1.9829C12.1648 1.34286 13.3197 1.00162 14.5 0.999904C15.9502 0.970298 17.3512 1.52645 18.3862 2.54267C19.4213 3.55889 20.003 4.94939 20 6.3999C19.9898 7.45872 19.7532 8.5031 19.306 9.4629C17.947 12.4729 14.871 14.9839 12.156 17.1999L12.146 17.2079C11.374 17.8369 10.646 18.4319 10.001 19.0079L10 18.9999ZM5.50002 2.9999C4.56853 2.98825 3.6701 3.34475 3.00002 3.9919C2.35441 4.62607 1.99358 5.49495 1.99994 6.3999C2.01135 7.1704 2.18585 7.92976 2.51202 8.6279C3.15353 9.92661 4.01913 11.102 5.06902 12.0999C6.06002 13.0999 7.20002 14.0679 8.18602 14.8819C8.45902 15.1069 8.73702 15.3339 9.01502 15.5609L9.19002 15.7039C9.45702 15.9219 9.73302 16.1479 10 16.3699L10.013 16.3579L10.019 16.3529H10.025L10.034 16.3459H10.039H10.044L10.062 16.3309L10.103 16.2979L10.11 16.2919L10.121 16.2839H10.127L10.136 16.2759L10.8 15.7309L10.974 15.5879C11.255 15.3589 11.533 15.1319 11.806 14.9069C12.792 14.0929 13.933 13.1259 14.924 12.1209C15.9741 11.1235 16.8397 9.94842 17.481 8.6499C17.8131 7.9457 17.9901 7.17841 18.0001 6.3999C18.0042 5.49774 17.6435 4.6322 17 3.9999C16.3312 3.34982 15.4326 2.99039 14.5 2.9999C13.3619 2.99023 12.274 3.46727 11.51 4.3109L10 6.0509L8.49002 4.3109C7.72609 3.46727 6.6381 2.99023 5.50002 2.9999Z" fill="#279EFF"/>
</svg>
