<svg width="16" height="16" viewBox="0 0 16 16" fill="none" xmlns="http://www.w3.org/2000/svg">
<path d="M12.9335 9.90336C12.3961 9.78777 11.971 10.0373 11.5946 10.2551C11.2091 10.4797 10.4761 11.0743 10.056 10.9221C7.90487 10.0364 5.88171 8.15363 5.00591 5.9939C4.85155 5.56478 5.4434 4.82713 5.66626 4.4371C5.88253 4.05954 6.12686 3.63042 6.01543 3.08904C5.91472 2.60254 4.61217 0.94511 4.15158 0.491875C3.84781 0.19249 3.53662 0.0278285 3.21718 0.00121652C2.01616 -0.0503442 0.674813 1.5522 0.439562 1.93557C-0.149804 2.75306 -0.146502 3.84082 0.449467 5.15978C1.88574 8.7025 7.31798 14.049 10.874 15.5393C11.5302 15.8462 12.1303 16 12.6693 16C13.1968 16 13.6665 15.8528 14.0701 15.5609C14.3747 15.3854 16.0429 13.9775 15.9992 12.7442C15.9727 12.4298 15.8085 12.1155 15.513 11.8111C15.0631 11.3462 13.4163 10.0048 12.9335 9.90336Z" fill="white"/>
</svg>
