<svg width="30" height="30" viewBox="0 0 30 30" fill="none" xmlns="http://www.w3.org/2000/svg">
<path d="M26.25 16.25C26.25 21.7731 21.2131 26.25 15 26.25C8.78688 26.25 3.75 21.7731 3.75 16.25M9.375 7.5875C11.03 6.7375 12.9506 6.25 15 6.25C17.0494 6.25 18.97 6.7375 20.625 7.5875" stroke="#545454" stroke-width="1.5" stroke-linecap="round"/>
<path d="M3.75 16.25V5.30498C3.75 4.22311 5.03125 3.65186 5.83562 4.37561L9.375 7.55811M26.25 16.25V5.30498C26.25 4.22311 24.9687 3.65186 24.1644 4.37561L20.625 7.55811" stroke="#545454" stroke-width="1.5" stroke-linecap="round" stroke-linejoin="round"/>
<path d="M18.75 15C19.4404 15 20 14.4404 20 13.75C20 13.0596 19.4404 12.5 18.75 12.5C18.0596 12.5 17.5 13.0596 17.5 13.75C17.5 14.4404 18.0596 15 18.75 15Z" fill="#545454"/>
<path d="M11.25 15C11.9404 15 12.5 14.4404 12.5 13.75C12.5 13.0596 11.9404 12.5 11.25 12.5C10.5596 12.5 10 13.0596 10 13.75C10 14.4404 10.5596 15 11.25 15Z" fill="#545454"/>
<path d="M15 18.75C15.6904 18.75 16.25 18.1904 16.25 17.5C16.25 16.8096 15.6904 16.25 15 16.25C14.3096 16.25 13.75 16.8096 13.75 17.5C13.75 18.1904 14.3096 18.75 15 18.75Z" fill="#545454"/>
<path d="M10 18.75L2.5 19.375M11.875 21.875L4.375 25.625M20 18.75L27.5 19.375M18.125 21.875L25.625 25.625" stroke="#545454" stroke-width="1.5" stroke-linecap="round" stroke-linejoin="round"/>
</svg>
