<svg width="24" height="24" viewBox="0 0 24 24" fill="none" xmlns="http://www.w3.org/2000/svg">
<path fill-rule="evenodd" clip-rule="evenodd" d="M21.1763 1.20322e-07C21.8887 -0.000191495 22.5748 0.228488 23.0972 0.640196C23.6195 1.05191 23.9395 1.61621 23.9929 2.22L24 2.4V21.6C24.0002 22.2055 23.7312 22.7887 23.2468 23.2327C22.7624 23.6766 22.0984 23.9486 21.3881 23.994L21.1763 24H4.23401C3.52162 24.0002 2.83547 23.7715 2.31311 23.3598C1.79075 22.9481 1.47078 22.3838 1.41735 21.78L1.41029 21.6V20.4C1.05044 20.3997 0.704319 20.2825 0.442651 20.0726C0.180983 19.8626 0.0235175 19.5757 0.00242844 19.2703C-0.0186606 18.965 0.0982183 18.6643 0.329184 18.4298C0.56015 18.1953 0.88777 18.0445 1.24511 18.0084L1.41029 18V15.6C1.05044 15.5997 0.704319 15.4825 0.442651 15.2726C0.180983 15.0626 0.0235175 14.7757 0.00242844 14.4703C-0.0186606 14.165 0.0982183 13.8643 0.329184 13.6298C0.56015 13.3953 0.88777 13.2445 1.24511 13.2084L1.41029 13.2V10.8C1.05044 10.7997 0.704319 10.6825 0.442651 10.4726C0.180983 10.2626 0.0235175 9.97566 0.00242844 9.67033C-0.0186606 9.365 0.0982183 9.06435 0.329184 8.8298C0.56015 8.59526 0.88777 8.44452 1.24511 8.4084L1.41029 8.4V6C1.05044 5.99966 0.704319 5.88255 0.442651 5.67258C0.180983 5.46262 0.0235175 5.17566 0.00242844 4.87033C-0.0186606 4.565 0.0982183 4.26435 0.329184 4.0298C0.56015 3.79526 0.88777 3.64452 1.24511 3.6084L1.41029 3.6V2.4C1.41007 1.79451 1.67912 1.21132 2.16351 0.767343C2.64791 0.323365 3.31184 0.0514121 4.02223 0.00600026L4.23401 1.20322e-07H21.1763ZM21.1763 2.4H4.23401V21.6H21.1763V2.4ZM17.6466 4.8C18.1731 4.80002 18.6807 4.9667 19.0704 5.26754C19.4601 5.56838 19.704 5.98181 19.7545 6.4272L19.7644 6.6V9C19.7644 9.44746 19.5683 9.87887 19.2143 10.2101C18.8604 10.5413 18.374 10.7486 17.85 10.7916L17.6466 10.8H7.76365C7.23719 10.8 6.72962 10.6333 6.33991 10.3325C5.95019 10.0316 5.70629 9.61819 5.65575 9.1728L5.64586 9V6.6C5.64589 6.15254 5.842 5.72113 6.19595 5.3899C6.5499 5.05866 7.03632 4.85136 7.56034 4.8084L7.76365 4.8H17.6466ZM16.9407 7.2H8.46958V8.4H16.9407V7.2Z" fill="#279EFF"/>
</svg>
