<svg width="18" height="18" viewBox="0 0 18 18" fill="none" xmlns="http://www.w3.org/2000/svg">
<path d="M0 14.2505V18H3.74949L14.808 6.9415L11.0585 3.19201L0 14.2505ZM17.7076 4.0419C17.8003 3.94939 17.8738 3.83952 17.924 3.71856C17.9742 3.59761 18 3.46794 18 3.33699C18 3.20604 17.9742 3.07638 17.924 2.95542C17.8738 2.83446 17.8003 2.72459 17.7076 2.63209L15.3679 0.292404C15.2754 0.199713 15.1655 0.126176 15.0446 0.0760011C14.9236 0.0258265 14.794 0 14.663 0C14.5321 0 14.4024 0.0258265 14.2814 0.0760011C14.1605 0.126176 14.0506 0.199713 13.9581 0.292404L12.1284 2.12216L15.8778 5.87165L17.7076 4.0419Z" fill="#C4C4C4"/>
</svg>
