<svg width="92" height="20" viewBox="0 0 92 20" fill="none" xmlns="http://www.w3.org/2000/svg">
<rect x="0.5" y="0.5" width="91" height="19" rx="1.5" fill="white" stroke="#E6E6E6"/>
<path d="M30.328 9.48H30.992V11.28H30.328V9.48ZM30.664 5.864C32.192 5.864 33.288 6.608 33.288 7.76C33.288 8.912 32.192 9.656 30.664 9.656C29.136 9.656 28.032 8.912 28.032 7.76C28.032 6.608 29.136 5.864 30.664 5.864ZM30.664 6.392C29.512 6.392 28.672 6.936 28.672 7.76C28.672 8.584 29.512 9.128 30.664 9.128C31.808 9.128 32.648 8.584 32.648 7.76C32.648 6.936 31.808 6.392 30.664 6.392ZM27.4 11.152H33.952V11.704H27.4V11.152ZM38.5914 7.384H40.4154V7.928H38.5914V7.384ZM40.0394 5.4H40.7034V10.696H40.0394V5.4ZM36.0874 11.92H40.9034V12.464H36.0874V11.92ZM36.0874 10.232H36.7514V12.2H36.0874V10.232ZM36.5994 6.296H37.1434V6.88C37.1434 8.192 36.3274 9.328 35.1194 9.776L34.7754 9.248C35.8554 8.864 36.5994 7.904 36.5994 6.88V6.296ZM36.7274 6.296H37.2634V6.872C37.2634 7.808 37.9674 8.72 39.0154 9.088L38.6794 9.608C37.5034 9.184 36.7274 8.096 36.7274 6.872V6.296ZM34.9834 5.984H38.8474V6.52H34.9834V5.984ZM44.6875 9.23438V9.44141C44.6875 9.88411 44.7396 10.2643 44.8438 10.582C44.9479 10.8971 45.0938 11.1393 45.2812 11.3086C45.4688 11.4779 45.6888 11.5625 45.9414 11.5625C46.194 11.5625 46.4141 11.4779 46.6016 11.3086C46.7891 11.1393 46.9336 10.8971 47.0352 10.582C47.1393 10.2643 47.1914 9.88411 47.1914 9.44141V9.23438C47.1914 8.79427 47.1393 8.41536 47.0352 8.09766C46.9336 7.77995 46.7891 7.53646 46.6016 7.36719C46.4141 7.19531 46.194 7.10938 45.9414 7.10938C45.6888 7.10938 45.4688 7.19531 45.2812 7.36719C45.0938 7.53646 44.9479 7.77995 44.8438 8.09766C44.7396 8.41536 44.6875 8.79427 44.6875 9.23438ZM44.0625 9.44531V9.23438C44.0625 8.69271 44.138 8.22135 44.2891 7.82031C44.4401 7.41927 44.6549 7.10938 44.9336 6.89062C45.2148 6.66927 45.5521 6.55859 45.9453 6.55859C46.3385 6.55859 46.6745 6.66927 46.9531 6.89062C47.2344 7.10938 47.4479 7.41927 47.5938 7.82031C47.7422 8.21875 47.8164 8.6901 47.8164 9.23438V9.44531C47.8164 9.85156 47.7734 10.2188 47.6875 10.5469C47.6042 10.875 47.4818 11.1562 47.3203 11.3906C47.1589 11.6224 46.9622 11.8008 46.7305 11.9258C46.4987 12.0508 46.2357 12.1133 45.9414 12.1133C45.5482 12.1133 45.2109 12.0039 44.9297 11.7852C44.651 11.5638 44.4362 11.2539 44.2852 10.8555C44.1367 10.457 44.0625 9.98698 44.0625 9.44531ZM48.9141 10.7812H49.5234C49.5469 10.9141 49.5938 11.0299 49.6641 11.1289C49.737 11.2279 49.8255 11.3112 49.9297 11.3789C50.0339 11.444 50.1497 11.4922 50.2773 11.5234C50.4049 11.5547 50.5365 11.5703 50.6719 11.5703C50.8724 11.5703 51.0625 11.5208 51.2422 11.4219C51.4245 11.3229 51.5729 11.1784 51.6875 10.9883C51.8021 10.7956 51.8594 10.5638 51.8594 10.293C51.8594 10.0482 51.8047 9.83724 51.6953 9.66016C51.5885 9.48047 51.444 9.34245 51.2617 9.24609C51.0794 9.14974 50.8802 9.10156 50.6641 9.10156C50.4714 9.10156 50.3021 9.13411 50.1562 9.19922C50.0104 9.26432 49.8893 9.34505 49.793 9.44141C49.6992 9.53516 49.6263 9.6263 49.5742 9.71484H49.0391L49.2734 6.67188H52.2305V7.22266H49.8125L49.6602 9.04297H49.6953C49.7344 8.98568 49.8008 8.91927 49.8945 8.84375C49.9883 8.76823 50.1107 8.70312 50.2617 8.64844C50.4128 8.59115 50.5898 8.5625 50.793 8.5625C51.1081 8.5625 51.3932 8.63151 51.6484 8.76953C51.9062 8.90755 52.112 9.10417 52.2656 9.35938C52.4193 9.61458 52.4961 9.92057 52.4961 10.2773C52.4961 10.6367 52.4167 10.9544 52.2578 11.2305C52.1016 11.5065 51.8841 11.7227 51.6055 11.8789C51.3268 12.0352 51.0026 12.1133 50.6328 12.1133C50.388 12.1133 50.1628 12.0794 49.957 12.0117C49.7539 11.944 49.5755 11.8503 49.4219 11.7305C49.2708 11.6081 49.1523 11.4661 49.0664 11.3047C48.9805 11.1406 48.9297 10.9661 48.9141 10.7812ZM53.6016 10.7148C53.6016 10.5638 53.651 10.4388 53.75 10.3398C53.8516 10.2409 53.9727 10.1914 54.1133 10.1914C54.2617 10.1914 54.3854 10.2409 54.4844 10.3398C54.5859 10.4388 54.6367 10.5638 54.6367 10.7148C54.6367 10.8581 54.5859 10.9779 54.4844 11.0742C54.3854 11.1706 54.2617 11.2188 54.1133 11.2188C53.9727 11.2188 53.8516 11.1706 53.75 11.0742C53.651 10.9779 53.6016 10.8581 53.6016 10.7148ZM53.6016 8.03906C53.6016 7.88802 53.651 7.76432 53.75 7.66797C53.8516 7.56901 53.9727 7.51953 54.1133 7.51953C54.2617 7.51953 54.3854 7.56901 54.4844 7.66797C54.5859 7.76432 54.6367 7.88802 54.6367 8.03906C54.6367 8.18229 54.5859 8.30339 54.4844 8.40234C54.3854 8.4987 54.2617 8.54688 54.1133 8.54688C53.9727 8.54688 53.8516 8.4987 53.75 8.40234C53.651 8.30339 53.6016 8.18229 53.6016 8.03906ZM56.3984 9.23438V9.44141C56.3984 9.88411 56.4505 10.2643 56.5547 10.582C56.6589 10.8971 56.8047 11.1393 56.9922 11.3086C57.1797 11.4779 57.3997 11.5625 57.6523 11.5625C57.9049 11.5625 58.125 11.4779 58.3125 11.3086C58.5 11.1393 58.6445 10.8971 58.7461 10.582C58.8503 10.2643 58.9023 9.88411 58.9023 9.44141V9.23438C58.9023 8.79427 58.8503 8.41536 58.7461 8.09766C58.6445 7.77995 58.5 7.53646 58.3125 7.36719C58.125 7.19531 57.9049 7.10938 57.6523 7.10938C57.3997 7.10938 57.1797 7.19531 56.9922 7.36719C56.8047 7.53646 56.6589 7.77995 56.5547 8.09766C56.4505 8.41536 56.3984 8.79427 56.3984 9.23438ZM55.7734 9.44531V9.23438C55.7734 8.69271 55.849 8.22135 56 7.82031C56.151 7.41927 56.3659 7.10938 56.6445 6.89062C56.9258 6.66927 57.263 6.55859 57.6562 6.55859C58.0495 6.55859 58.3854 6.66927 58.6641 6.89062C58.9453 7.10938 59.1589 7.41927 59.3047 7.82031C59.4531 8.21875 59.5273 8.6901 59.5273 9.23438V9.44531C59.5273 9.85156 59.4844 10.2188 59.3984 10.5469C59.3151 10.875 59.1927 11.1562 59.0312 11.3906C58.8698 11.6224 58.6732 11.8008 58.4414 11.9258C58.2096 12.0508 57.9466 12.1133 57.6523 12.1133C57.2591 12.1133 56.9219 12.0039 56.6406 11.7852C56.362 11.5638 56.1471 11.2539 55.9961 10.8555C55.8477 10.457 55.7734 9.98698 55.7734 9.44531ZM61.2031 9.23438V9.44141C61.2031 9.88411 61.2552 10.2643 61.3594 10.582C61.4635 10.8971 61.6094 11.1393 61.7969 11.3086C61.9844 11.4779 62.2044 11.5625 62.457 11.5625C62.7096 11.5625 62.9297 11.4779 63.1172 11.3086C63.3047 11.1393 63.4492 10.8971 63.5508 10.582C63.6549 10.2643 63.707 9.88411 63.707 9.44141V9.23438C63.707 8.79427 63.6549 8.41536 63.5508 8.09766C63.4492 7.77995 63.3047 7.53646 63.1172 7.36719C62.9297 7.19531 62.7096 7.10938 62.457 7.10938C62.2044 7.10938 61.9844 7.19531 61.7969 7.36719C61.6094 7.53646 61.4635 7.77995 61.3594 8.09766C61.2552 8.41536 61.2031 8.79427 61.2031 9.23438ZM60.5781 9.44531V9.23438C60.5781 8.69271 60.6536 8.22135 60.8047 7.82031C60.9557 7.41927 61.1706 7.10938 61.4492 6.89062C61.7305 6.66927 62.0677 6.55859 62.4609 6.55859C62.8542 6.55859 63.1901 6.66927 63.4688 6.89062C63.75 7.10938 63.9635 7.41927 64.1094 7.82031C64.2578 8.21875 64.332 8.6901 64.332 9.23438V9.44531C64.332 9.85156 64.2891 10.2188 64.2031 10.5469C64.1198 10.875 63.9974 11.1562 63.8359 11.3906C63.6745 11.6224 63.4779 11.8008 63.2461 11.9258C63.0143 12.0508 62.7513 12.1133 62.457 12.1133C62.0638 12.1133 61.7266 12.0039 61.4453 11.7852C61.1667 11.5638 60.9518 11.2539 60.8008 10.8555C60.6523 10.457 60.5781 9.98698 60.5781 9.44531Z" fill="black"/>
</svg>
