<svg width="214" height="24" viewBox="0 0 214 24" fill="none" xmlns="http://www.w3.org/2000/svg">
<rect x="0.5" y="0.5" width="213" height="23" rx="1.5" fill="white" stroke="#E6E6E6"/>
<path d="M43.4 11.952H49.936V12.496H43.4V11.952ZM46.336 10.792H46.992V12.176H46.336V10.792ZM44.224 10.584H49.176V11.128H44.224V10.584ZM44.224 8.72H49.12V9.256H44.88V10.904H44.224V8.72ZM46.656 13.016C48.2 13.016 49.136 13.488 49.136 14.312C49.136 15.152 48.2 15.616 46.656 15.616C45.112 15.616 44.176 15.152 44.176 14.312C44.176 13.488 45.112 13.016 46.656 13.016ZM46.656 13.528C45.528 13.528 44.848 13.816 44.848 14.312C44.848 14.816 45.528 15.096 46.656 15.096C47.792 15.096 48.464 14.816 48.464 14.312C48.464 13.816 47.792 13.528 46.656 13.528ZM57.9683 8.384H58.6323V15.632H57.9683V8.384ZM54.8163 8.944C55.8883 8.944 56.6563 9.928 56.6563 11.464C56.6563 13.008 55.8883 13.992 54.8163 13.992C53.7523 13.992 52.9843 13.008 52.9843 11.464C52.9843 9.928 53.7523 8.944 54.8163 8.944ZM54.8163 9.544C54.1123 9.544 53.6163 10.296 53.6163 11.464C53.6163 12.64 54.1123 13.408 54.8163 13.408C55.5283 13.408 56.0163 12.64 56.0163 11.464C56.0163 10.296 55.5283 9.544 54.8163 9.544ZM60.0717 12.12H66.6317V12.664H60.0717V12.12ZM60.9037 8.568H65.7837V10.28H61.5757V11.24H60.9197V9.792H65.1357V9.088H60.9037V8.568ZM60.9197 10.984H65.9437V11.504H60.9197V10.984ZM60.9517 13.32H65.7917V15.528H60.9517V13.32ZM65.1437 13.848H61.5997V14.992H65.1437V13.848ZM70.7031 8.512C72.2951 8.512 73.2471 8.96 73.2471 9.768C73.2471 10.576 72.2951 11.024 70.7031 11.024C69.1031 11.024 68.1591 10.576 68.1591 9.768C68.1591 8.96 69.1031 8.512 70.7031 8.512ZM70.7031 9.016C69.5191 9.016 68.8391 9.288 68.8391 9.768C68.8391 10.248 69.5191 10.52 70.7031 10.52C71.8791 10.52 72.5591 10.248 72.5591 9.768C72.5591 9.288 71.8791 9.016 70.7031 9.016ZM67.4311 11.504H73.9671V12.04H67.4311V11.504ZM68.2231 12.656H73.1351V14.288H68.8951V15.168H68.2391V13.808H72.4791V13.168H68.2231V12.656ZM68.2391 15.024H73.3511V15.544H68.2391V15.024ZM79.7674 8.856H80.4634C80.4634 10.68 79.1834 11.984 77.1034 12.568L76.8314 12.048C78.6634 11.528 79.7674 10.48 79.7674 9.136V8.856ZM77.2074 8.856H80.2154V9.392H77.2074V8.856ZM82.0394 8.392H82.7034V12.52H82.0394V8.392ZM80.4714 10.248H82.1674V10.8H80.4714V10.248ZM78.0394 12.824H82.7034V15.528H78.0394V12.824ZM82.0554 13.36H78.6954V14.984H82.0554V13.36ZM85.6308 8.824H86.1588V9.792C86.1588 10.88 85.5428 12.024 84.4788 12.512L84.1188 11.992C85.0628 11.568 85.6308 10.616 85.6308 9.792V8.824ZM85.7348 8.824H86.2628V9.792C86.2628 10.616 86.7988 11.44 87.7268 11.816L87.3748 12.328C86.3268 11.888 85.7348 10.872 85.7348 9.792V8.824ZM89.5748 8.4H90.2068V12.768H89.5748V8.4ZM88.4068 10.272H89.7748V10.824H88.4068V10.272ZM88.0228 8.52H88.6548V12.728H88.0228V8.52ZM85.3588 13.16H90.2068V15.624H89.5508V13.704H85.3588V13.16ZM96.3741 8.392H97.0381V15.624H96.3741V8.392ZM96.8781 11.36H98.2221V11.92H96.8781V11.36ZM91.4381 9.544H95.7021V10.088H91.4381V9.544ZM93.5981 10.688C94.6221 10.688 95.3581 11.376 95.3581 12.352C95.3581 13.328 94.6221 14.016 93.5981 14.016C92.5821 14.016 91.8381 13.328 91.8381 12.352C91.8381 11.376 92.5821 10.688 93.5981 10.688ZM93.5981 11.24C92.9421 11.24 92.4701 11.696 92.4701 12.352C92.4701 13 92.9421 13.464 93.5981 13.464C94.2541 13.464 94.7261 13 94.7261 12.352C94.7261 11.696 94.2541 11.24 93.5981 11.24ZM93.2541 8.48H93.9181V9.792H93.2541V8.48ZM101.686 10.976H103.07V11.528H101.686V10.976ZM100.334 9.072H100.854V10.448C100.854 11.96 100.222 13.424 99.1655 14.072L98.7495 13.568C99.7415 12.984 100.334 11.688 100.334 10.448V9.072ZM100.462 9.072H100.974V10.424C100.974 11.584 101.518 12.816 102.47 13.392L102.086 13.912C101.046 13.272 100.462 11.832 100.462 10.424V9.072ZM104.342 8.392H104.982V15.624H104.342V8.392ZM102.878 8.544H103.502V15.264H102.878V8.544ZM107.797 12.112H108.453V14.28H107.797V12.112ZM110.469 12.112H111.133V14.28H110.469V12.112ZM106.197 14.152H112.749V14.704H106.197V14.152ZM109.461 8.848C110.989 8.848 112.085 9.576 112.085 10.712C112.085 11.84 110.989 12.568 109.461 12.568C107.925 12.568 106.829 11.84 106.829 10.712C106.829 9.576 107.925 8.848 109.461 8.848ZM109.461 9.376C108.301 9.376 107.469 9.904 107.469 10.712C107.469 11.512 108.301 12.04 109.461 12.04C110.621 12.04 111.445 11.512 111.445 10.712C111.445 9.904 110.621 9.376 109.461 9.376ZM114.23 12.4609C114.23 12.9818 114.281 13.4583 114.383 13.8906C114.487 14.3203 114.633 14.7161 114.82 15.0781C115.01 15.4427 115.234 15.7812 115.492 16.0938H115.113C114.91 15.9323 114.712 15.7292 114.52 15.4844C114.329 15.2396 114.158 14.9609 114.004 14.6484C113.853 14.3333 113.732 13.9922 113.641 13.625C113.552 13.2552 113.508 12.8672 113.508 12.4609C113.508 12.0547 113.552 11.668 113.641 11.3008C113.732 10.931 113.853 10.5898 114.004 10.2773C114.158 9.96484 114.329 9.6862 114.52 9.44141C114.712 9.19401 114.91 8.98958 115.113 8.82812H115.492C115.234 9.14062 115.01 9.47917 114.82 9.84375C114.633 10.2057 114.487 10.6029 114.383 11.0352C114.281 11.4648 114.23 11.9401 114.23 12.4609ZM115.906 13.0742C115.906 12.668 115.986 12.3099 116.145 12C116.303 11.6875 116.522 11.444 116.801 11.2695C117.082 11.0951 117.405 11.0078 117.77 11.0078C118.124 11.0078 118.422 11.0755 118.664 11.2109C118.909 11.3464 119.094 11.5404 119.219 11.793C119.346 12.0456 119.41 12.3451 119.41 12.6914C119.41 12.7982 119.406 12.888 119.398 12.9609H116.32V12.6172H118.77L118.664 12.7344C118.664 12.7135 118.664 12.694 118.664 12.6758C118.664 12.6576 118.664 12.6354 118.664 12.6094C118.664 12.349 118.629 12.1302 118.559 11.9531C118.488 11.7734 118.385 11.638 118.25 11.5469C118.115 11.4557 117.951 11.4102 117.758 11.4102C117.445 11.4102 117.189 11.5273 116.988 11.7617C116.79 11.9961 116.691 12.3607 116.691 12.8555C116.691 13.2096 116.757 13.5169 116.887 13.7773C117.017 14.0378 117.199 14.2396 117.434 14.3828C117.671 14.526 117.949 14.5977 118.27 14.5977C118.467 14.5977 118.66 14.5638 118.848 14.4961C119.038 14.4284 119.194 14.3372 119.316 14.2227V14.5195C119.176 14.6836 118.979 14.819 118.727 14.9258C118.474 15.0326 118.181 15.0859 117.848 15.0859C117.48 15.0859 117.15 15.0065 116.855 14.8477C116.564 14.6862 116.332 14.4557 116.16 14.1562C115.991 13.8542 115.906 13.4935 115.906 13.0742ZM120.477 11.8281C120.352 11.6745 120.249 11.5703 120.168 11.5156C120.087 11.4609 119.966 11.418 119.805 11.3867V11.0898H121.688V11.3867C121.409 11.4076 121.247 11.4453 121.203 11.5C121.161 11.5547 121.206 11.6628 121.336 11.8242L123.285 14.2344C123.415 14.3958 123.526 14.5065 123.617 14.5664C123.708 14.6237 123.839 14.6693 124.008 14.7031V15H122.098V14.7031C122.28 14.6875 122.41 14.6667 122.488 14.6406C122.569 14.6146 122.603 14.5716 122.59 14.5117C122.577 14.4492 122.521 14.3581 122.422 14.2383L120.477 11.8281ZM123.113 11.9688L122.199 13.0781L121.828 13.2422L121.09 14.207C120.947 14.3945 120.897 14.5182 120.941 14.5781C120.988 14.638 121.139 14.6797 121.395 14.7031V15H119.781V14.7031C119.935 14.6797 120.057 14.6484 120.148 14.6094C120.242 14.5677 120.329 14.5052 120.41 14.4219C120.491 14.3385 120.59 14.2227 120.707 14.0742L121.598 12.9492L121.922 12.8359L122.734 11.8242C122.818 11.7174 122.865 11.6354 122.875 11.5781C122.888 11.5208 122.855 11.4792 122.777 11.4531C122.702 11.4245 122.573 11.4023 122.391 11.3867V11.0898H123.969V11.3867C123.826 11.4076 123.712 11.4375 123.629 11.4766C123.546 11.513 123.466 11.569 123.391 11.6445C123.318 11.7201 123.225 11.8281 123.113 11.9688ZM125.125 15.0625C125.031 15.0625 124.944 15.0391 124.863 14.9922C124.785 14.9453 124.721 14.8828 124.672 14.8047C124.625 14.724 124.602 14.6354 124.602 14.5391C124.602 14.4427 124.625 14.3555 124.672 14.2773C124.721 14.1966 124.785 14.1341 124.863 14.0898C124.944 14.043 125.031 14.0195 125.125 14.0195C125.221 14.0195 125.309 14.043 125.387 14.0898C125.465 14.1341 125.527 14.1966 125.574 14.2773C125.624 14.3555 125.648 14.4427 125.648 14.5391C125.648 14.6354 125.624 14.724 125.574 14.8047C125.527 14.8828 125.465 14.9453 125.387 14.9922C125.309 15.0391 125.221 15.0625 125.125 15.0625ZM130.308 8.768H130.86V9.504C130.86 10.896 130.076 12.048 128.868 12.52L128.516 11.984C129.604 11.584 130.308 10.608 130.308 9.504V8.768ZM130.428 8.768H130.972V9.552C130.972 10.528 131.692 11.432 132.732 11.792L132.38 12.312C131.22 11.88 130.428 10.808 130.428 9.552V8.768ZM133.5 8.392H134.164V12.776H133.5V8.392ZM133.98 10.256H135.236V10.816H133.98V10.256ZM131.86 12.976C133.34 12.976 134.236 13.464 134.236 14.296C134.236 15.128 133.34 15.608 131.86 15.608C130.38 15.608 129.484 15.128 129.484 14.296C129.484 13.464 130.38 12.976 131.86 12.976ZM131.86 13.504C130.788 13.504 130.132 13.792 130.132 14.296C130.132 14.8 130.788 15.088 131.86 15.088C132.932 15.088 133.588 14.8 133.588 14.296C133.588 13.792 132.932 13.504 131.86 13.504ZM140.86 8.392H141.524V12.568H140.86V8.392ZM141.34 10.16H142.596V10.712H141.34V10.16ZM136.98 12.92H141.524V15.528H136.98V12.92ZM140.876 13.448H137.628V14.992H140.876V13.448ZM137.932 8.816C139.02 8.816 139.82 9.52 139.82 10.528C139.82 11.528 139.02 12.224 137.932 12.224C136.844 12.224 136.044 11.528 136.044 10.528C136.044 9.52 136.844 8.816 137.932 8.816ZM137.932 9.376C137.212 9.376 136.692 9.848 136.692 10.528C136.692 11.208 137.212 11.672 137.932 11.672C138.652 11.672 139.172 11.208 139.172 10.528C139.172 9.848 138.652 9.376 137.932 9.376ZM143.275 11.952H149.811V12.496H143.275V11.952ZM146.211 10.792H146.867V12.176H146.211V10.792ZM144.099 10.584H149.051V11.128H144.099V10.584ZM144.099 8.72H148.995V9.256H144.755V10.904H144.099V8.72ZM146.531 13.016C148.075 13.016 149.011 13.488 149.011 14.312C149.011 15.152 148.075 15.616 146.531 15.616C144.987 15.616 144.051 15.152 144.051 14.312C144.051 13.488 144.987 13.016 146.531 13.016ZM146.531 13.528C145.403 13.528 144.723 13.816 144.723 14.312C144.723 14.816 145.403 15.096 146.531 15.096C147.667 15.096 148.339 14.816 148.339 14.312C148.339 13.816 147.667 13.528 146.531 13.528ZM151.707 12.4609C151.707 11.9401 151.655 11.4648 151.551 11.0352C151.449 10.6029 151.303 10.2057 151.113 9.84375C150.926 9.47917 150.703 9.14062 150.445 8.82812H150.824C151.027 8.98958 151.224 9.19271 151.414 9.4375C151.607 9.68229 151.779 9.96224 151.93 10.2773C152.083 10.5898 152.204 10.931 152.293 11.3008C152.384 11.668 152.43 12.0547 152.43 12.4609C152.43 12.8672 152.384 13.2552 152.293 13.625C152.204 13.9922 152.083 14.332 151.93 14.6445C151.779 14.957 151.607 15.2357 151.414 15.4805C151.224 15.7279 151.027 15.9323 150.824 16.0938H150.445C150.703 15.7812 150.926 15.4427 151.113 15.0781C151.303 14.7161 151.449 14.3203 151.551 13.8906C151.655 13.4583 151.707 12.9818 151.707 12.4609Z" fill="#C9C9C9"/>
<path fill-rule="evenodd" clip-rule="evenodd" d="M21.1927 13.723C20.5187 14.2614 19.6642 14.5214 18.8046 14.4495C17.945 14.3776 17.1455 13.9793 16.5704 13.3363C15.9953 12.6934 15.6883 11.8547 15.7122 10.9924C15.7362 10.1301 16.0895 9.30972 16.6995 8.69976C17.3094 8.0898 18.1298 7.73654 18.9921 7.71255C19.8543 7.68856 20.6931 7.99565 21.336 8.57075C21.979 9.14585 22.3773 9.9453 22.4492 10.8049C22.5211 11.6645 22.2611 12.519 21.7227 13.193L24.3007 15.7705C24.3375 15.8048 24.3671 15.8462 24.3876 15.8922C24.4081 15.9382 24.4191 15.9879 24.42 16.0382C24.4209 16.0886 24.4116 16.1386 24.3927 16.1853C24.3739 16.232 24.3458 16.2744 24.3102 16.31C24.2746 16.3456 24.2322 16.3737 24.1855 16.3925C24.1388 16.4114 24.0888 16.4207 24.0384 16.4198C23.9881 16.4189 23.9384 16.4079 23.8924 16.3874C23.8464 16.3669 23.805 16.3373 23.7707 16.3005L21.1927 13.723ZM17.2297 12.942C16.8627 12.575 16.6127 12.1074 16.5114 11.5984C16.4101 11.0893 16.462 10.5617 16.6604 10.0821C16.8589 9.60255 17.1951 9.19258 17.6265 8.90402C18.0579 8.61546 18.5651 8.46126 19.0842 8.46091C19.6032 8.46056 20.1106 8.61408 20.5424 8.90206C20.9742 9.19004 21.3109 9.59956 21.5101 10.0789C21.7092 10.5582 21.7617 11.0857 21.6611 11.5949C21.5605 12.1041 21.3112 12.572 20.9447 12.9395L20.9422 12.942L20.9397 12.944C20.4472 13.4353 19.7799 13.711 19.0843 13.7107C18.3886 13.7103 17.7216 13.4338 17.2297 12.942Z" fill="black"/>
</svg>
