<svg width="288" height="80" viewBox="0 0 288 80" fill="none" xmlns="http://www.w3.org/2000/svg">
<path d="M0.5 2C0.5 1.17157 1.17157 0.5 2 0.5H286C286.828 0.5 287.5 1.17157 287.5 2V78C287.5 78.8284 286.828 79.5 286 79.5H1.99999C1.17157 79.5 0.5 78.8284 0.5 78V2Z" fill="white" stroke="#DDE1EB"/>
<path d="M32.1 30.92H33.86V31.61H32.1V30.92ZM32.1 33.67H33.86V34.36H32.1V33.67ZM35.38 28.74H36.18V37.78H35.38V28.74ZM33.61 28.93H34.39V37.33H33.61V28.93ZM30.53 29.49C31.7 29.49 32.46 30.7 32.46 32.64C32.46 34.58 31.7 35.79 30.53 35.79C29.36 35.79 28.61 34.58 28.61 32.64C28.61 30.7 29.36 29.49 30.53 29.49ZM30.53 30.26C29.82 30.26 29.36 31.18 29.36 32.64C29.36 34.1 29.82 35.02 30.53 35.02C31.25 35.02 31.7 34.1 31.7 32.64C31.7 31.18 31.25 30.26 30.53 30.26ZM37.4678 29.9834H38.1367C38.4069 30.3154 38.6429 30.693 38.8447 31.1162C39.0465 31.5394 39.2028 32.0065 39.3135 32.5176C39.4274 33.0254 39.4844 33.5755 39.4844 34.168C39.4844 34.7604 39.429 35.3268 39.3184 35.8672C39.2077 36.4043 39.0514 36.8958 38.8496 37.3418C38.6478 37.7878 38.4102 38.1719 38.1367 38.4941H37.4678C37.7412 38.1003 37.9691 37.6755 38.1514 37.2197C38.3369 36.7673 38.4769 36.2855 38.5713 35.7744C38.6657 35.2633 38.7129 34.7246 38.7129 34.1582C38.7129 33.5918 38.6559 33.0579 38.542 32.5566C38.4313 32.0521 38.2816 31.5833 38.0928 31.1504C37.9072 30.7174 37.6989 30.3285 37.4678 29.9834ZM45.5638 29.29H46.2438V30.4C46.2438 32.17 45.2638 33.58 43.7438 34.17L43.3038 33.51C44.6838 33.02 45.5638 31.8 45.5638 30.4V29.29ZM45.7038 29.29H46.3838V30.43C46.3838 31.66 47.2838 32.82 48.6038 33.29L48.1938 33.94C46.7038 33.4 45.7038 32.02 45.7038 30.43V29.29ZM49.5238 28.73H50.3538V35.41H49.5238V28.73ZM50.0938 31.51H51.6938V32.2H50.0938V31.51ZM44.7438 36.9H50.7538V37.58H44.7438V36.9ZM44.7438 34.78H45.5738V37.23H44.7438V34.78ZM54.423 30.4H55.053V30.69C55.053 32.15 54.323 33.46 53.013 34.01L52.603 33.39C53.753 32.93 54.423 31.84 54.423 30.69V30.4ZM54.583 30.4H55.203V30.69C55.203 31.77 55.893 32.79 57.033 33.23L56.643 33.85C55.313 33.33 54.583 32.08 54.583 30.69V30.4ZM52.783 29.93H56.813V30.6H52.783V29.93ZM54.423 28.84H55.203V30.21H54.423V28.84ZM59.363 28.75H60.153V34.29H59.363V28.75ZM57.903 31.15H59.613V31.83H57.903V31.15ZM57.443 28.9H58.223V34.23H57.443V28.9ZM54.093 34.77H60.153V37.78H59.333V35.44H54.093V34.77ZM65.4022 33.26H66.2322V34.84H65.4022V33.26ZM61.7322 32.97H69.9022V33.64H61.7322V32.97ZM65.8122 34.59C67.7522 34.59 68.9122 35.16 68.9122 36.18C68.9122 37.19 67.7522 37.76 65.8122 37.76C63.8722 37.76 62.7122 37.19 62.7122 36.18C62.7122 35.16 63.8722 34.59 65.8122 34.59ZM65.8122 35.23C64.4022 35.23 63.5522 35.57 63.5522 36.18C63.5522 36.78 64.4022 37.12 65.8122 37.12C67.2322 37.12 68.0722 36.78 68.0722 36.18C68.0722 35.57 67.2322 35.23 65.8122 35.23ZM65.2822 29.48H66.0222V29.75C66.0222 31.21 64.3622 32.19 62.4922 32.42L62.1922 31.76C63.8122 31.59 65.2822 30.78 65.2822 29.75V29.48ZM65.6322 29.48H66.3622V29.75C66.3622 30.78 67.8322 31.59 69.4522 31.76L69.1522 32.42C67.2822 32.19 65.6322 31.21 65.6322 29.75V29.48ZM62.4822 29.15H69.1722V29.82H62.4822V29.15ZM74.6014 32.25H76.3114V32.94H74.6014V32.25ZM77.8214 28.74H78.6214V37.78H77.8214V28.74ZM76.0314 28.93H76.8214V37.33H76.0314V28.93ZM72.9714 29.49C74.1414 29.49 74.9014 30.7 74.9014 32.64C74.9014 34.58 74.1414 35.79 72.9714 35.79C71.8014 35.79 71.0514 34.58 71.0514 32.64C71.0514 30.7 71.8014 29.49 72.9714 29.49ZM72.9714 30.26C72.2614 30.26 71.8114 31.18 71.8114 32.64C71.8114 34.1 72.2614 35.02 72.9714 35.02C73.6914 35.02 74.1414 34.1 74.1414 32.64C74.1414 31.18 73.6914 30.26 72.9714 30.26ZM84.816 29.43C86.146 29.43 87.086 30.66 87.086 32.58C87.086 34.51 86.146 35.74 84.816 35.74C83.486 35.74 82.546 34.51 82.546 32.58C82.546 30.66 83.486 29.43 84.816 29.43ZM84.816 30.18C83.936 30.18 83.336 31.12 83.336 32.58C83.336 34.05 83.936 35.01 84.816 35.01C85.686 35.01 86.296 34.05 86.296 32.58C86.296 31.12 85.686 30.18 84.816 30.18ZM88.526 28.74H89.366V37.78H88.526V28.74ZM89.166 32.35H90.846V33.05H89.166V32.35ZM91.6052 33.99H99.8052V34.67H91.6052V33.99ZM95.2652 34.4H96.0852V37.78H95.2652V34.4ZM92.6452 29.24H98.7452V32.77H92.6452V29.24ZM97.9352 29.91H93.4652V32.1H97.9352V29.91ZM107.414 28.74H108.244V37.78H107.414V28.74ZM105.304 32.36H107.784V33.05H105.304V32.36ZM104.514 29.71H105.334C105.334 32.29 104.264 34.57 101.264 36.07L100.804 35.42C103.434 34.13 104.514 32.21 104.514 29.85V29.71ZM101.194 29.71H104.954V30.39H101.194V29.71ZM116.734 32.34H118.404V33.04H116.734V32.34ZM116.124 28.73H116.964V37.78H116.124V28.73ZM110.364 29.62H111.194V35.22H110.364V29.62ZM110.364 34.79H111.084C112.424 34.79 113.794 34.7 115.284 34.39L115.384 35.08C113.844 35.4 112.454 35.49 111.084 35.49H110.364V34.79ZM123.698 29.44H124.378V30.16C124.378 31.72 123.348 32.99 121.808 33.48L121.398 32.82C122.768 32.41 123.698 31.35 123.698 30.16V29.44ZM123.848 29.44H124.528V30.16C124.528 31.23 125.428 32.21 126.758 32.59L126.368 33.25C124.858 32.79 123.848 31.59 123.848 30.16V29.44ZM121.678 29.24H126.518V29.92H121.678V29.24ZM127.668 28.74H128.498V33.39H127.668V28.74ZM128.138 30.7H129.828V31.39H128.138V30.7ZM122.758 33.82H128.498V36.01H123.598V37.4H122.778V35.4H127.688V34.47H122.758V33.82ZM122.778 37.05H128.828V37.69H122.778V37.05ZM135.183 29.2H135.863V30.09C135.863 31.84 134.883 33.26 133.363 33.84L132.923 33.18C134.293 32.68 135.183 31.47 135.183 30.09V29.2ZM135.333 29.2H136.003V30.08C136.003 31.31 136.903 32.47 138.203 32.93L137.773 33.59C136.313 33.04 135.333 31.67 135.333 30.08V29.2ZM139.143 28.74H139.973V34.03H139.143V28.74ZM139.743 30.98H141.313V31.68H139.743V30.98ZM134.293 34.45H139.973V37.66H134.293V34.45ZM139.163 35.11H135.103V36.99H139.163V35.11ZM146.422 31.27H148.902V31.94H146.422V31.27ZM146.322 33.68H148.802V34.36H146.322V33.68ZM145.912 29.68H146.712C146.712 32.29 145.812 34.69 142.632 36.29L142.162 35.65C144.952 34.25 145.912 32.24 145.912 29.77V29.68ZM142.652 29.68H146.412V30.35H142.652V29.68ZM145.862 31.92V32.55L142.332 32.88L142.192 32.16L145.862 31.92ZM148.762 28.73H149.592V37.77H148.762V28.73ZM155.871 31.8H158.391V32.48H155.871V31.8ZM153.691 29.52H154.371V31.13C154.371 33.16 153.301 35.1 151.871 35.87L151.341 35.21C152.671 34.55 153.691 32.81 153.691 31.13V29.52ZM153.851 29.52H154.521V31.13C154.521 32.78 155.541 34.42 156.851 35.04L156.361 35.71C154.901 34.97 153.851 33.11 153.851 31.13V29.52ZM157.981 28.73H158.801V37.79H157.981V28.73ZM32.12 41.63H32.84V42.01C32.84 43.63 31.12 44.82 29.3 45.13L28.98 44.47C30.57 44.24 32.12 43.2 32.12 42.01V41.63ZM32.33 41.63H33.04V42.01C33.04 43.2 34.6 44.24 36.18 44.47L35.87 45.13C34.04 44.82 32.33 43.63 32.33 42.01V41.63ZM32.15 46.33H32.97V49.78H32.15V46.33ZM28.5 45.89H36.67V46.57H28.5V45.89ZM29.26 41.3H35.88V41.97H29.26V41.3ZM40.6292 41.39C42.0392 41.39 43.0492 42.26 43.0492 43.52C43.0492 44.79 42.0392 45.66 40.6292 45.66C39.2192 45.66 38.1992 44.79 38.1992 43.52C38.1992 42.26 39.2192 41.39 40.6292 41.39ZM40.6292 42.11C39.6892 42.11 39.0092 42.68 39.0092 43.52C39.0092 44.36 39.6892 44.94 40.6292 44.94C41.5592 44.94 42.2392 44.36 42.2392 43.52C42.2392 42.68 41.5592 42.11 40.6292 42.11ZM44.2292 40.73H45.0592V49.79H44.2292V40.73ZM37.8592 47.81L37.7392 47.12C39.3892 47.12 41.6692 47.11 43.6392 46.8L43.7092 47.41C41.6792 47.8 39.4692 47.81 37.8592 47.81ZM46.8784 42.28H51.3584V42.96H46.8784V42.28ZM49.1184 43.56C50.2484 43.56 51.0684 44.41 51.0684 45.63C51.0684 46.84 50.2484 47.69 49.1184 47.69C47.9984 47.69 47.1784 46.84 47.1784 45.63C47.1784 44.41 47.9984 43.56 49.1184 43.56ZM49.1184 44.27C48.4284 44.27 47.9284 44.83 47.9284 45.63C47.9284 46.43 48.4284 46.99 49.1184 46.99C49.8184 46.99 50.3284 46.43 50.3284 45.63C50.3284 44.83 49.8184 44.27 49.1184 44.27ZM53.7484 40.74H54.5484V49.78H53.7484V40.74ZM52.3084 44.54H54.0184V45.23H52.3084V44.54ZM51.8184 40.94H52.5984V49.34H51.8184V40.94ZM48.7184 41H49.5384V42.7H48.7184V41ZM59.7177 41.63H60.4377V42.01C60.4377 43.63 58.7177 44.82 56.8977 45.13L56.5777 44.47C58.1677 44.24 59.7177 43.2 59.7177 42.01V41.63ZM59.9277 41.63H60.6377V42.01C60.6377 43.2 62.1977 44.24 63.7777 44.47L63.4677 45.13C61.6377 44.82 59.9277 43.63 59.9277 42.01V41.63ZM59.7477 46.33H60.5677V49.78H59.7477V46.33ZM56.0977 45.89H64.2677V46.57H56.0977V45.89ZM56.8577 41.3H63.4777V41.97H56.8577V41.3ZM71.8969 40.73H72.7369V49.79H71.8969V40.73ZM69.9469 42.7H72.3469V43.39H69.9469V42.7ZM69.9469 44.95H72.3469V45.65H69.9469V44.95ZM67.6269 41.52H68.2969V43.13C68.2969 45.16 67.2369 47.1 65.8069 47.87L65.2769 47.21C66.6069 46.55 67.6269 44.81 67.6269 43.13V41.52ZM67.7869 41.52H68.4569V43.13C68.4569 44.79 69.4769 46.45 70.7869 47.07L70.2869 47.74C68.8369 46.99 67.7869 45.12 67.7869 43.13V41.52ZM76.8961 41.43C78.2261 41.43 79.1661 42.66 79.1661 44.58C79.1661 46.51 78.2261 47.74 76.8961 47.74C75.5661 47.74 74.6261 46.51 74.6261 44.58C74.6261 42.66 75.5661 41.43 76.8961 41.43ZM76.8961 42.18C76.0161 42.18 75.4161 43.12 75.4161 44.58C75.4161 46.05 76.0161 47.01 76.8961 47.01C77.7661 47.01 78.3761 46.05 78.3761 44.58C78.3761 43.12 77.7661 42.18 76.8961 42.18ZM81.2161 43.01H82.8761V43.71H81.2161V43.01ZM81.2161 45.7H82.8761V46.4H81.2161V45.7ZM80.6061 40.74H81.4461V49.78H80.6061V40.74ZM85.9507 42.28H90.4307V42.96H85.9507V42.28ZM88.1907 43.56C89.3207 43.56 90.1407 44.41 90.1407 45.63C90.1407 46.84 89.3207 47.69 88.1907 47.69C87.0707 47.69 86.2507 46.84 86.2507 45.63C86.2507 44.41 87.0707 43.56 88.1907 43.56ZM88.1907 44.27C87.5007 44.27 87.0007 44.83 87.0007 45.63C87.0007 46.43 87.5007 46.99 88.1907 46.99C88.8907 46.99 89.4007 46.43 89.4007 45.63C89.4007 44.83 88.8907 44.27 88.1907 44.27ZM92.8207 40.74H93.6207V49.78H92.8207V40.74ZM91.3807 44.54H93.0907V45.23H91.3807V44.54ZM90.8907 40.94H91.6707V49.34H90.8907V40.94ZM87.7907 41H88.6107V42.7H87.7907V41ZM97.1699 45.39H97.9899V48.1H97.1699V45.39ZM100.51 45.39H101.34V48.1H100.51V45.39ZM95.1699 47.94H103.36V48.63H95.1699V47.94ZM99.2499 41.31C101.16 41.31 102.53 42.22 102.53 43.64C102.53 45.05 101.16 45.96 99.2499 45.96C97.3299 45.96 95.9599 45.05 95.9599 43.64C95.9599 42.22 97.3299 41.31 99.2499 41.31ZM99.2499 41.97C97.7999 41.97 96.7599 42.63 96.7599 43.64C96.7599 44.64 97.7999 45.3 99.2499 45.3C100.7 45.3 101.73 44.64 101.73 43.64C101.73 42.63 100.7 41.97 99.2499 41.97ZM104.626 48.4482C104.626 48.2594 104.688 48.1048 104.812 47.9844C104.938 47.8607 105.09 47.7988 105.266 47.7988C105.451 47.7988 105.607 47.8607 105.734 47.9844C105.861 48.1081 105.925 48.2627 105.925 48.4482C105.925 48.6305 105.861 48.7819 105.734 48.9023C105.607 49.0228 105.451 49.083 105.266 49.083C105.09 49.083 104.938 49.0228 104.812 48.9023C104.688 48.7819 104.626 48.6305 104.626 48.4482Z" fill="#C9C9C9"/>
</svg>
