<svg width="214" height="24" viewBox="0 0 214 24" fill="none" xmlns="http://www.w3.org/2000/svg">
<rect x="0.5" y="0.5" width="213" height="23" rx="1.5" fill="white" stroke="#E6E6E6"/>
<path d="M20 13C20.0989 13 20.1956 12.9707 20.2778 12.9157C20.36 12.8608 20.4241 12.7827 20.4619 12.6913C20.4998 12.6 20.5097 12.4994 20.4904 12.4025C20.4711 12.3055 20.4235 12.2164 20.3536 12.1464C20.2836 12.0765 20.1945 12.0289 20.0975 12.0096C20.0006 11.9903 19.9 12.0002 19.8087 12.0381C19.7173 12.0759 19.6392 12.14 19.5843 12.2222C19.5293 12.3044 19.5 12.4011 19.5 12.5C19.5 12.6326 19.5527 12.7598 19.6464 12.8536C19.7402 12.9473 19.8674 13 20 13ZM22.5 13C22.5989 13 22.6956 12.9707 22.7778 12.9157C22.86 12.8608 22.9241 12.7827 22.9619 12.6913C22.9998 12.6 23.0097 12.4994 22.9904 12.4025C22.9711 12.3055 22.9235 12.2164 22.8536 12.1464C22.7836 12.0765 22.6945 12.0289 22.5975 12.0096C22.5006 11.9903 22.4 12.0002 22.3087 12.0381C22.2173 12.0759 22.1392 12.14 22.0843 12.2222C22.0293 12.3044 22 12.4011 22 12.5C22 12.6326 22.0527 12.7598 22.1464 12.8536C22.2402 12.9473 22.3674 13 22.5 13ZM20 15C20.0989 15 20.1956 14.9707 20.2778 14.9157C20.36 14.8608 20.4241 14.7827 20.4619 14.6913C20.4998 14.6 20.5097 14.4994 20.4904 14.4025C20.4711 14.3055 20.4235 14.2164 20.3536 14.1464C20.2836 14.0765 20.1945 14.0289 20.0975 14.0096C20.0006 13.9903 19.9 14.0002 19.8087 14.0381C19.7173 14.0759 19.6392 14.14 19.5843 14.2222C19.5293 14.3044 19.5 14.4011 19.5 14.5C19.5 14.6326 19.5527 14.7598 19.6464 14.8536C19.7402 14.9473 19.8674 15 20 15ZM22.5 15C22.5989 15 22.6956 14.9707 22.7778 14.9157C22.86 14.8608 22.9241 14.7827 22.9619 14.6913C22.9998 14.6 23.0097 14.4994 22.9904 14.4025C22.9711 14.3055 22.9235 14.2164 22.8536 14.1464C22.7836 14.0765 22.6945 14.0289 22.5975 14.0096C22.5006 13.9903 22.4 14.0002 22.3087 14.0381C22.2173 14.0759 22.1392 14.14 22.0843 14.2222C22.0293 14.3044 22 14.4011 22 14.5C22 14.6326 22.0527 14.7598 22.1464 14.8536C22.2402 14.9473 22.3674 15 22.5 15ZM17.5 13C17.5989 13 17.6956 12.9707 17.7778 12.9157C17.86 12.8608 17.9241 12.7827 17.9619 12.6913C17.9998 12.6 18.0097 12.4994 17.9904 12.4025C17.9711 12.3055 17.9235 12.2164 17.8536 12.1464C17.7836 12.0765 17.6945 12.0289 17.5975 12.0096C17.5006 11.9903 17.4 12.0002 17.3087 12.0381C17.2173 12.0759 17.1392 12.14 17.0843 12.2222C17.0293 12.3044 17 12.4011 17 12.5C17 12.6326 17.0527 12.7598 17.1464 12.8536C17.2402 12.9473 17.3674 13 17.5 13ZM23.5 8H23V7.5C23 7.36739 22.9473 7.24021 22.8536 7.14645C22.7598 7.05268 22.6326 7 22.5 7C22.3674 7 22.2402 7.05268 22.1464 7.14645C22.0527 7.24021 22 7.36739 22 7.5V8H18V7.5C18 7.36739 17.9473 7.24021 17.8536 7.14645C17.7598 7.05268 17.6326 7 17.5 7C17.3674 7 17.2402 7.05268 17.1464 7.14645C17.0527 7.24021 17 7.36739 17 7.5V8H16.5C16.1022 8 15.7206 8.15804 15.4393 8.43934C15.158 8.72064 15 9.10218 15 9.5V15.5C15 15.8978 15.158 16.2794 15.4393 16.5607C15.7206 16.842 16.1022 17 16.5 17H23.5C23.8978 17 24.2794 16.842 24.5607 16.5607C24.842 16.2794 25 15.8978 25 15.5V9.5C25 9.10218 24.842 8.72064 24.5607 8.43934C24.2794 8.15804 23.8978 8 23.5 8ZM24 15.5C24 15.6326 23.9473 15.7598 23.8536 15.8536C23.7598 15.9473 23.6326 16 23.5 16H16.5C16.3674 16 16.2402 15.9473 16.1464 15.8536C16.0527 15.7598 16 15.6326 16 15.5V11H24V15.5ZM24 10H16V9.5C16 9.36739 16.0527 9.24021 16.1464 9.14645C16.2402 9.05268 16.3674 9 16.5 9H23.5C23.6326 9 23.7598 9.05268 23.8536 9.14645C23.9473 9.24021 24 9.36739 24 9.5V10ZM17.5 15C17.5989 15 17.6956 14.9707 17.7778 14.9157C17.86 14.8608 17.9241 14.7827 17.9619 14.6913C17.9998 14.6 18.0097 14.4994 17.9904 14.4025C17.9711 14.3055 17.9235 14.2164 17.8536 14.1464C17.7836 14.0765 17.6945 14.0289 17.5975 14.0096C17.5006 13.9903 17.4 14.0002 17.3087 14.0381C17.2173 14.0759 17.1392 14.14 17.0843 14.2222C17.0293 14.3044 17 14.4011 17 14.5C17 14.6326 17.0527 14.7598 17.1464 14.8536C17.2402 14.9473 17.3674 15 17.5 15Z" fill="black"/>
<path d="M47.168 11.1211H46.5547V11.0977C46.5547 10.8997 46.5898 10.7096 46.6602 10.5273C46.7331 10.3424 46.8385 10.1771 46.9766 10.0312C47.1172 9.88542 47.2917 9.77083 47.5 9.6875C47.7083 9.60156 47.9479 9.55859 48.2188 9.55859C48.5547 9.55859 48.8451 9.6224 49.0898 9.75C49.3346 9.8776 49.5234 10.0508 49.6562 10.2695C49.7917 10.4857 49.8594 10.7318 49.8594 11.0078C49.8594 11.2292 49.819 11.431 49.7383 11.6133C49.6576 11.7956 49.5495 11.9727 49.4141 12.1445C49.2812 12.3164 49.1328 12.4948 48.9688 12.6797L47.4648 14.4062V14.4492H49.9648V15H46.5703V14.5938L48.5977 12.2734C48.6966 12.1589 48.793 12.0404 48.8867 11.918C48.9831 11.793 49.0625 11.6589 49.125 11.5156C49.1875 11.3724 49.2188 11.2161 49.2188 11.0469C49.2188 10.8594 49.1758 10.694 49.0898 10.5508C49.0039 10.4076 48.8841 10.2969 48.7305 10.2188C48.5794 10.1406 48.4049 10.1016 48.207 10.1016C47.9883 10.1016 47.8008 10.1484 47.6445 10.2422C47.4883 10.3333 47.3698 10.4557 47.2891 10.6094C47.2083 10.7604 47.168 10.9232 47.168 11.0977C47.168 11.1003 47.168 11.1042 47.168 11.1094C47.168 11.1146 47.168 11.1185 47.168 11.1211ZM51.5547 12.2344V12.4414C51.5547 12.8841 51.6068 13.2643 51.7109 13.582C51.8151 13.8971 51.9609 14.1393 52.1484 14.3086C52.3359 14.4779 52.556 14.5625 52.8086 14.5625C53.0612 14.5625 53.2812 14.4779 53.4688 14.3086C53.6562 14.1393 53.8008 13.8971 53.9023 13.582C54.0065 13.2643 54.0586 12.8841 54.0586 12.4414V12.2344C54.0586 11.7943 54.0065 11.4154 53.9023 11.0977C53.8008 10.7799 53.6562 10.5365 53.4688 10.3672C53.2812 10.1953 53.0612 10.1094 52.8086 10.1094C52.556 10.1094 52.3359 10.1953 52.1484 10.3672C51.9609 10.5365 51.8151 10.7799 51.7109 11.0977C51.6068 11.4154 51.5547 11.7943 51.5547 12.2344ZM50.9297 12.4453V12.2344C50.9297 11.6927 51.0052 11.2214 51.1562 10.8203C51.3073 10.4193 51.5221 10.1094 51.8008 9.89062C52.082 9.66927 52.4193 9.55859 52.8125 9.55859C53.2057 9.55859 53.5417 9.66927 53.8203 9.89062C54.1016 10.1094 54.3151 10.4193 54.4609 10.8203C54.6094 11.2188 54.6836 11.6901 54.6836 12.2344V12.4453C54.6836 12.8516 54.6406 13.2188 54.5547 13.5469C54.4714 13.875 54.349 14.1562 54.1875 14.3906C54.026 14.6224 53.8294 14.8008 53.5977 14.9258C53.3659 15.0508 53.1029 15.1133 52.8086 15.1133C52.4154 15.1133 52.0781 15.0039 51.7969 14.7852C51.5182 14.5638 51.3034 14.2539 51.1523 13.8555C51.0039 13.457 50.9297 12.987 50.9297 12.4453ZM56.3711 11.1211H55.7578V11.0977C55.7578 10.8997 55.793 10.7096 55.8633 10.5273C55.9362 10.3424 56.0417 10.1771 56.1797 10.0312C56.3203 9.88542 56.4948 9.77083 56.7031 9.6875C56.9115 9.60156 57.151 9.55859 57.4219 9.55859C57.7578 9.55859 58.0482 9.6224 58.293 9.75C58.5378 9.8776 58.7266 10.0508 58.8594 10.2695C58.9948 10.4857 59.0625 10.7318 59.0625 11.0078C59.0625 11.2292 59.0221 11.431 58.9414 11.6133C58.8607 11.7956 58.7526 11.9727 58.6172 12.1445C58.4844 12.3164 58.3359 12.4948 58.1719 12.6797L56.668 14.4062V14.4492H59.168V15H55.7734V14.5938L57.8008 12.2734C57.8997 12.1589 57.9961 12.0404 58.0898 11.918C58.1862 11.793 58.2656 11.6589 58.3281 11.5156C58.3906 11.3724 58.4219 11.2161 58.4219 11.0469C58.4219 10.8594 58.3789 10.694 58.293 10.5508C58.207 10.4076 58.0872 10.2969 57.9336 10.2188C57.7826 10.1406 57.6081 10.1016 57.4102 10.1016C57.1914 10.1016 57.0039 10.1484 56.8477 10.2422C56.6914 10.3333 56.5729 10.4557 56.4922 10.6094C56.4115 10.7604 56.3711 10.9232 56.3711 11.0977C56.3711 11.1003 56.3711 11.1042 56.3711 11.1094C56.3711 11.1146 56.3711 11.1185 56.3711 11.1211ZM61.2227 12.5234V11.9805H61.7617C61.9648 11.9805 62.1445 11.9388 62.3008 11.8555C62.457 11.7695 62.5794 11.6549 62.668 11.5117C62.7565 11.3659 62.7995 11.2005 62.7969 11.0156C62.7943 10.7474 62.6992 10.5273 62.5117 10.3555C62.3242 10.1836 62.0768 10.0977 61.7695 10.0977C61.6185 10.0977 61.4818 10.1198 61.3594 10.1641C61.2396 10.2057 61.1341 10.2643 61.043 10.3398C60.9544 10.4128 60.8854 10.4961 60.8359 10.5898C60.7865 10.681 60.7591 10.7773 60.7539 10.8789H60.1484C60.1536 10.7148 60.1914 10.556 60.2617 10.4023C60.332 10.2461 60.4349 10.1055 60.5703 9.98047C60.7057 9.85286 60.8737 9.7513 61.0742 9.67578C61.2747 9.60026 61.5065 9.5612 61.7695 9.55859C62.1055 9.55599 62.3958 9.61458 62.6406 9.73438C62.888 9.85417 63.0794 10.0169 63.2148 10.2227C63.3529 10.4284 63.4258 10.6602 63.4336 10.918C63.4388 11.1706 63.3867 11.3893 63.2773 11.5742C63.168 11.7565 63.0339 11.901 62.875 12.0078C62.7188 12.1146 62.5703 12.1797 62.4297 12.2031V12.2383C62.5885 12.2539 62.7591 12.3099 62.9414 12.4062C63.1237 12.5 63.2799 12.6393 63.4102 12.8242C63.543 13.0091 63.612 13.2448 63.6172 13.5312C63.6224 13.7604 63.5794 13.9727 63.4883 14.168C63.3997 14.3607 63.2721 14.5286 63.1055 14.6719C62.9388 14.8125 62.7409 14.9219 62.5117 15C62.2826 15.0781 62.0312 15.1172 61.7578 15.1172C61.4115 15.1172 61.1107 15.0573 60.8555 14.9375C60.6003 14.8177 60.401 14.6562 60.2578 14.4531C60.1146 14.25 60.0365 14.0234 60.0234 13.7734H60.6211C60.6341 13.9219 60.6901 14.0573 60.7891 14.1797C60.8906 14.2995 61.026 14.3945 61.1953 14.4648C61.3646 14.5352 61.5573 14.5716 61.7734 14.5742C62.0208 14.5742 62.2344 14.5299 62.4141 14.4414C62.5964 14.3529 62.737 14.2305 62.8359 14.0742C62.9349 13.9154 62.9831 13.7357 62.9805 13.5352C62.9779 13.3294 62.9258 13.1523 62.8242 13.0039C62.7227 12.8529 62.5833 12.7357 62.4062 12.6523C62.2318 12.5664 62.0286 12.5234 61.7969 12.5234H61.2227ZM64.7773 16.1953H64.2031L66.1211 9.38672H66.6992L64.7773 16.1953ZM69.1445 14.5859C69.3815 14.5859 69.5938 14.5417 69.7812 14.4531C69.9714 14.362 70.1211 14.237 70.2305 14.0781C70.3398 13.9193 70.3945 13.7357 70.3945 13.5273C70.3945 13.319 70.3398 13.1354 70.2305 12.9766C70.1211 12.8177 69.9727 12.694 69.7852 12.6055C69.5977 12.5143 69.3841 12.4688 69.1445 12.4688C68.9049 12.4688 68.6901 12.5143 68.5 12.6055C68.3099 12.694 68.1602 12.8177 68.0508 12.9766C67.944 13.1354 67.8906 13.319 67.8906 13.5273C67.8906 13.7357 67.9453 13.9193 68.0547 14.0781C68.1641 14.237 68.3125 14.362 68.5 14.4531C68.6901 14.5417 68.9049 14.5859 69.1445 14.5859ZM69.1445 11.957C69.3477 11.957 69.5273 11.918 69.6836 11.8398C69.8424 11.7591 69.9661 11.6484 70.0547 11.5078C70.1458 11.3646 70.1914 11.2018 70.1914 11.0195C70.1914 10.8346 70.1458 10.6732 70.0547 10.5352C69.9661 10.3945 69.8424 10.2865 69.6836 10.2109C69.5273 10.1328 69.3477 10.0938 69.1445 10.0938C68.9414 10.0938 68.7604 10.1328 68.6016 10.2109C68.4427 10.2865 68.3177 10.3945 68.2266 10.5352C68.1354 10.6732 68.0898 10.8346 68.0898 11.0195C68.0898 11.2018 68.1354 11.3646 68.2266 11.5078C68.3177 11.6484 68.4427 11.7591 68.6016 11.8398C68.7604 11.918 68.9414 11.957 69.1445 11.957ZM69.125 15.1133C68.7656 15.1133 68.4453 15.0482 68.1641 14.918C67.8854 14.7852 67.6667 14.6016 67.5078 14.3672C67.3516 14.1328 67.2734 13.862 67.2734 13.5547C67.2734 13.3411 67.3086 13.1562 67.3789 13C67.4492 12.8411 67.5391 12.7083 67.6484 12.6016C67.7604 12.4922 67.8789 12.4049 68.0039 12.3398C68.1315 12.2721 68.2513 12.2266 68.3633 12.2031V12.168C68.2409 12.1289 68.1107 12.0612 67.9727 11.9648C67.8346 11.8659 67.7174 11.7357 67.6211 11.5742C67.5273 11.4102 67.4805 11.2096 67.4805 10.9727C67.4805 10.6992 67.5521 10.4557 67.6953 10.2422C67.8385 10.0286 68.0352 9.86198 68.2852 9.74219C68.5352 9.61979 68.8216 9.55859 69.1445 9.55859C69.4648 9.55859 69.75 9.61979 70 9.74219C70.25 9.86198 70.4466 10.0286 70.5898 10.2422C70.7331 10.4557 70.8047 10.6992 70.8047 10.9727C70.8047 11.2148 70.7552 11.418 70.6562 11.582C70.5573 11.7461 70.4388 11.8763 70.3008 11.9727C70.1654 12.0664 70.0378 12.1315 69.918 12.168V12.2031C70.0299 12.2266 70.1484 12.2721 70.2734 12.3398C70.401 12.4049 70.5208 12.4922 70.6328 12.6016C70.7448 12.7109 70.8346 12.8438 70.9023 13C70.9727 13.1562 71.0078 13.3385 71.0078 13.5469C71.0078 13.8568 70.9258 14.1289 70.7617 14.3633C70.6003 14.5977 70.3776 14.7812 70.0938 14.9141C69.8125 15.0469 69.4896 15.1133 69.125 15.1133ZM72.1602 16.1953H71.5859L73.5039 9.38672H74.082L72.1602 16.1953ZM75.3477 11.1211H74.7344V11.0977C74.7344 10.8997 74.7695 10.7096 74.8398 10.5273C74.9128 10.3424 75.0182 10.1771 75.1562 10.0312C75.2969 9.88542 75.4714 9.77083 75.6797 9.6875C75.888 9.60156 76.1276 9.55859 76.3984 9.55859C76.7344 9.55859 77.0247 9.6224 77.2695 9.75C77.5143 9.8776 77.7031 10.0508 77.8359 10.2695C77.9714 10.4857 78.0391 10.7318 78.0391 11.0078C78.0391 11.2292 77.9987 11.431 77.918 11.6133C77.8372 11.7956 77.7292 11.9727 77.5938 12.1445C77.4609 12.3164 77.3125 12.4948 77.1484 12.6797L75.6445 14.4062V14.4492H78.1445V15H74.75V14.5938L76.7773 12.2734C76.8763 12.1589 76.9727 12.0404 77.0664 11.918C77.1628 11.793 77.2422 11.6589 77.3047 11.5156C77.3672 11.3724 77.3984 11.2161 77.3984 11.0469C77.3984 10.8594 77.3555 10.694 77.2695 10.5508C77.1836 10.4076 77.0638 10.2969 76.9102 10.2188C76.7591 10.1406 76.5846 10.1016 76.3867 10.1016C76.168 10.1016 75.9805 10.1484 75.8242 10.2422C75.668 10.3333 75.5495 10.4557 75.4688 10.6094C75.388 10.7604 75.3477 10.9232 75.3477 11.0977C75.3477 11.1003 75.3477 11.1042 75.3477 11.1094C75.3477 11.1146 75.3477 11.1185 75.3477 11.1211ZM79.1641 13.7812H79.7734C79.7969 13.9141 79.8438 14.0299 79.9141 14.1289C79.987 14.2279 80.0755 14.3112 80.1797 14.3789C80.2839 14.444 80.3997 14.4922 80.5273 14.5234C80.6549 14.5547 80.7865 14.5703 80.9219 14.5703C81.1224 14.5703 81.3125 14.5208 81.4922 14.4219C81.6745 14.3229 81.8229 14.1784 81.9375 13.9883C82.0521 13.7956 82.1094 13.5638 82.1094 13.293C82.1094 13.0482 82.0547 12.8372 81.9453 12.6602C81.8385 12.4805 81.694 12.3424 81.5117 12.2461C81.3294 12.1497 81.1302 12.1016 80.9141 12.1016C80.7214 12.1016 80.5521 12.1341 80.4062 12.1992C80.2604 12.2643 80.1393 12.3451 80.043 12.4414C79.9492 12.5352 79.8763 12.6263 79.8242 12.7148H79.2891L79.5234 9.67188H82.4805V10.2227H80.0625L79.9102 12.043H79.9453C79.9844 11.9857 80.0508 11.9193 80.1445 11.8438C80.2383 11.7682 80.3607 11.7031 80.5117 11.6484C80.6628 11.5911 80.8398 11.5625 81.043 11.5625C81.3581 11.5625 81.6432 11.6315 81.8984 11.7695C82.1562 11.9076 82.362 12.1042 82.5156 12.3594C82.6693 12.6146 82.7461 12.9206 82.7461 13.2773C82.7461 13.6367 82.6667 13.9544 82.5078 14.2305C82.3516 14.5065 82.1341 14.7227 81.8555 14.8789C81.5768 15.0352 81.2526 15.1133 80.8828 15.1133C80.638 15.1133 80.4128 15.0794 80.207 15.0117C80.0039 14.944 79.8255 14.8503 79.6719 14.7305C79.5208 14.6081 79.4023 14.4661 79.3164 14.3047C79.2305 14.1406 79.1797 13.9661 79.1641 13.7812Z" fill="black"/>
<path d="M141.168 11.1211H140.555V11.0977C140.555 10.8997 140.59 10.7096 140.66 10.5273C140.733 10.3424 140.839 10.1771 140.977 10.0312C141.117 9.88542 141.292 9.77083 141.5 9.6875C141.708 9.60156 141.948 9.55859 142.219 9.55859C142.555 9.55859 142.845 9.6224 143.09 9.75C143.335 9.8776 143.523 10.0508 143.656 10.2695C143.792 10.4857 143.859 10.7318 143.859 11.0078C143.859 11.2292 143.819 11.431 143.738 11.6133C143.658 11.7956 143.549 11.9727 143.414 12.1445C143.281 12.3164 143.133 12.4948 142.969 12.6797L141.465 14.4062V14.4492H143.965V15H140.57V14.5938L142.598 12.2734C142.697 12.1589 142.793 12.0404 142.887 11.918C142.983 11.793 143.062 11.6589 143.125 11.5156C143.188 11.3724 143.219 11.2161 143.219 11.0469C143.219 10.8594 143.176 10.694 143.09 10.5508C143.004 10.4076 142.884 10.2969 142.73 10.2188C142.579 10.1406 142.405 10.1016 142.207 10.1016C141.988 10.1016 141.801 10.1484 141.645 10.2422C141.488 10.3333 141.37 10.4557 141.289 10.6094C141.208 10.7604 141.168 10.9232 141.168 11.0977C141.168 11.1003 141.168 11.1042 141.168 11.1094C141.168 11.1146 141.168 11.1185 141.168 11.1211ZM145.555 12.2344V12.4414C145.555 12.8841 145.607 13.2643 145.711 13.582C145.815 13.8971 145.961 14.1393 146.148 14.3086C146.336 14.4779 146.556 14.5625 146.809 14.5625C147.061 14.5625 147.281 14.4779 147.469 14.3086C147.656 14.1393 147.801 13.8971 147.902 13.582C148.007 13.2643 148.059 12.8841 148.059 12.4414V12.2344C148.059 11.7943 148.007 11.4154 147.902 11.0977C147.801 10.7799 147.656 10.5365 147.469 10.3672C147.281 10.1953 147.061 10.1094 146.809 10.1094C146.556 10.1094 146.336 10.1953 146.148 10.3672C145.961 10.5365 145.815 10.7799 145.711 11.0977C145.607 11.4154 145.555 11.7943 145.555 12.2344ZM144.93 12.4453V12.2344C144.93 11.6927 145.005 11.2214 145.156 10.8203C145.307 10.4193 145.522 10.1094 145.801 9.89062C146.082 9.66927 146.419 9.55859 146.812 9.55859C147.206 9.55859 147.542 9.66927 147.82 9.89062C148.102 10.1094 148.315 10.4193 148.461 10.8203C148.609 11.2188 148.684 11.6901 148.684 12.2344V12.4453C148.684 12.8516 148.641 13.2188 148.555 13.5469C148.471 13.875 148.349 14.1562 148.188 14.3906C148.026 14.6224 147.829 14.8008 147.598 14.9258C147.366 15.0508 147.103 15.1133 146.809 15.1133C146.415 15.1133 146.078 15.0039 145.797 14.7852C145.518 14.5638 145.303 14.2539 145.152 13.8555C145.004 13.457 144.93 12.987 144.93 12.4453ZM150.371 11.1211H149.758V11.0977C149.758 10.8997 149.793 10.7096 149.863 10.5273C149.936 10.3424 150.042 10.1771 150.18 10.0312C150.32 9.88542 150.495 9.77083 150.703 9.6875C150.911 9.60156 151.151 9.55859 151.422 9.55859C151.758 9.55859 152.048 9.6224 152.293 9.75C152.538 9.8776 152.727 10.0508 152.859 10.2695C152.995 10.4857 153.062 10.7318 153.062 11.0078C153.062 11.2292 153.022 11.431 152.941 11.6133C152.861 11.7956 152.753 11.9727 152.617 12.1445C152.484 12.3164 152.336 12.4948 152.172 12.6797L150.668 14.4062V14.4492H153.168V15H149.773V14.5938L151.801 12.2734C151.9 12.1589 151.996 12.0404 152.09 11.918C152.186 11.793 152.266 11.6589 152.328 11.5156C152.391 11.3724 152.422 11.2161 152.422 11.0469C152.422 10.8594 152.379 10.694 152.293 10.5508C152.207 10.4076 152.087 10.2969 151.934 10.2188C151.783 10.1406 151.608 10.1016 151.41 10.1016C151.191 10.1016 151.004 10.1484 150.848 10.2422C150.691 10.3333 150.573 10.4557 150.492 10.6094C150.411 10.7604 150.371 10.9232 150.371 11.0977C150.371 11.1003 150.371 11.1042 150.371 11.1094C150.371 11.1146 150.371 11.1185 150.371 11.1211ZM155.223 12.5234V11.9805H155.762C155.965 11.9805 156.145 11.9388 156.301 11.8555C156.457 11.7695 156.579 11.6549 156.668 11.5117C156.757 11.3659 156.799 11.2005 156.797 11.0156C156.794 10.7474 156.699 10.5273 156.512 10.3555C156.324 10.1836 156.077 10.0977 155.77 10.0977C155.618 10.0977 155.482 10.1198 155.359 10.1641C155.24 10.2057 155.134 10.2643 155.043 10.3398C154.954 10.4128 154.885 10.4961 154.836 10.5898C154.786 10.681 154.759 10.7773 154.754 10.8789H154.148C154.154 10.7148 154.191 10.556 154.262 10.4023C154.332 10.2461 154.435 10.1055 154.57 9.98047C154.706 9.85286 154.874 9.7513 155.074 9.67578C155.275 9.60026 155.507 9.5612 155.77 9.55859C156.105 9.55599 156.396 9.61458 156.641 9.73438C156.888 9.85417 157.079 10.0169 157.215 10.2227C157.353 10.4284 157.426 10.6602 157.434 10.918C157.439 11.1706 157.387 11.3893 157.277 11.5742C157.168 11.7565 157.034 11.901 156.875 12.0078C156.719 12.1146 156.57 12.1797 156.43 12.2031V12.2383C156.589 12.2539 156.759 12.3099 156.941 12.4062C157.124 12.5 157.28 12.6393 157.41 12.8242C157.543 13.0091 157.612 13.2448 157.617 13.5312C157.622 13.7604 157.579 13.9727 157.488 14.168C157.4 14.3607 157.272 14.5286 157.105 14.6719C156.939 14.8125 156.741 14.9219 156.512 15C156.283 15.0781 156.031 15.1172 155.758 15.1172C155.411 15.1172 155.111 15.0573 154.855 14.9375C154.6 14.8177 154.401 14.6562 154.258 14.4531C154.115 14.25 154.036 14.0234 154.023 13.7734H154.621C154.634 13.9219 154.69 14.0573 154.789 14.1797C154.891 14.2995 155.026 14.3945 155.195 14.4648C155.365 14.5352 155.557 14.5716 155.773 14.5742C156.021 14.5742 156.234 14.5299 156.414 14.4414C156.596 14.3529 156.737 14.2305 156.836 14.0742C156.935 13.9154 156.983 13.7357 156.98 13.5352C156.978 13.3294 156.926 13.1523 156.824 13.0039C156.723 12.8529 156.583 12.7357 156.406 12.6523C156.232 12.5664 156.029 12.5234 155.797 12.5234H155.223ZM158.777 16.1953H158.203L160.121 9.38672H160.699L158.777 16.1953ZM163.145 14.5859C163.382 14.5859 163.594 14.5417 163.781 14.4531C163.971 14.362 164.121 14.237 164.23 14.0781C164.34 13.9193 164.395 13.7357 164.395 13.5273C164.395 13.319 164.34 13.1354 164.23 12.9766C164.121 12.8177 163.973 12.694 163.785 12.6055C163.598 12.5143 163.384 12.4688 163.145 12.4688C162.905 12.4688 162.69 12.5143 162.5 12.6055C162.31 12.694 162.16 12.8177 162.051 12.9766C161.944 13.1354 161.891 13.319 161.891 13.5273C161.891 13.7357 161.945 13.9193 162.055 14.0781C162.164 14.237 162.312 14.362 162.5 14.4531C162.69 14.5417 162.905 14.5859 163.145 14.5859ZM163.145 11.957C163.348 11.957 163.527 11.918 163.684 11.8398C163.842 11.7591 163.966 11.6484 164.055 11.5078C164.146 11.3646 164.191 11.2018 164.191 11.0195C164.191 10.8346 164.146 10.6732 164.055 10.5352C163.966 10.3945 163.842 10.2865 163.684 10.2109C163.527 10.1328 163.348 10.0938 163.145 10.0938C162.941 10.0938 162.76 10.1328 162.602 10.2109C162.443 10.2865 162.318 10.3945 162.227 10.5352C162.135 10.6732 162.09 10.8346 162.09 11.0195C162.09 11.2018 162.135 11.3646 162.227 11.5078C162.318 11.6484 162.443 11.7591 162.602 11.8398C162.76 11.918 162.941 11.957 163.145 11.957ZM163.125 15.1133C162.766 15.1133 162.445 15.0482 162.164 14.918C161.885 14.7852 161.667 14.6016 161.508 14.3672C161.352 14.1328 161.273 13.862 161.273 13.5547C161.273 13.3411 161.309 13.1562 161.379 13C161.449 12.8411 161.539 12.7083 161.648 12.6016C161.76 12.4922 161.879 12.4049 162.004 12.3398C162.132 12.2721 162.251 12.2266 162.363 12.2031V12.168C162.241 12.1289 162.111 12.0612 161.973 11.9648C161.835 11.8659 161.717 11.7357 161.621 11.5742C161.527 11.4102 161.48 11.2096 161.48 10.9727C161.48 10.6992 161.552 10.4557 161.695 10.2422C161.839 10.0286 162.035 9.86198 162.285 9.74219C162.535 9.61979 162.822 9.55859 163.145 9.55859C163.465 9.55859 163.75 9.61979 164 9.74219C164.25 9.86198 164.447 10.0286 164.59 10.2422C164.733 10.4557 164.805 10.6992 164.805 10.9727C164.805 11.2148 164.755 11.418 164.656 11.582C164.557 11.7461 164.439 11.8763 164.301 11.9727C164.165 12.0664 164.038 12.1315 163.918 12.168V12.2031C164.03 12.2266 164.148 12.2721 164.273 12.3398C164.401 12.4049 164.521 12.4922 164.633 12.6016C164.745 12.7109 164.835 12.8438 164.902 13C164.973 13.1562 165.008 13.3385 165.008 13.5469C165.008 13.8568 164.926 14.1289 164.762 14.3633C164.6 14.5977 164.378 14.7812 164.094 14.9141C163.812 15.0469 163.49 15.1133 163.125 15.1133ZM166.16 16.1953H165.586L167.504 9.38672H168.082L166.16 16.1953ZM169.348 11.1211H168.734V11.0977C168.734 10.8997 168.77 10.7096 168.84 10.5273C168.913 10.3424 169.018 10.1771 169.156 10.0312C169.297 9.88542 169.471 9.77083 169.68 9.6875C169.888 9.60156 170.128 9.55859 170.398 9.55859C170.734 9.55859 171.025 9.6224 171.27 9.75C171.514 9.8776 171.703 10.0508 171.836 10.2695C171.971 10.4857 172.039 10.7318 172.039 11.0078C172.039 11.2292 171.999 11.431 171.918 11.6133C171.837 11.7956 171.729 11.9727 171.594 12.1445C171.461 12.3164 171.312 12.4948 171.148 12.6797L169.645 14.4062V14.4492H172.145V15H168.75V14.5938L170.777 12.2734C170.876 12.1589 170.973 12.0404 171.066 11.918C171.163 11.793 171.242 11.6589 171.305 11.5156C171.367 11.3724 171.398 11.2161 171.398 11.0469C171.398 10.8594 171.355 10.694 171.27 10.5508C171.184 10.4076 171.064 10.2969 170.91 10.2188C170.759 10.1406 170.585 10.1016 170.387 10.1016C170.168 10.1016 169.98 10.1484 169.824 10.2422C169.668 10.3333 169.549 10.4557 169.469 10.6094C169.388 10.7604 169.348 10.9232 169.348 11.0977C169.348 11.1003 169.348 11.1042 169.348 11.1094C169.348 11.1146 169.348 11.1185 169.348 11.1211ZM173.164 13.7812H173.773C173.797 13.9141 173.844 14.0299 173.914 14.1289C173.987 14.2279 174.076 14.3112 174.18 14.3789C174.284 14.444 174.4 14.4922 174.527 14.5234C174.655 14.5547 174.786 14.5703 174.922 14.5703C175.122 14.5703 175.312 14.5208 175.492 14.4219C175.674 14.3229 175.823 14.1784 175.938 13.9883C176.052 13.7956 176.109 13.5638 176.109 13.293C176.109 13.0482 176.055 12.8372 175.945 12.6602C175.839 12.4805 175.694 12.3424 175.512 12.2461C175.329 12.1497 175.13 12.1016 174.914 12.1016C174.721 12.1016 174.552 12.1341 174.406 12.1992C174.26 12.2643 174.139 12.3451 174.043 12.4414C173.949 12.5352 173.876 12.6263 173.824 12.7148H173.289L173.523 9.67188H176.48V10.2227H174.062L173.91 12.043H173.945C173.984 11.9857 174.051 11.9193 174.145 11.8438C174.238 11.7682 174.361 11.7031 174.512 11.6484C174.663 11.5911 174.84 11.5625 175.043 11.5625C175.358 11.5625 175.643 11.6315 175.898 11.7695C176.156 11.9076 176.362 12.1042 176.516 12.3594C176.669 12.6146 176.746 12.9206 176.746 13.2773C176.746 13.6367 176.667 13.9544 176.508 14.2305C176.352 14.5065 176.134 14.7227 175.855 14.8789C175.577 15.0352 175.253 15.1133 174.883 15.1133C174.638 15.1133 174.413 15.0794 174.207 15.0117C174.004 14.944 173.826 14.8503 173.672 14.7305C173.521 14.6081 173.402 14.4661 173.316 14.3047C173.23 14.1406 173.18 13.9661 173.164 13.7812Z" fill="black"/>
<g clip-path="url(#clip0_41_1993)">
<path d="M113.929 15.22L117.667 12L113.929 8.78001C113.896 8.74202 113.853 8.71068 113.804 8.68813C113.754 8.66558 113.7 8.65234 113.645 8.6493C113.589 8.64626 113.533 8.65349 113.481 8.67051C113.429 8.68753 113.382 8.71393 113.343 8.74794C113.304 8.78195 113.274 8.82276 113.255 8.86762C113.235 8.91247 113.228 8.96032 113.232 9.00793C113.237 9.05554 113.253 9.10179 113.28 9.14355C113.307 9.18532 113.344 9.22162 113.389 9.25001L116.185 11.6667H108.745C108.642 11.6667 108.543 11.7018 108.47 11.7643C108.397 11.8268 108.357 11.9116 108.357 12C108.357 12.0884 108.397 12.1732 108.47 12.2357C108.543 12.2982 108.642 12.3333 108.745 12.3333H116.185L113.389 14.75C113.316 14.8128 113.275 14.8977 113.276 14.9862C113.276 15.0746 113.317 15.1593 113.391 15.2217C113.464 15.284 113.563 15.3188 113.666 15.3185C113.769 15.3182 113.868 15.2828 113.941 15.22H113.929Z" fill="black"/>
</g>
<defs>
<clipPath id="clip0_41_1993">
<rect x="120" y="6" width="12" height="14" rx="5" transform="rotate(90 120 6)" fill="white"/>
</clipPath>
</defs>
</svg>
