<svg width="14" height="16" viewBox="0 0 14 16" fill="none" xmlns="http://www.w3.org/2000/svg">
<path fill-rule="evenodd" clip-rule="evenodd" d="M0 6.65421C0 2.97431 3.16555 0 6.9946 0C10.8344 0 14 2.97431 14 6.65421C14 8.50855 13.3058 10.2301 12.1631 11.6893C10.9025 13.2988 9.34883 14.7012 7.59998 15.8019C7.19972 16.0563 6.83848 16.0755 6.39919 15.8019C4.64037 14.7012 3.08666 13.2988 1.83688 11.6893C0.693398 10.2301 0 8.50855 0 6.65421ZM4.68945 6.86137C4.68945 8.09414 5.72498 9.06371 6.99469 9.06371C8.26523 9.06371 9.31072 8.09414 9.31072 6.86137C9.31072 5.63821 8.26523 4.62144 6.99469 4.62144C5.72498 4.62144 4.68945 5.63821 4.68945 6.86137Z" fill="white"/>
</svg>
