<svg width="74" height="21" viewBox="0 0 74 21" fill="none" xmlns="http://www.w3.org/2000/svg">
<path d="M0.100852 16V1.45455H6.10938C7.19839 1.45455 8.13826 1.66761 8.92898 2.09375C9.72443 2.51515 10.3376 3.10464 10.7685 3.86222C11.1993 4.61506 11.4148 5.491 11.4148 6.49006C11.4148 7.49384 11.1946 8.37216 10.7543 9.125C10.3187 9.87311 9.69602 10.4531 8.88636 10.8651C8.0767 11.277 7.11553 11.483 6.00284 11.483H2.29545V8.71307H5.34943C5.87974 8.71307 6.32244 8.62074 6.67756 8.43608C7.03741 8.25142 7.30966 7.99337 7.49432 7.66193C7.67898 7.32576 7.77131 6.93513 7.77131 6.49006C7.77131 6.04025 7.67898 5.65199 7.49432 5.32528C7.30966 4.99384 7.03741 4.73816 6.67756 4.55824C6.31771 4.37831 5.875 4.28835 5.34943 4.28835H3.61648V16H0.100852ZM18.0323 16.206C16.8912 16.206 15.9064 15.9811 15.0778 15.5312C14.2539 15.0767 13.6194 14.4304 13.1744 13.5923C12.734 12.7495 12.5138 11.7481 12.5138 10.5881C12.5138 9.46117 12.7364 8.47633 13.1815 7.63352C13.6265 6.78598 14.2539 6.12784 15.0636 5.65909C15.8732 5.18561 16.8273 4.94886 17.9258 4.94886C18.7023 4.94886 19.4125 5.0696 20.0565 5.31108C20.7004 5.55256 21.2567 5.91004 21.7255 6.38352C22.1942 6.85701 22.5588 7.44176 22.8192 8.13778C23.0797 8.82907 23.2099 9.62216 23.2099 10.517V11.3835H13.7283V9.36648H19.9783C19.9736 8.99716 19.886 8.66809 19.7156 8.37926C19.5451 8.09044 19.3107 7.86553 19.0124 7.70455C18.7189 7.53883 18.3803 7.45597 17.9968 7.45597C17.6085 7.45597 17.2605 7.54356 16.9528 7.71875C16.645 7.8892 16.4012 8.12358 16.2212 8.42188C16.0413 8.71544 15.9466 9.04924 15.9371 9.4233V11.4759C15.9371 11.9209 16.0247 12.3116 16.1999 12.6477C16.3751 12.9792 16.6237 13.2372 16.9457 13.4219C17.2676 13.6065 17.6512 13.6989 18.0962 13.6989C18.404 13.6989 18.6834 13.6562 18.9343 13.571C19.1853 13.4858 19.4007 13.3603 19.5806 13.1946C19.7605 13.0289 19.8955 12.8253 19.9854 12.5838L23.1744 12.6761C23.0418 13.3911 22.7506 14.0137 22.3008 14.544C21.8557 15.0696 21.271 15.4792 20.5465 15.7727C19.8221 16.0616 18.984 16.206 18.0323 16.206ZM31.1413 5.09091V7.64773H24.2592V5.09091H31.1413ZM25.701 2.47727H29.174V12.5696C29.174 12.7827 29.2071 12.9555 29.2734 13.0881C29.3445 13.2159 29.4463 13.3082 29.5788 13.3651C29.7114 13.4171 29.87 13.4432 30.0547 13.4432C30.1873 13.4432 30.3269 13.4313 30.4737 13.4077C30.6252 13.3793 30.7389 13.3556 30.8146 13.3366L31.3402 15.8438C31.1745 15.8911 30.9401 15.9503 30.6371 16.0213C30.3388 16.0923 29.9813 16.1373 29.5646 16.1562C28.7502 16.1941 28.0518 16.0994 27.4695 15.8722C26.8918 15.6402 26.4491 15.2803 26.1413 14.7926C25.8383 14.3049 25.6915 13.6918 25.701 12.9531V2.47727ZM32.9134 16V5.09091H36.2159V7.09375H36.3366C36.5639 6.43087 36.9474 5.90767 37.4872 5.52415C38.027 5.14062 38.6709 4.94886 39.419 4.94886C40.1766 4.94886 40.8253 5.14299 41.3651 5.53125C41.9048 5.91951 42.2481 6.44034 42.3949 7.09375H42.5085C42.7121 6.44508 43.1098 5.92661 43.7017 5.53835C44.2936 5.14536 44.992 4.94886 45.7969 4.94886C46.8291 4.94886 47.6671 5.2803 48.3111 5.94318C48.955 6.60133 49.277 7.50568 49.277 8.65625V16H45.804V9.4517C45.804 8.9072 45.6643 8.4929 45.3849 8.20881C45.1056 7.91998 44.7434 7.77557 44.2983 7.77557C43.8201 7.77557 43.4437 7.93182 43.169 8.24432C42.8991 8.55208 42.7642 8.96638 42.7642 9.48722V16H39.4261V9.41619C39.4261 8.90956 39.2888 8.50947 39.0142 8.21591C38.7396 7.92235 38.3774 7.77557 37.9276 7.77557C37.6245 7.77557 37.357 7.84896 37.125 7.99574C36.893 8.13778 36.7107 8.34138 36.5781 8.60653C36.4503 8.87169 36.3864 9.18419 36.3864 9.54403V16H32.9134ZM51.429 16V5.09091H54.902V16H51.429ZM53.169 3.8196C52.6813 3.8196 52.2623 3.65862 51.9119 3.33665C51.5616 3.00994 51.3864 2.61695 51.3864 2.15767C51.3864 1.70312 51.5616 1.31487 51.9119 0.992898C52.2623 0.666193 52.6813 0.50284 53.169 0.50284C53.6615 0.50284 54.0805 0.666193 54.4261 0.992898C54.7765 1.31487 54.9517 1.70312 54.9517 2.15767C54.9517 2.61695 54.7765 3.00994 54.4261 3.33665C54.0805 3.65862 53.6615 3.8196 53.169 3.8196ZM60.5856 1.45455V16H57.1126V1.45455H60.5856ZM64.9197 20.0909C64.5031 20.0909 64.1101 20.0578 63.7408 19.9915C63.3714 19.9299 63.0542 19.8471 62.7891 19.7429L63.5561 17.2216C63.897 17.3352 64.2048 17.4015 64.4794 17.4205C64.7588 17.4394 64.9979 17.3944 65.1967 17.2855C65.4003 17.1813 65.5566 16.9943 65.6655 16.7244L65.8004 16.3977L61.9226 5.09091H65.5589L67.5689 12.875H67.6825L69.7209 5.09091H73.3786L69.2663 17.044C69.0675 17.6406 68.7857 18.1662 68.4212 18.6207C68.0613 19.08 67.5949 19.4399 67.022 19.7003C66.4538 19.9607 65.7531 20.0909 64.9197 20.0909Z" fill="#279EFF"/>
</svg>
