<svg width="31" height="27" viewBox="0 0 31 27" fill="none" xmlns="http://www.w3.org/2000/svg">
<path d="M30.625 10.3906C30.625 11.1478 30.4005 11.8879 29.9798 12.5174C29.5592 13.147 28.9613 13.6376 28.2618 13.9274C27.5623 14.2171 26.7926 14.2929 26.05 14.1452C25.3075 13.9975 24.6254 13.6329 24.09 13.0975C23.5546 12.5621 23.19 11.88 23.0423 11.1375C22.8946 10.3949 22.9704 9.62516 23.2602 8.92567C23.5499 8.22617 24.0406 7.6283 24.6701 7.20766C25.2996 6.78702 26.0397 6.5625 26.7969 6.5625C27.8122 6.5625 28.7859 6.96582 29.5038 7.68373C30.2217 8.40165 30.625 9.37534 30.625 10.3906ZM7.65625 10.3906C7.65625 9.63349 7.43174 8.89337 7.0111 8.26383C6.59046 7.6343 5.99259 7.14364 5.29309 6.8539C4.59359 6.56416 3.82388 6.48835 3.0813 6.63606C2.33871 6.78377 1.65661 7.14836 1.12123 7.68373C0.585861 8.21911 0.221267 8.90121 0.0735581 9.6438C-0.074151 10.3864 0.00165866 11.1561 0.2914 11.8556C0.581142 12.5551 1.0718 13.153 1.70133 13.5736C2.33087 13.9942 3.071 14.2188 3.82813 14.2188C4.84341 14.2188 5.81711 13.8154 6.53502 13.0975C7.25293 12.3796 7.65625 11.4059 7.65625 10.3906ZM10.3906 7.65625C11.1478 7.65625 11.8879 7.43174 12.5174 7.0111C13.147 6.59046 13.6376 5.99258 13.9274 5.29309C14.2171 4.59359 14.2929 3.82388 14.1452 3.0813C13.9975 2.33871 13.6329 1.65661 13.0975 1.12123C12.5621 0.585861 11.88 0.221267 11.1375 0.0735581C10.3949 -0.074151 9.62517 0.00165866 8.92567 0.2914C8.22617 0.581142 7.6283 1.0718 7.20766 1.70133C6.78702 2.33087 6.5625 3.07099 6.5625 3.82813C6.5625 4.84341 6.96582 5.81711 7.68373 6.53502C8.40165 7.25293 9.37535 7.65625 10.3906 7.65625ZM20.2344 7.65625C20.9915 7.65625 21.7316 7.43174 22.3612 7.0111C22.9907 6.59046 23.4814 5.99258 23.7711 5.29309C24.0608 4.59359 24.1367 3.82388 23.9889 3.0813C23.8412 2.33871 23.4766 1.65661 22.9413 1.12123C22.4059 0.585861 21.7238 0.221267 20.9812 0.0735581C20.2386 -0.074151 19.4689 0.00165866 18.7694 0.2914C18.0699 0.581142 17.472 1.0718 17.0514 1.70133C16.6308 2.33087 16.4063 3.07099 16.4063 3.82813C16.4063 4.84341 16.8096 5.81711 17.5275 6.53502C18.2454 7.25293 19.2191 7.65625 20.2344 7.65625ZM23.3953 15.977C22.8398 15.6705 22.3501 15.2574 21.9543 14.7615C21.5585 14.2656 21.2645 13.6964 21.0889 13.0867C20.7252 11.8361 19.9655 10.7373 18.9238 9.95537C17.8822 9.17348 16.6149 8.75078 15.3125 8.75078C14.0101 8.75078 12.7428 9.17348 11.7012 9.95537C10.6595 10.7373 9.8998 11.8361 9.53613 13.0867C9.18484 14.3136 8.36128 15.351 7.2461 15.9715C6.1763 16.5504 5.33002 17.4694 4.84111 18.5831C4.35221 19.6969 4.24858 20.9419 4.54662 22.1212C4.84465 23.3005 5.52735 24.3468 6.48672 25.0946C7.44609 25.8423 8.62738 26.2489 9.84375 26.25C10.5727 26.2521 11.2945 26.1065 11.9656 25.8221C14.1054 24.9396 16.5073 24.9396 18.6471 25.8221C19.9431 26.3857 21.407 26.4258 22.7319 25.9338C24.0568 25.4418 25.1398 24.456 25.7538 23.183C26.3679 21.9101 26.4652 20.4489 26.0255 19.1057C25.5858 17.7625 24.6432 16.6418 23.3953 15.9783V15.977Z" fill="#2792FF"/>
</svg>
