<svg width="30" height="30" viewBox="0 0 50 50" fill="none" xmlns="http://www.w3.org/2000/svg">
<path d="M50 19.7722C50 21.2129 49.6334 22.6213 48.9467 23.8192C48.2599 25.0172 47.2838 25.9508 46.1418 26.5022C44.9997 27.0535 43.7431 27.1978 42.5307 26.9167C41.3183 26.6357 40.2047 25.9419 39.3306 24.9231C38.4565 23.9044 37.8612 22.6064 37.6201 21.1933C37.3789 19.7803 37.5027 18.3156 37.9758 16.9845C38.4488 15.6535 39.2499 14.5158 40.2777 13.7154C41.3055 12.9149 42.5139 12.4877 43.75 12.4877C45.4076 12.4877 46.9973 13.2552 48.1694 14.6213C49.3415 15.9874 50 17.8402 50 19.7722ZM12.5 19.7722C12.5 18.3315 12.1334 16.9231 11.4467 15.7252C10.7599 14.5272 9.78381 13.5936 8.64177 13.0422C7.49974 12.4909 6.24307 12.3466 5.03069 12.6277C3.81831 12.9088 2.70466 13.6025 1.83059 14.6213C0.956507 15.64 0.361252 16.938 0.120095 18.3511C-0.121063 19.7641 0.00270805 21.2288 0.475756 22.5599C0.948803 23.8909 1.74988 25.0286 2.77769 25.829C3.8055 26.6295 5.01387 27.0567 6.25 27.0567C7.9076 27.0567 9.49732 26.2892 10.6694 24.9231C11.8415 23.557 12.5 21.7042 12.5 19.7722ZM16.9643 14.569C18.2004 14.569 19.4088 14.1418 20.4366 13.3413C21.4644 12.5409 22.2655 11.4032 22.7385 10.0722C23.2116 8.74108 23.3354 7.27642 23.0942 5.86336C22.853 4.45031 22.2578 3.15234 21.3837 2.13358C20.5096 1.11483 19.396 0.421047 18.1836 0.139973C16.9712 -0.141101 15.7146 0.00315629 14.5725 0.554502C13.4305 1.10585 12.4544 2.03952 11.7676 3.23745C11.0808 4.43538 10.7143 5.84376 10.7143 7.2845C10.7143 9.21647 11.3728 11.0693 12.5449 12.4354C13.717 13.8015 15.3067 14.569 16.9643 14.569ZM33.0357 14.569C34.2718 14.569 35.4802 14.1418 36.508 13.3413C37.5358 12.5409 38.3369 11.4032 38.81 10.0722C39.283 8.74108 39.4068 7.27642 39.1656 5.86336C38.9245 4.45031 38.3292 3.15234 37.4551 2.13358C36.5811 1.11483 35.4674 0.421047 34.255 0.139973C33.0426 -0.141101 31.786 0.00315629 30.6439 0.554502C29.5019 1.10585 28.5258 2.03952 27.839 3.23745C27.1523 4.43538 26.7857 5.84376 26.7857 7.2845C26.7857 9.21647 27.4442 11.0693 28.6163 12.4354C29.7884 13.8015 31.3781 14.569 33.0357 14.569ZM38.1964 30.4024C37.2894 29.8191 36.4899 29.0332 35.8438 28.0895C35.1976 27.1458 34.7175 26.0628 34.4308 24.9026C33.8371 22.5227 32.5967 20.4318 30.896 18.944C29.1954 17.4561 27.1264 16.6517 25 16.6517C22.8736 16.6517 20.8046 17.4561 19.104 18.944C17.4033 20.4318 16.1629 22.5227 15.5692 24.9026C14.9957 27.2372 13.6511 29.2113 11.8304 30.392C10.0838 31.4935 8.70207 33.2422 7.90386 35.3617C7.10564 37.4811 6.93645 39.8502 7.42304 42.0942C7.90964 44.3383 9.02424 46.3292 10.5906 47.7521C12.1569 49.1751 14.0855 49.9487 16.0714 49.9508C17.2615 49.9548 18.44 49.6778 19.5357 49.1365C23.0292 47.4573 26.9507 47.4573 30.4442 49.1365C32.5602 50.2091 34.9502 50.2853 37.1133 49.3491C39.2765 48.4129 41.0446 46.537 42.0471 44.1147C43.0496 41.6925 43.2085 38.9119 42.4907 36.356C41.7728 33.8001 40.2338 31.6674 38.1964 30.405V30.4024Z" fill="#279EFF"/>
</svg>
