<svg width="147" height="40" viewBox="0 0 147 40" fill="none" xmlns="http://www.w3.org/2000/svg">
<path d="M0.201705 31V1.90909H12.2188C14.3968 1.90909 16.2765 2.33523 17.858 3.1875C19.4489 4.0303 20.6752 5.20928 21.5369 6.72443C22.3987 8.23011 22.8295 9.98201 22.8295 11.9801C22.8295 13.9877 22.3892 15.7443 21.5085 17.25C20.6373 18.7462 19.392 19.9062 17.7727 20.7301C16.1534 21.554 14.2311 21.9659 12.0057 21.9659H4.59091V16.4261H10.6989C11.7595 16.4261 12.6449 16.2415 13.3551 15.8722C14.0748 15.5028 14.6193 14.9867 14.9886 14.3239C15.358 13.6515 15.5426 12.8703 15.5426 11.9801C15.5426 11.0805 15.358 10.304 14.9886 9.65057C14.6193 8.98769 14.0748 8.47633 13.3551 8.11648C12.6354 7.75663 11.75 7.5767 10.6989 7.5767H7.23295V31H0.201705ZM36.0646 31.4119C33.7824 31.4119 31.8127 30.9621 30.1555 30.0625C28.5078 29.1534 27.2389 27.8608 26.3487 26.1847C25.468 24.4991 25.0277 22.4962 25.0277 20.1761C25.0277 17.9223 25.4728 15.9527 26.3629 14.267C27.2531 12.572 28.5078 11.2557 30.1271 10.3182C31.7464 9.37121 33.6546 8.89773 35.8516 8.89773C37.4046 8.89773 38.825 9.1392 40.1129 9.62216C41.4008 10.1051 42.5135 10.8201 43.451 11.767C44.3885 12.714 45.1177 13.8835 45.6385 15.2756C46.1593 16.6581 46.4197 18.2443 46.4197 20.0341V21.767H27.4567V17.733H39.9567C39.9472 16.9943 39.772 16.3362 39.4311 15.7585C39.0902 15.1809 38.6214 14.7311 38.0249 14.4091C37.4377 14.0777 36.7607 13.9119 35.9936 13.9119C35.2171 13.9119 34.5211 14.0871 33.9055 14.4375C33.29 14.7784 32.8023 15.2472 32.4425 15.8438C32.0826 16.4309 31.8932 17.0985 31.8743 17.8466V21.9517C31.8743 22.8419 32.0495 23.6231 32.3999 24.2955C32.7502 24.9583 33.2474 25.4744 33.8913 25.8438C34.5353 26.2131 35.3023 26.3977 36.1925 26.3977C36.808 26.3977 37.3667 26.3125 37.8686 26.142C38.3705 25.9716 38.8014 25.7206 39.1612 25.3892C39.5211 25.0578 39.791 24.6506 39.9709 24.1676L46.3487 24.3523C46.0836 25.7822 45.5012 27.0275 44.6016 28.0881C43.7114 29.1392 42.5419 29.9583 41.093 30.5455C39.6442 31.1231 37.968 31.4119 36.0646 31.4119ZM62.2827 9.18182V14.2955H48.5185V9.18182H62.2827ZM51.402 3.95455H58.348V24.1392C58.348 24.5653 58.4143 24.911 58.5469 25.1761C58.6889 25.4318 58.8925 25.6165 59.1577 25.7301C59.4228 25.8343 59.7401 25.8864 60.1094 25.8864C60.3745 25.8864 60.6539 25.8627 60.9474 25.8153C61.2505 25.7585 61.4777 25.7112 61.6293 25.6733L62.6804 30.6875C62.349 30.7822 61.8802 30.9006 61.2741 31.0426C60.6776 31.1847 59.9626 31.2746 59.1293 31.3125C57.5005 31.3883 56.1037 31.1989 54.9389 30.7443C53.7836 30.2803 52.8982 29.5606 52.2827 28.5852C51.6766 27.6098 51.383 26.3835 51.402 24.9062V3.95455ZM65.8267 31V9.18182H72.4318V13.1875H72.6733C73.1278 11.8617 73.8949 10.8153 74.9744 10.0483C76.054 9.28125 77.3419 8.89773 78.8381 8.89773C80.3532 8.89773 81.6506 9.28598 82.7301 10.0625C83.8097 10.839 84.4962 11.8807 84.7898 13.1875H85.017C85.4242 11.8902 86.2197 10.8532 87.4034 10.0767C88.5871 9.29072 89.9839 8.89773 91.5938 8.89773C93.6581 8.89773 95.3343 9.56061 96.6222 10.8864C97.91 12.2027 98.554 14.0114 98.554 16.3125V31H91.608V17.9034C91.608 16.8144 91.3286 15.9858 90.7699 15.4176C90.2112 14.84 89.4867 14.5511 88.5966 14.5511C87.6402 14.5511 86.8873 14.8636 86.3381 15.4886C85.7983 16.1042 85.5284 16.9328 85.5284 17.9744V31H78.8523V17.8324C78.8523 16.8191 78.5777 16.0189 78.0284 15.4318C77.4792 14.8447 76.7547 14.5511 75.8551 14.5511C75.2491 14.5511 74.714 14.6979 74.25 14.9915C73.786 15.2756 73.4214 15.6828 73.1562 16.2131C72.9006 16.7434 72.7727 17.3684 72.7727 18.0881V31H65.8267ZM102.858 31V9.18182H109.804V31H102.858ZM106.338 6.6392C105.363 6.6392 104.525 6.31723 103.824 5.6733C103.123 5.01989 102.773 4.2339 102.773 3.31534C102.773 2.40625 103.123 1.62973 103.824 0.985795C104.525 0.332385 105.363 0.00568008 106.338 0.00568008C107.323 0.00568008 108.161 0.332385 108.852 0.985795C109.553 1.62973 109.903 2.40625 109.903 3.31534C109.903 4.2339 109.553 5.01989 108.852 5.6733C108.161 6.31723 107.323 6.6392 106.338 6.6392ZM121.171 1.90909V31H114.225V1.90909H121.171ZM129.839 39.1818C129.006 39.1818 128.22 39.1155 127.482 38.983C126.743 38.8598 126.108 38.6941 125.578 38.4858L127.112 33.4432C127.794 33.6705 128.41 33.803 128.959 33.8409C129.518 33.8788 129.996 33.7888 130.393 33.571C130.801 33.3627 131.113 32.9886 131.331 32.4489L131.601 31.7955L123.845 9.18182H131.118L135.138 24.75H135.365L139.442 9.18182H146.757L138.533 33.0881C138.135 34.2813 137.571 35.3324 136.842 36.2415C136.123 37.16 135.19 37.8797 134.044 38.4006C132.908 38.9214 131.506 39.1818 129.839 39.1818Z" fill="#279EFF"/>
</svg>
