<svg width="18" height="18" viewBox="0 0 18 18" fill="none" xmlns="http://www.w3.org/2000/svg">
<path d="M16.7143 10.2857H10.2857V16.7143C10.2857 17.0553 10.1503 17.3823 9.90914 17.6234C9.66802 17.8645 9.34099 18 9 18C8.65901 18 8.33198 17.8645 8.09086 17.6234C7.84975 17.3823 7.71429 17.0553 7.71429 16.7143V10.2857H1.28571C0.944722 10.2857 0.617695 10.1503 0.376577 9.90914C0.135459 9.66802 0 9.34099 0 9C0 8.65901 0.135459 8.33198 0.376577 8.09086C0.617695 7.84975 0.944722 7.71429 1.28571 7.71429H7.71429V1.28571C7.71429 0.944722 7.84975 0.617695 8.09086 0.376577C8.33198 0.135458 8.65901 0 9 0C9.34099 0 9.66802 0.135458 9.90914 0.376577C10.1503 0.617695 10.2857 0.944722 10.2857 1.28571V7.71429H16.7143C17.0553 7.71429 17.3823 7.84975 17.6234 8.09086C17.8645 8.33198 18 8.65901 18 9C18 9.34099 17.8645 9.66802 17.6234 9.90914C17.3823 10.1503 17.0553 10.2857 16.7143 10.2857Z" fill="#545454"/>
</svg>
