<svg width="360" height="186" viewBox="0 0 360 186" fill="none" xmlns="http://www.w3.org/2000/svg">
<rect width="360" height="186" fill="white"/>
<circle cx="45" cy="63" r="10" fill="#279EFF"/>
<circle cx="179" cy="63" r="10" fill="#279EFF"/>
<circle cx="313" cy="63" r="10" fill="#279EFF"/>
<line x1="55" y1="62.5" x2="169" y2="62.5" stroke="#646464"/>
<line x1="189" y1="62.5" x2="303" y2="62.5" stroke="#646464"/>
<path d="M29.08 93.67H30.62V94.74H29.08V93.67ZM29.08 96.53H30.62V97.61H29.08V96.53ZM32.09 91.63H33.36V100.89H32.09V91.63ZM30.24 91.77H31.48V100.47H30.24V91.77ZM27.48 92.28C28.71 92.28 29.5 93.55 29.5 95.64C29.5 97.74 28.71 99.01 27.48 99.01C26.26 99.01 25.48 97.74 25.48 95.64C25.48 93.55 26.26 92.28 27.48 92.28ZM27.48 93.53C26.97 93.53 26.67 94.23 26.67 95.64C26.67 97.06 26.97 97.75 27.48 97.75C28 97.75 28.3 97.06 28.3 95.64C28.3 94.23 28 93.53 27.48 93.53ZM41.4792 92.83H43.0792V93.92H41.4792V92.83ZM41.4792 94.84H43.0792V95.93H41.4792V94.84ZM40.5592 91.63H41.8892V97.09H40.5592V91.63ZM35.7092 97.47H41.8892V100.89H40.5592V98.53H35.7092V97.47ZM37.1792 92.13C38.6092 92.13 39.6992 93.08 39.6992 94.4C39.6992 95.72 38.6092 96.66 37.1792 96.66C35.7492 96.66 34.6592 95.72 34.6592 94.4C34.6592 93.08 35.7492 92.13 37.1792 92.13ZM37.1792 93.26C36.4792 93.26 35.9592 93.67 35.9592 94.4C35.9592 95.13 36.4792 95.55 37.1792 95.55C37.8792 95.55 38.3992 95.13 38.3992 94.4C38.3992 93.67 37.8792 93.26 37.1792 93.26ZM49.7787 91.9H50.9487V92.33C50.9487 94.11 49.5487 95.62 47.1187 95.98L46.5987 94.91C48.7287 94.63 49.7787 93.42 49.7787 92.33V91.9ZM50.0287 91.9H51.1887V92.33C51.1887 93.41 52.2487 94.63 54.3687 94.91L53.8587 95.98C51.4287 95.62 50.0287 94.11 50.0287 92.33V91.9ZM49.7887 97.5H51.1087V100.89H49.7887V97.5ZM46.2987 96.66H54.6687V97.74H46.2987V96.66ZM55.8179 95.86H56.5979C58.4179 95.86 59.5379 95.82 60.8179 95.58L60.9379 96.64C59.6379 96.89 58.4679 96.94 56.5979 96.94H55.8179V95.86ZM55.8079 92.14H60.0379V94.99H57.1379V96.37H55.8179V94H58.7279V93.2H55.8079V92.14ZM61.4479 91.64H62.7779V97.26H61.4479V91.64ZM62.3979 93.84H64.0079V94.93H62.3979V93.84ZM56.5979 97.68H62.7779V100.89H61.4479V98.74H56.5979V97.68Z" fill="#424242"/>
<path d="M163.67 97.29C165.59 97.29 166.8 97.96 166.8 99.09C166.8 100.23 165.59 100.9 163.67 100.9C161.74 100.9 160.53 100.23 160.53 99.09C160.53 97.96 161.74 97.29 163.67 97.29ZM163.67 98.33C162.49 98.33 161.85 98.57 161.85 99.09C161.85 99.62 162.49 99.87 163.67 99.87C164.85 99.87 165.48 99.62 165.48 99.09C165.48 98.57 164.85 98.33 163.67 98.33ZM165.36 91.63H166.69V97.08H165.36V91.63ZM166.32 93.78H167.92V94.88H166.32V93.78ZM159.67 92.22H160.99V93.36H162.8V92.22H164.12V96.57H159.67V92.22ZM160.99 94.39V95.53H162.8V94.39H160.99ZM168.599 96.2H176.979V97.26H168.599V96.2ZM172.229 96.87H173.569V98.82H172.229V96.87ZM169.629 92.02H175.919V95.46H169.629V92.02ZM174.609 93.06H170.929V94.42H174.609V93.06ZM169.569 99.67H176.059V100.73H169.569V99.67ZM169.569 98.04H170.889V100.02H169.569V98.04ZM183.809 94.24H185.139V96.01H183.809V94.24ZM181.329 93.75H187.689V94.79H181.329V93.75ZM181.329 91.94H187.609V92.99H182.649V94.31H181.329V91.94ZM180.289 95.38H188.659V96.42H180.289V95.38ZM181.249 96.91H187.649V99.29H182.569V100.1H181.259V98.37H186.339V97.89H181.249V96.91ZM181.259 99.83H187.889V100.83H181.259V99.83ZM189.488 96.07H197.858V97.13H189.488V96.07ZM192.998 94.97H194.328V96.38H192.998V94.97ZM190.558 91.84H191.868V92.63H195.478V91.84H196.798V95.35H190.558V91.84ZM191.868 93.62V94.31H195.478V93.62H191.868ZM190.458 97.71H196.858V100.79H190.458V97.71ZM195.558 98.75H191.768V99.74H195.558V98.75Z" fill="#424242"/>
<path d="M298.42 93.87H300.18V94.95H298.42V93.87ZM299.82 91.63H301.15V97.13H299.82V91.63ZM298.01 97.33C299.97 97.33 301.18 98 301.18 99.12C301.18 100.25 299.97 100.9 298.01 100.9C296.05 100.9 294.84 100.25 294.84 99.12C294.84 98 296.05 97.33 298.01 97.33ZM298.01 98.34C296.81 98.34 296.17 98.59 296.17 99.12C296.17 99.64 296.81 99.89 298.01 99.89C299.22 99.89 299.86 99.64 299.86 99.12C299.86 98.59 299.22 98.34 298.01 98.34ZM295.54 92.56H296.62V93.14C296.62 94.91 295.8 96.53 294.03 97.13L293.35 96.08C294.88 95.56 295.54 94.33 295.54 93.14V92.56ZM295.82 92.56H296.89V93.14C296.89 94.23 297.52 95.36 298.98 95.85L298.33 96.9C296.61 96.33 295.82 94.79 295.82 93.14V92.56ZM293.71 92.19H298.69V93.25H293.71V92.19ZM304.679 92.2H305.769V93.2C305.769 95.04 304.939 96.62 303.169 97.23L302.459 96.19C304.029 95.69 304.679 94.45 304.679 93.2V92.2ZM304.939 92.2H306.019V93.21C306.019 94.37 306.649 95.53 308.139 96.02L307.459 97.05C305.739 96.48 304.939 94.95 304.939 93.21V92.2ZM308.559 91.63H309.889V98.4H308.559V91.63ZM309.509 94.31H311.119V95.41H309.509V94.31ZM303.919 99.67H310.219V100.73H303.919V99.67ZM303.919 97.76H305.259V100.23H303.919V97.76ZM320.249 91.63H321.579V97.03H320.249V91.63ZM321.209 93.73H322.809V94.82H321.209V93.73ZM314.559 92.17H315.879V93.34H317.689V92.17H319.009V96.58H314.559V92.17ZM315.879 94.36V95.54H317.689V94.36H315.879ZM315.559 97.44H321.629V98.49H316.889V100.48H315.559V97.44ZM315.559 99.73H321.809V100.78H315.559V99.73ZM329.868 91.63H331.208V100.89H329.868V91.63ZM327.138 92.59H328.458C328.458 95.42 327.498 97.74 324.208 99.33L323.518 98.27C326.178 96.99 327.138 95.31 327.138 92.83V92.59ZM324.008 92.59H327.768V93.64H324.008V92.59Z" fill="#424242"/>
<path d="M45.4814 66H44.2168V60.5703H44.1533C43.984 60.6908 43.8148 60.8112 43.6455 60.9316C43.4795 61.0521 43.3118 61.1725 43.1426 61.293C42.9733 61.4134 42.804 61.5339 42.6348 61.6543V60.4727C42.8984 60.2839 43.1621 60.0951 43.4258 59.9062C43.6895 59.7174 43.9531 59.527 44.2168 59.335H45.4814V66Z" fill="white"/>
<path d="M177.812 61.3125H176.596V61.249C176.596 60.9919 176.641 60.7428 176.732 60.502C176.827 60.2611 176.967 60.043 177.152 59.8477C177.341 59.6523 177.577 59.4977 177.86 59.3838C178.144 59.2666 178.477 59.208 178.861 59.208C179.317 59.208 179.714 59.2894 180.053 59.4521C180.391 59.6149 180.653 59.8363 180.839 60.1162C181.024 60.3962 181.117 60.7135 181.117 61.0684C181.117 61.3711 181.06 61.6413 180.946 61.8789C180.832 62.1165 180.686 62.3395 180.507 62.5479C180.331 62.7562 180.146 62.9678 179.95 63.1826L178.407 64.8916V64.9551H181.229V66H176.654V65.209L179.101 62.5527C179.221 62.4258 179.338 62.2923 179.452 62.1523C179.566 62.0124 179.66 61.8626 179.735 61.7031C179.81 61.5436 179.848 61.3711 179.848 61.1855C179.848 60.9967 179.804 60.8324 179.716 60.6924C179.628 60.5492 179.507 60.4368 179.354 60.3555C179.201 60.2741 179.027 60.2334 178.832 60.2334C178.62 60.2334 178.437 60.2806 178.28 60.375C178.127 60.4661 178.01 60.5898 177.929 60.7461C177.847 60.8991 177.807 61.0635 177.807 61.2393C177.807 61.2523 177.807 61.2653 177.807 61.2783C177.81 61.2913 177.812 61.3027 177.812 61.3125Z" fill="white"/>
<path d="M312.109 63.0605V62.0693H312.812C313.018 62.0693 313.2 62.0286 313.359 61.9473C313.519 61.8659 313.643 61.7536 313.73 61.6104C313.822 61.4671 313.866 61.3044 313.862 61.1221C313.862 60.8486 313.763 60.6273 313.564 60.458C313.369 60.2855 313.12 60.1992 312.817 60.1992C312.658 60.1992 312.515 60.222 312.388 60.2676C312.264 60.3132 312.155 60.3766 312.061 60.458C311.969 60.5361 311.898 60.6273 311.846 60.7314C311.794 60.8324 311.764 60.9365 311.758 61.0439H310.566C310.576 60.79 310.632 60.5524 310.732 60.3311C310.837 60.1064 310.985 59.9111 311.177 59.7451C311.372 59.5791 311.61 59.4489 311.89 59.3545C312.17 59.2568 312.49 59.208 312.852 59.208C313.311 59.2048 313.708 59.278 314.043 59.4277C314.378 59.5775 314.639 59.7842 314.824 60.0479C315.013 60.3083 315.109 60.6061 315.112 60.9414C315.119 61.2539 315.052 61.5208 314.912 61.7422C314.775 61.9603 314.609 62.1312 314.414 62.2549C314.222 62.3753 314.045 62.4486 313.882 62.4746V62.543C314.08 62.5625 314.29 62.6309 314.512 62.748C314.733 62.8652 314.922 63.0378 315.078 63.2656C315.234 63.4902 315.314 63.7799 315.317 64.1348C315.321 64.4473 315.257 64.7272 315.127 64.9746C315 65.222 314.819 65.432 314.585 65.6045C314.354 65.777 314.087 65.9089 313.784 66C313.481 66.0879 313.158 66.1318 312.812 66.1318C312.314 66.1318 311.89 66.0472 311.538 65.8779C311.19 65.7087 310.923 65.484 310.737 65.2041C310.552 64.9209 310.452 64.6117 310.439 64.2764H311.611C311.624 64.4359 311.683 64.5807 311.787 64.7109C311.895 64.8379 312.036 64.9388 312.212 65.0137C312.391 65.0853 312.593 65.1227 312.817 65.126C313.068 65.126 313.286 65.082 313.472 64.9941C313.657 64.9062 313.8 64.7842 313.901 64.6279C314.002 64.4684 314.051 64.2861 314.048 64.0811C314.048 63.8825 313.997 63.7067 313.896 63.5537C313.799 63.4007 313.66 63.2803 313.481 63.1924C313.302 63.1045 313.092 63.0605 312.852 63.0605H312.109Z" fill="white"/>
<path d="M30.145 111.218H30.698V115.565H30.145V111.218ZM28.157 112.975H29.242V113.444H28.157V112.975ZM28.976 111.351H29.529V114.977H28.976V111.351ZM25.427 111.757H28.374V112.24H25.427V111.757ZM25.385 114.725L25.322 114.235C26.169 114.235 27.527 114.228 28.521 114.102L28.542 114.536C27.534 114.711 26.218 114.725 25.385 114.725ZM25.966 112.086H26.498V114.354H25.966V112.086ZM27.296 112.086H27.828V114.354H27.296V112.086ZM28.304 115.278H28.801V115.481C28.801 116.573 27.639 117.322 26.358 117.525L26.141 117.07C27.268 116.916 28.304 116.279 28.304 115.481V115.278ZM28.388 115.278H28.885V115.481C28.885 116.279 29.928 116.916 31.048 117.07L30.831 117.525C29.55 117.322 28.388 116.573 28.388 115.481V115.278ZM32.1185 111.568H35.0655V114.158H32.1185V111.568ZM34.5055 112.03H32.6785V113.689H34.5055V112.03ZM36.3885 111.218H36.9695V114.473H36.3885V111.218ZM32.8745 114.788H36.9695V116.321H33.4555V117.21H32.8885V115.887H36.3955V115.25H32.8745V114.788ZM32.8885 117.014H37.1865V117.476H32.8885V117.014ZM42.8349 111.211H43.4159V117.553H42.8349V111.211ZM38.5929 115.544H39.1179C40.1749 115.544 41.1199 115.502 42.2399 115.32L42.3029 115.796C41.1549 115.985 40.2029 116.027 39.1179 116.027H38.5929V115.544ZM38.5789 111.806H41.5049V114.067H39.1739V115.726H38.5929V113.591H40.9169V112.282H38.5789V111.806ZM44.6614 114.158H50.4014V114.599H44.6614V114.158ZM45.3404 115.11H49.6804V116.461H45.9354V117.203H45.3614V116.062H49.1134V115.523H45.3404V115.11ZM45.3614 117.049H49.8834V117.469H45.3614V117.049ZM45.3894 111.4H49.6594V112.716H45.9774V113.402H45.4034V112.324H49.0924V111.813H45.3894V111.4ZM45.4034 113.262H49.7784V113.682H45.4034V113.262ZM52.8371 114.571H58.5561V115.04H52.8371V114.571ZM55.4061 113.752H55.9801V114.767H55.4061V113.752ZM53.5931 113.493H57.8841V113.948H53.5931V113.493ZM53.5931 111.4H57.8561V111.855H54.1671V113.738H53.5931V111.4ZM53.9991 112.436H57.6881V112.884H53.9991V112.436ZM55.6931 115.509C57.0721 115.509 57.8631 115.859 57.8631 116.524C57.8631 117.182 57.0721 117.532 55.6931 117.532C54.3141 117.532 53.5231 117.182 53.5231 116.524C53.5231 115.859 54.3141 115.509 55.6931 115.509ZM55.6931 115.95C54.6781 115.95 54.1111 116.153 54.1111 116.524C54.1111 116.902 54.6781 117.098 55.6931 117.098C56.7081 117.098 57.2751 116.902 57.2751 116.524C57.2751 116.153 56.7081 115.95 55.6931 115.95ZM63.6096 111.225H64.1906V115.971H63.6096V111.225ZM64.0086 113.297H65.1286V113.787H64.0086V113.297ZM59.2976 111.988H63.0356V112.457H59.2976V111.988ZM61.1666 112.807C62.0626 112.807 62.6786 113.276 62.6786 113.99C62.6786 114.697 62.0626 115.166 61.1666 115.166C60.2636 115.166 59.6476 114.697 59.6476 113.99C59.6476 113.276 60.2636 112.807 61.1666 112.807ZM61.1666 113.262C60.5926 113.262 60.2006 113.549 60.2006 113.99C60.2006 114.424 60.5926 114.711 61.1666 114.711C61.7336 114.711 62.1256 114.424 62.1256 113.99C62.1256 113.549 61.7336 113.262 61.1666 113.262ZM60.8726 111.218H61.4536V112.233H60.8726V111.218ZM60.2496 116.93H64.4776V117.406H60.2496V116.93ZM60.2496 115.593H60.8306V117.133H60.2496V115.593ZM29.676 119.218H30.257V123.845H29.676V119.218ZM30.075 121.136H31.195V121.619H30.075V121.136ZM27.947 119.708H28.563C28.563 121.346 27.415 122.543 25.602 123.124L25.35 122.648C26.946 122.158 27.947 121.178 27.947 119.96V119.708ZM25.609 119.708H28.241V120.184H25.609V119.708ZM26.309 124.93H30.537V125.406H26.309V124.93ZM26.309 123.376H26.89V125.119H26.309V123.376ZM36.4095 119.218H36.9905V123.929H36.4095V119.218ZM31.9715 119.729H35.3035V120.205H31.9715V119.729ZM31.8665 122.977L31.8035 122.48C32.8395 122.48 34.3165 122.466 35.4995 122.326L35.5345 122.76C34.3165 122.956 32.8955 122.977 31.8665 122.977ZM32.6015 120.135H33.1615V122.564H32.6015V120.135ZM34.1135 120.135H34.6735V122.564H34.1135V120.135ZM35.3595 120.415H36.7175V120.891H35.3595V120.415ZM35.3595 121.626H36.7175V122.102H35.3595V121.626ZM32.9445 124.93H37.1585V125.406H32.9445V124.93ZM32.9445 123.544H33.5255V125.231H32.9445V123.544ZM42.5549 119.225H43.1359V123.971H42.5549V119.225ZM42.9539 121.297H44.0739V121.787H42.9539V121.297ZM38.2429 119.988H41.9809V120.457H38.2429V119.988ZM40.1119 120.807C41.0079 120.807 41.6239 121.276 41.6239 121.99C41.6239 122.697 41.0079 123.166 40.1119 123.166C39.2089 123.166 38.5929 122.697 38.5929 121.99C38.5929 121.276 39.2089 120.807 40.1119 120.807ZM40.1119 121.262C39.5379 121.262 39.1459 121.549 39.1459 121.99C39.1459 122.424 39.5379 122.711 40.1119 122.711C40.6789 122.711 41.0709 122.424 41.0709 121.99C41.0709 121.549 40.6789 121.262 40.1119 121.262ZM39.8179 119.218H40.3989V120.233H39.8179V119.218ZM39.1949 124.93H43.4229V125.406H39.1949V124.93ZM39.1949 123.593H39.7759V125.133H39.1949V123.593ZM48.0707 119.764H48.5467V120.898C48.5467 122.354 47.7627 123.705 46.7267 124.23L46.3697 123.754C47.3077 123.306 48.0707 122.095 48.0707 120.898V119.764ZM48.1687 119.764H48.6447V120.898C48.6447 122.053 49.4007 123.215 50.3387 123.649L49.9887 124.111C48.9597 123.607 48.1687 122.305 48.1687 120.898V119.764ZM50.9967 119.211H51.5777V125.553H50.9967V119.211ZM57.1701 119.218H57.7511V123.845H57.1701V119.218ZM57.5691 121.136H58.6891V121.619H57.5691V121.136ZM55.4411 119.708H56.0571C56.0571 121.346 54.9091 122.543 53.0961 123.124L52.8441 122.648C54.4401 122.158 55.4411 121.178 55.4411 119.96V119.708ZM53.1031 119.708H55.7351V120.184H53.1031V119.708ZM53.8031 124.93H58.0311V125.406H53.8031V124.93ZM53.8031 123.376H54.3841V125.119H53.8031V123.376ZM63.5399 120.744H64.7719V121.227H63.5399V120.744ZM63.5399 122.669H64.7719V123.152H63.5399V122.669ZM65.8359 119.218H66.3959V125.546H65.8359V119.218ZM64.5969 119.351H65.1429V125.231H64.5969V119.351ZM62.4409 119.743C63.2599 119.743 63.7919 120.59 63.7919 121.948C63.7919 123.306 63.2599 124.153 62.4409 124.153C61.6219 124.153 61.0969 123.306 61.0969 121.948C61.0969 120.59 61.6219 119.743 62.4409 119.743ZM62.4409 120.282C61.9439 120.282 61.6219 120.926 61.6219 121.948C61.6219 122.97 61.9439 123.614 62.4409 123.614C62.9449 123.614 63.2599 122.97 63.2599 121.948C63.2599 120.926 62.9449 120.282 62.4409 120.282ZM72.1914 120.177H73.2904V120.667H72.1914V120.177ZM72.1914 121.535H73.2904V122.018H72.1914V121.535ZM71.7854 119.218H72.3664V122.977H71.7854V119.218ZM68.2574 123.278H72.3664V125.546H71.7854V123.747H68.2574V123.278ZM69.2234 119.589C70.1754 119.589 70.8754 120.205 70.8754 121.094C70.8754 121.976 70.1754 122.585 69.2234 122.585C68.2714 122.585 67.5714 121.976 67.5714 121.094C67.5714 120.205 68.2714 119.589 69.2234 119.589ZM69.2234 120.086C68.5934 120.086 68.1384 120.492 68.1384 121.094C68.1384 121.689 68.5934 122.102 69.2234 122.102C69.8534 122.102 70.3084 121.689 70.3084 121.094C70.3084 120.492 69.8534 120.086 69.2234 120.086Z" fill="#424242"/>
<path d="M280.145 111.218H280.698V115.565H280.145V111.218ZM278.157 112.975H279.242V113.444H278.157V112.975ZM278.976 111.351H279.529V114.977H278.976V111.351ZM275.427 111.757H278.374V112.24H275.427V111.757ZM275.385 114.725L275.322 114.235C276.169 114.235 277.527 114.228 278.521 114.102L278.542 114.536C277.534 114.711 276.218 114.725 275.385 114.725ZM275.966 112.086H276.498V114.354H275.966V112.086ZM277.296 112.086H277.828V114.354H277.296V112.086ZM278.304 115.278H278.801V115.481C278.801 116.573 277.639 117.322 276.358 117.525L276.141 117.07C277.268 116.916 278.304 116.279 278.304 115.481V115.278ZM278.388 115.278H278.885V115.481C278.885 116.279 279.928 116.916 281.048 117.07L280.831 117.525C279.55 117.322 278.388 116.573 278.388 115.481V115.278ZM282.118 111.568H285.065V114.158H282.118V111.568ZM284.505 112.03H282.678V113.689H284.505V112.03ZM286.388 111.218H286.969V114.473H286.388V111.218ZM282.874 114.788H286.969V116.321H283.455V117.21H282.888V115.887H286.395V115.25H282.874V114.788ZM282.888 117.014H287.186V117.476H282.888V117.014ZM292.835 111.211H293.416V117.553H292.835V111.211ZM288.593 115.544H289.118C290.175 115.544 291.12 115.502 292.24 115.32L292.303 115.796C291.155 115.985 290.203 116.027 289.118 116.027H288.593V115.544ZM288.579 111.806H291.505V114.067H289.174V115.726H288.593V113.591H290.917V112.282H288.579V111.806ZM294.661 114.158H300.401V114.599H294.661V114.158ZM295.34 115.11H299.68V116.461H295.935V117.203H295.361V116.062H299.113V115.523H295.34V115.11ZM295.361 117.049H299.883V117.469H295.361V117.049ZM295.389 111.4H299.659V112.716H295.977V113.402H295.403V112.324H299.092V111.813H295.389V111.4ZM295.403 113.262H299.778V113.682H295.403V113.262ZM302.837 114.571H308.556V115.04H302.837V114.571ZM305.406 113.752H305.98V114.767H305.406V113.752ZM303.593 113.493H307.884V113.948H303.593V113.493ZM303.593 111.4H307.856V111.855H304.167V113.738H303.593V111.4ZM303.999 112.436H307.688V112.884H303.999V112.436ZM305.693 115.509C307.072 115.509 307.863 115.859 307.863 116.524C307.863 117.182 307.072 117.532 305.693 117.532C304.314 117.532 303.523 117.182 303.523 116.524C303.523 115.859 304.314 115.509 305.693 115.509ZM305.693 115.95C304.678 115.95 304.111 116.153 304.111 116.524C304.111 116.902 304.678 117.098 305.693 117.098C306.708 117.098 307.275 116.902 307.275 116.524C307.275 116.153 306.708 115.95 305.693 115.95ZM309.27 112.296H312.406V112.772H309.27V112.296ZM310.838 113.192C311.629 113.192 312.203 113.787 312.203 114.641C312.203 115.488 311.629 116.083 310.838 116.083C310.054 116.083 309.48 115.488 309.48 114.641C309.48 113.787 310.054 113.192 310.838 113.192ZM310.838 113.689C310.355 113.689 310.005 114.081 310.005 114.641C310.005 115.201 310.355 115.593 310.838 115.593C311.328 115.593 311.685 115.201 311.685 114.641C311.685 114.081 311.328 113.689 310.838 113.689ZM314.079 111.218H314.639V117.546H314.079V111.218ZM313.071 113.878H314.268V114.361H313.071V113.878ZM312.728 111.358H313.274V117.238H312.728V111.358ZM310.558 111.4H311.132V112.59H310.558V111.4ZM322.058 111.218H322.639V114.494H322.058V111.218ZM318.551 114.816H322.646V116.335H319.132V117.203H318.565V115.901H322.072V115.271H318.551V114.816ZM318.565 117.014H322.856V117.476H318.565V117.014ZM319.104 111.4H319.587V111.883C319.587 113.052 318.859 114.046 317.788 114.438L317.501 113.976C318.453 113.64 319.104 112.8 319.104 111.883V111.4ZM319.209 111.4H319.685V111.883C319.685 112.758 320.35 113.549 321.288 113.857L321.001 114.312C319.937 113.948 319.209 113.017 319.209 111.883V111.4ZM325.565 111.764H326.041V112.898C326.041 114.354 325.257 115.705 324.221 116.23L323.864 115.754C324.802 115.306 325.565 114.095 325.565 112.898V111.764ZM325.663 111.764H326.139V112.898C326.139 114.053 326.895 115.215 327.833 115.649L327.483 116.111C326.454 115.607 325.663 114.305 325.663 112.898V111.764ZM328.491 111.211H329.072V117.553H328.491V111.211ZM334.664 111.218H335.245V115.845H334.664V111.218ZM335.063 113.136H336.183V113.619H335.063V113.136ZM332.935 111.708H333.551C333.551 113.346 332.403 114.543 330.59 115.124L330.338 114.648C331.934 114.158 332.935 113.178 332.935 111.96V111.708ZM330.597 111.708H333.229V112.184H330.597V111.708ZM331.297 116.93H335.525V117.406H331.297V116.93ZM331.297 115.376H331.878V117.119H331.297V115.376ZM339.634 111.617C340.95 111.617 341.93 112.317 341.93 113.367C341.93 114.424 340.95 115.117 339.634 115.117C338.318 115.117 337.331 114.424 337.331 113.367C337.331 112.317 338.318 111.617 339.634 111.617ZM339.634 112.093C338.633 112.093 337.891 112.604 337.891 113.367C337.891 114.123 338.633 114.641 339.634 114.641C340.635 114.641 341.377 114.123 341.377 113.367C341.377 112.604 340.635 112.093 339.634 112.093ZM336.778 116.223H342.511V116.713H336.778V116.223ZM343.217 116.286H348.95V116.769H343.217V116.286ZM345.779 114.928H346.36V116.489H345.779V114.928ZM343.91 111.687H348.243V113.605H344.505V114.872H343.931V113.136H347.669V112.156H343.91V111.687ZM343.931 114.627H348.39V115.103H343.931V114.627ZM277.002 122.186H277.583V122.998H277.002V122.186ZM279.669 119.225H280.25V123.467H279.669V119.225ZM280.005 121.136H281.174V121.619H280.005V121.136ZM275.385 123.285L275.308 122.809C276.442 122.809 277.982 122.809 279.291 122.62L279.34 123.033C277.989 123.271 276.491 123.278 275.385 123.285ZM276.092 123.782H280.25V125.546H279.669V124.244H276.092V123.782ZM275.469 119.792H279.102V120.226H275.469V119.792ZM277.289 120.471C278.178 120.471 278.759 120.828 278.759 121.409C278.759 121.99 278.178 122.347 277.289 122.347C276.393 122.347 275.812 121.99 275.812 121.409C275.812 120.828 276.393 120.471 277.289 120.471ZM277.289 120.87C276.722 120.87 276.358 121.073 276.358 121.409C276.358 121.731 276.722 121.941 277.289 121.941C277.849 121.941 278.213 121.731 278.213 121.409C278.213 121.073 277.849 120.87 277.289 120.87ZM277.002 119.169H277.583V120.002H277.002V119.169ZM286.388 119.225H286.976V123.845H286.388V119.225ZM282.909 124.93H287.165V125.406H282.909V124.93ZM282.909 123.369H283.483V125.091H282.909V123.369ZM283.581 119.659C284.526 119.659 285.226 120.303 285.226 121.22C285.226 122.13 284.526 122.781 283.581 122.781C282.636 122.781 281.929 122.13 281.929 121.22C281.929 120.303 282.636 119.659 283.581 119.659ZM283.581 120.163C282.965 120.163 282.496 120.597 282.496 121.22C282.496 121.836 282.965 122.27 283.581 122.27C284.197 122.27 284.666 121.836 284.666 121.22C284.666 120.597 284.197 120.163 283.581 120.163ZM292.513 119.218H293.094V125.546H292.513V119.218ZM292.954 121.815H294.13V122.305H292.954V121.815ZM288.194 120.226H291.925V120.702H288.194V120.226ZM290.084 121.227C290.98 121.227 291.624 121.829 291.624 122.683C291.624 123.537 290.98 124.139 290.084 124.139C289.195 124.139 288.544 123.537 288.544 122.683C288.544 121.829 289.195 121.227 290.084 121.227ZM290.084 121.71C289.51 121.71 289.097 122.109 289.097 122.683C289.097 123.25 289.51 123.656 290.084 123.656C290.658 123.656 291.071 123.25 291.071 122.683C291.071 122.109 290.658 121.71 290.084 121.71ZM289.783 119.295H290.364V120.443H289.783V119.295ZM295.27 119.848H299.344V120.331H295.27V119.848ZM294.668 124.181H300.387V124.664H294.668V124.181ZM296.887 121.92H297.468V124.419H296.887V121.92ZM299.127 119.848H299.701V120.478C299.701 121.262 299.701 122.13 299.47 123.411L298.889 123.334C299.127 122.123 299.127 121.234 299.127 120.478V119.848ZM306.218 120.856H307.646V121.339H306.218V120.856ZM307.464 119.218H308.045V122.991H307.464V119.218ZM305.966 123.18C307.268 123.18 308.073 123.621 308.073 124.363C308.073 125.112 307.268 125.539 305.966 125.539C304.657 125.539 303.852 125.112 303.852 124.363C303.852 123.621 304.657 123.18 305.966 123.18ZM305.966 123.635C305.014 123.635 304.433 123.901 304.433 124.363C304.433 124.818 305.014 125.084 305.966 125.084C306.918 125.084 307.499 124.818 307.499 124.363C307.499 123.901 306.918 123.635 305.966 123.635ZM304.454 119.855H304.93V120.366C304.93 121.535 304.216 122.536 303.166 122.928L302.865 122.466C303.803 122.123 304.454 121.276 304.454 120.366V119.855ZM304.566 119.855H305.035V120.366C305.035 121.185 305.651 121.969 306.568 122.291L306.274 122.753C305.245 122.382 304.566 121.43 304.566 120.366V119.855ZM303.04 119.68H306.421V120.156H303.04V119.68ZM310.838 119.603H311.314V120.38C311.314 121.619 310.628 122.606 309.564 123.019L309.256 122.557C310.222 122.214 310.838 121.36 310.838 120.38V119.603ZM310.936 119.603H311.412V120.401C311.412 121.262 312.042 122.074 312.966 122.403L312.679 122.858C311.636 122.48 310.936 121.514 310.936 120.401V119.603ZM313.61 119.211H314.191V123.887H313.61V119.211ZM314.009 121.157H315.129V121.64H314.009V121.157ZM310.264 124.93H314.471V125.406H310.264V124.93ZM310.264 123.446H310.845V125.161H310.264V123.446ZM321.785 119.218H322.366V122.921H321.785V119.218ZM322.205 120.737H323.304V121.227H322.205V120.737ZM317.718 119.568H318.292V120.534H320.077V119.568H320.644V122.522H317.718V119.568ZM318.292 120.996V122.053H320.077V120.996H318.292ZM318.411 123.264H322.415V123.733H318.992V125.322H318.411V123.264ZM318.411 124.986H322.541V125.462H318.411V124.986ZM325.579 119.701C326.51 119.701 327.168 120.562 327.168 121.906C327.168 123.257 326.51 124.118 325.579 124.118C324.648 124.118 323.99 123.257 323.99 121.906C323.99 120.562 324.648 119.701 325.579 119.701ZM325.579 120.226C324.963 120.226 324.543 120.884 324.543 121.906C324.543 122.935 324.963 123.607 325.579 123.607C326.188 123.607 326.615 122.935 326.615 121.906C326.615 120.884 326.188 120.226 325.579 120.226ZM328.176 119.218H328.764V125.546H328.176V119.218ZM328.624 121.745H329.8V122.235H328.624V121.745ZM330.338 124.258H336.071V124.741H330.338V124.258ZM332.9 122.746H333.481V124.398H332.9V122.746ZM331.01 119.666H331.584V120.793H334.811V119.666H335.385V122.9H331.01V119.666ZM331.584 121.262V122.424H334.811V121.262H331.584ZM339.27 121.479H340.481V121.962H339.27V121.479ZM338.087 119.813H338.542V121.017C338.542 122.34 337.989 123.621 337.065 124.188L336.701 123.747C337.569 123.236 338.087 122.102 338.087 121.017V119.813ZM338.199 119.813H338.647V120.996C338.647 122.011 339.123 123.089 339.956 123.593L339.62 124.048C338.71 123.488 338.199 122.228 338.199 120.996V119.813ZM341.594 119.218H342.154V125.546H341.594V119.218ZM340.313 119.351H340.859V125.231H340.313V119.351ZM344.617 122.473H345.191V124.37H344.617V122.473ZM346.955 122.473H347.536V124.37H346.955V122.473ZM343.217 124.258H348.95V124.741H343.217V124.258ZM346.073 119.617C347.41 119.617 348.369 120.254 348.369 121.248C348.369 122.235 347.41 122.872 346.073 122.872C344.729 122.872 343.77 122.235 343.77 121.248C343.77 120.254 344.729 119.617 346.073 119.617ZM346.073 120.079C345.058 120.079 344.33 120.541 344.33 121.248C344.33 121.948 345.058 122.41 346.073 122.41C347.088 122.41 347.809 121.948 347.809 121.248C347.809 120.541 347.088 120.079 346.073 120.079Z" fill="#424242"/>
<path d="M139.952 111.848H144.026V112.331H139.952V111.848ZM139.35 116.181H145.069V116.664H139.35V116.181ZM141.569 113.92H142.15V116.419H141.569V113.92ZM143.809 111.848H144.383V112.478C144.383 113.262 144.383 114.13 144.152 115.411L143.571 115.334C143.809 114.123 143.809 113.234 143.809 112.478V111.848ZM150.563 111.218H151.116V114.949H150.563V111.218ZM149.555 112.807H150.752V113.29H149.555V112.807ZM149.184 111.337H149.73V114.914H149.184V111.337ZM146.867 115.25H151.116V117.546H150.542V115.726H146.867V115.25ZM147.952 111.687H148.54C148.54 113.199 147.7 114.34 146.104 115.012L145.817 114.585C147.224 114.011 147.952 113.066 147.952 111.883V111.687ZM146.069 111.687H148.162V112.163H146.069V111.687ZM156.828 111.218H157.409V114.802H156.828V111.218ZM152.621 111.582H153.195V114.158H152.621V111.582ZM152.621 113.836H153.132C154.189 113.836 155.134 113.766 156.142 113.556L156.226 114.032C155.176 114.256 154.224 114.326 153.132 114.326H152.621V113.836ZM153.321 115.11H157.409V117.462H153.321V115.11ZM156.842 115.572H153.888V116.986H156.842V115.572ZM160.719 111.673C161.706 111.673 162.413 112.282 162.413 113.164C162.413 114.053 161.706 114.662 160.719 114.662C159.732 114.662 159.018 114.053 159.018 113.164C159.018 112.282 159.732 111.673 160.719 111.673ZM160.719 112.177C160.061 112.177 159.585 112.576 159.585 113.164C159.585 113.752 160.061 114.158 160.719 114.158C161.37 114.158 161.846 113.752 161.846 113.164C161.846 112.576 161.37 112.177 160.719 112.177ZM163.239 111.211H163.82V117.553H163.239V111.211ZM158.78 116.167L158.696 115.684C159.851 115.684 161.447 115.677 162.826 115.46L162.875 115.887C161.454 116.16 159.907 116.167 158.78 116.167ZM168.524 111.764H169.007V112.247C169.007 113.36 168.279 114.298 167.215 114.662L166.921 114.2C167.873 113.892 168.524 113.108 168.524 112.247V111.764ZM168.636 111.764H169.119V112.247C169.119 113.066 169.784 113.801 170.715 114.095L170.428 114.55C169.378 114.207 168.636 113.318 168.636 112.247V111.764ZM167.082 111.631H170.547V112.1H167.082V111.631ZM171.443 111.218H172.031V114.641H171.443V111.218ZM167.95 114.956H168.524V115.705H171.457V114.956H172.031V117.462H167.95V114.956ZM168.524 116.174V116.986H171.457V116.174H168.524ZM175.846 113.675H177.043V114.158H175.846V113.675ZM178.1 111.218H178.66V117.546H178.1V111.218ZM176.847 111.351H177.4V117.231H176.847V111.351ZM174.705 111.743C175.524 111.743 176.056 112.59 176.056 113.948C176.056 115.306 175.524 116.153 174.705 116.153C173.886 116.153 173.361 115.306 173.361 113.948C173.361 112.59 173.886 111.743 174.705 111.743ZM174.705 112.282C174.208 112.282 173.893 112.926 173.893 113.948C173.893 114.97 174.208 115.614 174.705 115.614C175.209 115.614 175.524 114.97 175.524 113.948C175.524 112.926 175.209 112.282 174.705 112.282ZM184.35 115.187C185.638 115.187 186.429 115.621 186.429 116.363C186.429 117.105 185.638 117.539 184.35 117.539C183.062 117.539 182.271 117.105 182.271 116.363C182.271 115.621 183.062 115.187 184.35 115.187ZM184.35 115.656C183.412 115.656 182.838 115.915 182.838 116.363C182.838 116.818 183.412 117.077 184.35 117.077C185.288 117.077 185.862 116.818 185.862 116.363C185.862 115.915 185.288 115.656 184.35 115.656ZM185.785 111.218H186.366V115.019H185.785V111.218ZM186.205 112.807H187.304V113.297H186.205V112.807ZM181.718 111.617H182.292V112.562H184.077V111.617H184.644V114.536H181.718V111.617ZM182.292 113.024V114.067H184.077V113.024H182.292ZM187.892 114.452H193.625V114.928H187.892V114.452ZM190.51 114.746H191.091V116.202H190.51V114.746ZM188.627 111.512H192.883V113.738H188.627V111.512ZM192.309 111.981H189.194V113.269H192.309V111.981ZM188.62 116.93H192.988V117.406H188.62V116.93ZM188.62 115.593H189.194V117.098H188.62V115.593ZM198.622 111.218H199.203V117.546H198.622V111.218ZM199.063 113.815H200.239V114.305H199.063V113.815ZM194.303 112.226H198.034V112.702H194.303V112.226ZM196.193 113.227C197.089 113.227 197.733 113.829 197.733 114.683C197.733 115.537 197.089 116.139 196.193 116.139C195.304 116.139 194.653 115.537 194.653 114.683C194.653 113.829 195.304 113.227 196.193 113.227ZM196.193 113.71C195.619 113.71 195.206 114.109 195.206 114.683C195.206 115.25 195.619 115.656 196.193 115.656C196.767 115.656 197.18 115.25 197.18 114.683C197.18 114.109 196.767 113.71 196.193 113.71ZM195.892 111.295H196.473V112.443H195.892V111.295ZM203.627 112.625H205.538V113.108H203.627V112.625ZM203.627 114.627H205.538V115.11H203.627V114.627ZM202.465 111.701C203.382 111.701 204.04 112.562 204.04 113.906C204.04 115.257 203.382 116.118 202.465 116.118C201.541 116.118 200.89 115.257 200.89 113.906C200.89 112.562 201.541 111.701 202.465 111.701ZM202.465 112.226C201.856 112.226 201.436 112.884 201.436 113.906C201.436 114.935 201.856 115.607 202.465 115.607C203.074 115.607 203.494 114.935 203.494 113.906C203.494 112.884 203.074 112.226 202.465 112.226ZM205.412 111.211H205.986V117.553H205.412V111.211ZM141.142 122.403H141.723V123.81H141.142V122.403ZM143.949 119.218H144.53V124.034H143.949V119.218ZM140.211 124.93H144.684V125.406H140.211V124.93ZM140.211 123.565H140.792V125.063H140.211V123.565ZM139.392 122.62L139.315 122.144C140.484 122.144 142.052 122.13 143.396 121.955L143.438 122.382C142.073 122.599 140.54 122.62 139.392 122.62ZM142.661 122.956H144.096V123.383H142.661V122.956ZM141.373 119.477C142.297 119.477 142.927 119.911 142.927 120.576C142.927 121.248 142.297 121.682 141.373 121.682C140.442 121.682 139.812 121.248 139.812 120.576C139.812 119.911 140.442 119.477 141.373 119.477ZM141.373 119.911C140.778 119.911 140.365 120.17 140.365 120.576C140.365 120.982 140.778 121.241 141.373 121.241C141.961 121.241 142.374 120.982 142.374 120.576C142.374 120.17 141.961 119.911 141.373 119.911ZM150.073 119.218H150.654V125.546H150.073V119.218ZM150.514 121.815H151.69V122.305H150.514V121.815ZM145.754 120.226H149.485V120.702H145.754V120.226ZM147.644 121.227C148.54 121.227 149.184 121.829 149.184 122.683C149.184 123.537 148.54 124.139 147.644 124.139C146.755 124.139 146.104 123.537 146.104 122.683C146.104 121.829 146.755 121.227 147.644 121.227ZM147.644 121.71C147.07 121.71 146.657 122.109 146.657 122.683C146.657 123.25 147.07 123.656 147.644 123.656C148.218 123.656 148.631 123.25 148.631 122.683C148.631 122.109 148.218 121.71 147.644 121.71ZM147.343 119.295H147.924V120.443H147.343V119.295ZM153.895 119.764H154.371V120.898C154.371 122.354 153.587 123.705 152.551 124.23L152.194 123.754C153.132 123.306 153.895 122.095 153.895 120.898V119.764ZM153.993 119.764H154.469V120.898C154.469 122.053 155.225 123.215 156.163 123.649L155.813 124.111C154.784 123.607 153.993 122.305 153.993 120.898V119.764ZM156.821 119.211H157.402V125.553H156.821V119.211ZM159.438 121.115H163.736V121.591H159.438V121.115ZM158.661 122.438H164.401V122.914H158.661V122.438ZM159.438 119.449H160.012V121.353H159.438V119.449ZM159.396 124.916H163.771V125.392H159.396V124.916ZM159.396 123.544H159.97V125.042H159.396V123.544ZM168.51 119.764H168.986V120.898C168.986 122.354 168.202 123.705 167.166 124.23L166.809 123.754C167.747 123.306 168.51 122.095 168.51 120.898V119.764ZM168.608 119.764H169.084V120.898C169.084 122.053 169.84 123.215 170.778 123.649L170.428 124.111C169.399 123.607 168.608 122.305 168.608 120.898V119.764ZM171.436 119.211H172.017V125.553H171.436V119.211ZM177.61 119.218H178.191V123.845H177.61V119.218ZM178.009 121.136H179.129V121.619H178.009V121.136ZM175.881 119.708H176.497C176.497 121.346 175.349 122.543 173.536 123.124L173.284 122.648C174.88 122.158 175.881 121.178 175.881 119.96V119.708ZM173.543 119.708H176.175V120.184H173.543V119.708ZM174.243 124.93H178.471V125.406H174.243V124.93ZM174.243 123.376H174.824V125.119H174.243V123.376ZM179.982 119.785H182.887V122.718H179.982V119.785ZM182.32 120.254H180.549V122.249H182.32V120.254ZM184.049 119.211H184.63V123.852H184.049V119.211ZM184.448 121.143H185.568V121.626H184.448V121.143ZM180.689 124.93H184.917V125.406H180.689V124.93ZM180.689 123.411H181.27V125.133H180.689V123.411ZM186.891 119.484H190.965V119.96H186.891V119.484ZM186.156 122.109H191.896V122.585H186.156V122.109ZM190.587 119.484H191.154V120.002C191.154 120.597 191.154 121.304 190.944 122.291L190.377 122.221C190.587 121.276 190.587 120.59 190.587 120.002V119.484ZM190.748 120.695V121.129L186.814 121.304L186.73 120.828L190.748 120.695ZM186.863 123.313H191.175V125.462H186.863V123.313ZM190.608 123.775H187.43V124.993H190.608V123.775ZM196.907 121.129H197.481V122.263H196.907V121.129ZM195.094 120.898H199.378V121.367H195.094V120.898ZM195.094 119.463H199.308V119.932H195.668V121.15H195.094V119.463ZM194.331 121.962H200.05V122.431H194.331V121.962ZM195.024 122.963H199.322V124.391H195.612V125.154H195.038V123.964H198.748V123.411H195.024V122.963ZM195.038 125.021H199.511V125.476H195.038V125.021ZM201.114 119.743H201.695V120.688H203.683V119.743H204.257V122.592H201.114V119.743ZM201.695 121.15V122.116H203.683V121.15H201.695ZM202.395 122.424H202.976V123.901H202.395V122.424ZM205.055 119.218H205.636V125.546H205.055V119.218ZM205.468 121.871H206.637V122.361H205.468V121.871ZM200.785 124.251L200.701 123.761C201.842 123.761 203.368 123.754 204.656 123.579L204.705 124.006C203.368 124.237 201.891 124.258 200.785 124.251ZM207.938 122.249H212.285V122.725H207.938V122.249ZM207.217 124.209H212.95V124.692H207.217V124.209ZM207.938 119.799H212.222V120.282H208.519V122.459H207.938V119.799ZM218.256 119.218H218.844V122.697H218.256V119.218ZM213.979 122.088H214.49C215.638 122.088 216.485 122.053 217.5 121.885L217.563 122.368C216.52 122.529 215.666 122.564 214.49 122.564H213.979V122.088ZM213.965 119.526H216.835V121.241H214.546V122.403H213.979V120.786H216.268V119.995H213.965V119.526ZM214.749 123.012H215.323V123.754H218.27V123.012H218.844V125.462H214.749V123.012ZM215.323 124.216V124.986H218.27V124.216H215.323ZM224.695 119.218H225.276V125.546H224.695V119.218ZM220.495 119.834H221.069V123.754H220.495V119.834ZM220.495 123.411H221.013C221.972 123.411 222.973 123.341 224.044 123.117L224.114 123.614C223.015 123.838 222.014 123.915 221.013 123.915H220.495V123.411ZM230.813 119.211H231.401V125.553H230.813V119.211ZM231.261 121.71H232.437V122.2H231.261V121.71ZM226.802 123.488H227.299C228.468 123.488 229.287 123.446 230.232 123.271L230.295 123.761C229.322 123.943 228.489 123.978 227.299 123.978H226.802V123.488ZM226.802 119.827H229.742V120.303H227.376V123.705H226.802V119.827Z" fill="#424242"/>
</svg>
