<svg width="39" height="39" viewBox="0 0 39 39" fill="none" xmlns="http://www.w3.org/2000/svg">
<path d="M27.75 13.08C27.9695 13.2909 28.0927 13.5769 28.0927 13.875C28.0927 14.1731 27.9695 14.4591 27.75 14.67L24.625 17.67C24.4053 17.8807 24.1074 17.999 23.7969 17.999C23.4863 17.999 23.1885 17.8807 22.9688 17.67L21.4063 16.17C21.2911 16.067 21.1988 15.9428 21.1347 15.8048C21.0707 15.6668 21.0362 15.5178 21.0335 15.3668C21.0307 15.2157 21.0596 15.0657 21.1186 14.9256C21.1775 14.7855 21.2652 14.6583 21.3765 14.5514C21.4878 14.4446 21.6203 14.3604 21.7663 14.3038C21.9122 14.2472 22.0685 14.2194 22.2258 14.2221C22.3832 14.2248 22.5383 14.2578 22.6821 14.3193C22.8258 14.3808 22.9552 14.4695 23.0625 14.58L23.7969 15.285L26.0937 13.08C26.3135 12.8693 26.6113 12.751 26.9219 12.751C27.2324 12.751 27.5303 12.8693 27.75 13.08ZM27.75 22.92C27.8651 22.817 27.9575 22.6928 28.0215 22.5548C28.0856 22.4168 28.12 22.2678 28.1228 22.1168C28.1256 21.9657 28.0966 21.8157 28.0377 21.6756C27.9788 21.5355 27.891 21.4083 27.7797 21.3014C27.6685 21.1946 27.5359 21.1104 27.39 21.0538C27.2441 20.9972 27.0878 20.9694 26.9304 20.9721C26.7731 20.9748 26.6179 21.0078 26.4742 21.0693C26.3304 21.1308 26.201 21.2195 26.0937 21.33L23.7969 23.535L23.0625 22.83C22.9552 22.7195 22.8258 22.6308 22.6821 22.5693C22.5383 22.5078 22.3832 22.4748 22.2258 22.4721C22.0685 22.4694 21.9122 22.4972 21.7663 22.5538C21.6203 22.6104 21.4878 22.6946 21.3765 22.8014C21.2652 22.9083 21.1775 23.0355 21.1186 23.1756C21.0596 23.3157 21.0307 23.4657 21.0335 23.6168C21.0362 23.7678 21.0707 23.9168 21.1347 24.0548C21.1988 24.1928 21.2911 24.317 21.4063 24.42L22.9688 25.92C23.1885 26.1307 23.4863 26.249 23.7969 26.249C24.1074 26.249 24.4053 26.1307 24.625 25.92L27.75 22.92ZM11.6875 15.375C11.6875 15.0766 11.811 14.7905 12.0307 14.5795C12.2505 14.3685 12.5486 14.25 12.8594 14.25H18.3281C18.6389 14.25 18.937 14.3685 19.1568 14.5795C19.3765 14.7905 19.5 15.0766 19.5 15.375C19.5 15.6734 19.3765 15.9595 19.1568 16.1705C18.937 16.3815 18.6389 16.5 18.3281 16.5H12.8594C12.5486 16.5 12.2505 16.3815 12.0307 16.1705C11.811 15.9595 11.6875 15.6734 11.6875 15.375ZM12.8594 22.5C12.5486 22.5 12.2505 22.6185 12.0307 22.8295C11.811 23.0405 11.6875 23.3266 11.6875 23.625C11.6875 23.9234 11.811 24.2095 12.0307 24.4205C12.2505 24.6315 12.5486 24.75 12.8594 24.75H18.3281C18.6389 24.75 18.937 24.6315 19.1568 24.4205C19.3765 24.2095 19.5 23.9234 19.5 23.625C19.5 23.3266 19.3765 23.0405 19.1568 22.8295C18.937 22.6185 18.6389 22.5 18.3281 22.5H12.8594ZM25.7281 6C25.632 5.17498 25.2226 4.4129 24.5781 3.85946C23.9335 3.30601 23.0991 3.00003 22.2344 3H16.7656C15.9009 3.00003 15.0665 3.30601 14.4219 3.85946C13.7774 4.4129 13.368 5.17498 13.2719 6H10.5156C9.58322 6 8.68901 6.35558 8.0297 6.98851C7.3704 7.62145 7 8.47989 7 9.375V29.625C7 30.5201 7.3704 31.3785 8.0297 32.0115C8.68901 32.6444 9.58322 33 10.5156 33H28.4844C28.9461 33 29.4032 32.9127 29.8297 32.7431C30.2563 32.5735 30.6438 32.3249 30.9703 32.0115C31.2968 31.6981 31.5557 31.326 31.7324 30.9166C31.9091 30.5071 32 30.0682 32 29.625V9.375C32 8.93179 31.9091 8.49292 31.7324 8.08344C31.5557 7.67397 31.2968 7.30191 30.9703 6.98851C30.6438 6.67512 30.2563 6.42652 29.8297 6.25691C29.4032 6.0873 28.9461 6 28.4844 6H25.7281ZM16.7656 9.75H22.2344C23.4531 9.75 24.5266 9.1545 25.1578 8.25H28.4844C28.7952 8.25 29.0932 8.36853 29.313 8.5795C29.5328 8.79048 29.6562 9.07663 29.6562 9.375V29.625C29.6562 29.9234 29.5328 30.2095 29.313 30.4205C29.0932 30.6315 28.7952 30.75 28.4844 30.75H10.5156C10.2048 30.75 9.90675 30.6315 9.68698 30.4205C9.46721 30.2095 9.34375 29.9234 9.34375 29.625V9.375C9.34375 9.07663 9.46721 8.79048 9.68698 8.5795C9.90675 8.36853 10.2048 8.25 10.5156 8.25H13.8422C14.4734 9.1545 15.5469 9.75 16.7656 9.75ZM16.7656 5.25H22.2344C22.5452 5.25 22.8432 5.36853 23.063 5.5795C23.2828 5.79048 23.4062 6.07663 23.4062 6.375C23.4062 6.67337 23.2828 6.95952 23.063 7.1705C22.8432 7.38147 22.5452 7.5 22.2344 7.5H16.7656C16.4548 7.5 16.1568 7.38147 15.937 7.1705C15.7172 6.95952 15.5938 6.67337 15.5938 6.375C15.5938 6.07663 15.7172 5.79048 15.937 5.5795C16.1568 5.36853 16.4548 5.25 16.7656 5.25Z" fill="black"/>
<circle cx="19.5" cy="19.5" r="19" fill="#2F88FF" style="mix-blend-mode:multiply"/>
<circle cx="19.5" cy="19.5" r="19" stroke="#858586"/>
</svg>
