<svg width="10" height="10" viewBox="0 0 10 10" fill="none" xmlns="http://www.w3.org/2000/svg">
<path d="M3.5 3.5H2.5V4.5H3.5V3.5Z" fill="#2E3A59"/>
<path d="M4.5 3.5H5.5V4.5H4.5V3.5Z" fill="#2E3A59"/>
<path d="M7.5 3.5H6.5V4.5H7.5V3.5Z" fill="#2E3A59"/>
<path d="M0.5 1.5V9.5L2.9 7.7C3.07291 7.56982 3.28357 7.4996 3.5 7.5H8.5C9.05229 7.5 9.5 7.05228 9.5 6.5V1.5C9.5 0.947715 9.05229 0.5 8.5 0.5H1.5C0.947715 0.5 0.5 0.947715 0.5 1.5ZM1.5 7.5V1.5H8.5V6.5H3.167C2.95054 6.49942 2.73982 6.56966 2.567 6.7L1.5 7.5Z" fill="#2E3A59"/>
</svg>
