<svg width="24" height="24" viewBox="0 0 24 24" fill="none" xmlns="http://www.w3.org/2000/svg">
<path fill-rule="evenodd" clip-rule="evenodd" d="M17.3333 14.4C19.0513 14.4001 20.7029 14.9971 21.9437 16.0664C23.1845 17.1357 23.9188 18.5949 23.9933 20.1396L24 20.4V21.6C24.0002 22.2055 23.7461 22.7887 23.2887 23.2327C22.8312 23.6766 22.2042 23.9486 21.5333 23.994L21.3333 24H2.66667C1.9939 24.0002 1.34591 23.7715 0.852603 23.3598C0.359294 22.9481 0.0571244 22.3838 0.00666682 21.78L0 21.6V20.4C9.92566e-05 18.8538 0.663389 17.3674 1.85155 16.2507C3.0397 15.1339 4.661 14.4731 6.37733 14.406L6.66667 14.4H17.3333ZM17.3333 16.8H6.66667C5.64639 16.7999 4.66465 17.1508 3.92232 17.7807C3.17999 18.4107 2.73319 19.2721 2.67333 20.1888L2.66667 20.4V21.6H21.3333V20.4C21.3334 19.4817 20.9436 18.5982 20.2436 17.9301C19.5437 17.262 18.5865 16.8599 17.568 16.806L17.3333 16.8ZM12 0C13.7681 0 15.4638 0.632141 16.714 1.75736C17.9643 2.88258 18.6667 4.4087 18.6667 6C18.6667 7.5913 17.9643 9.11742 16.714 10.2426C15.4638 11.3679 13.7681 12 12 12C10.2319 12 8.5362 11.3679 7.28595 10.2426C6.03571 9.11742 5.33333 7.5913 5.33333 6C5.33333 4.4087 6.03571 2.88258 7.28595 1.75736C8.5362 0.632141 10.2319 0 12 0ZM12 2.4C11.4747 2.4 10.9546 2.49312 10.4693 2.67403C9.98396 2.85495 9.54301 3.12012 9.17157 3.45442C8.80014 3.78871 8.5055 4.18557 8.30448 4.62234C8.10346 5.05911 8 5.52724 8 6C8 6.47276 8.10346 6.94089 8.30448 7.37766C8.5055 7.81443 8.80014 8.21129 9.17157 8.54559C9.54301 8.87988 9.98396 9.14505 10.4693 9.32597C10.9546 9.50688 11.4747 9.6 12 9.6C13.0609 9.6 14.0783 9.22072 14.8284 8.54559C15.5786 7.87045 16 6.95478 16 6C16 5.04522 15.5786 4.12955 14.8284 3.45442C14.0783 2.77928 13.0609 2.4 12 2.4Z" fill="#279EFF"/>
</svg>
