<svg width="24" height="24" viewBox="0 0 24 24" fill="none" xmlns="http://www.w3.org/2000/svg">
<path d="M21.3333 2.4H20V0H17.3333V2.4H6.66667V0H4V2.4H2.66667C1.2 2.4 0 3.48 0 4.8V21.6C0 22.2365 0.280951 22.847 0.781048 23.2971C1.28115 23.7471 1.95942 24 2.66667 24H21.3333C22.8133 24 24 22.932 24 21.6V4.8C24 4.16348 23.719 3.55303 23.219 3.10294C22.7189 2.65286 22.0406 2.4 21.3333 2.4ZM21.3333 21.6H2.66667V9.6H21.3333V21.6ZM2.66667 7.2V4.8H21.3333V7.2H2.66667ZM10.08 19.752L18 12.636L16.5733 11.364L10.08 17.208L7.26667 14.676L5.85333 15.948L10.08 19.752Z" fill="white"/>
</svg>
