<svg width="20" height="20" viewBox="0 0 20 20" fill="none" xmlns="http://www.w3.org/2000/svg">
<path d="M18.7165 8.68887H4.37986L10.6433 2.25701C11.1439 1.74299 11.1439 0.899463 10.6433 0.385442C10.5246 0.263258 10.3835 0.166322 10.2283 0.100183C10.073 0.0340437 9.90655 0 9.73845 0C9.57035 0 9.40391 0.0340437 9.24864 0.100183C9.09337 0.166322 8.95233 0.263258 8.83359 0.385442L0.375351 9.07109C0.256366 9.19302 0.161968 9.33785 0.0975606 9.4973C0.033153 9.65674 0 9.82766 0 10.0003C0 10.1729 0.033153 10.3438 0.0975606 10.5033C0.161968 10.6627 0.256366 10.8075 0.375351 10.9295L8.83359 19.6151C8.95242 19.7371 9.09349 19.8339 9.24874 19.9C9.404 19.966 9.5704 20 9.73845 20C9.9065 20 10.0729 19.966 10.2282 19.9C10.3834 19.8339 10.5245 19.7371 10.6433 19.6151C10.7621 19.4931 10.8564 19.3482 10.9207 19.1888C10.985 19.0294 11.0181 18.8585 11.0181 18.6859C11.0181 18.5134 10.985 18.3425 10.9207 18.183C10.8564 18.0236 10.7621 17.8788 10.6433 17.7567L4.37986 11.3249H18.7165C19.4224 11.3249 20 10.7318 20 10.0069C20 9.28197 19.4224 8.68887 18.7165 8.68887Z" fill="#279EFF"/>
</svg>
