<svg width="10" height="8" viewBox="0 0 10 8" fill="none" xmlns="http://www.w3.org/2000/svg">
<path d="M1 0.888889H2.5L3.5 0H6.5L7.5 0.888889H9C9.26522 0.888889 9.51957 0.982539 9.70711 1.14924C9.89464 1.31594 10 1.54203 10 1.77778V7.11111C10 7.34686 9.89464 7.57295 9.70711 7.73965C9.51957 7.90635 9.26522 8 9 8H1C0.734784 8 0.48043 7.90635 0.292893 7.73965C0.105357 7.57295 0 7.34686 0 7.11111V1.77778C0 1.54203 0.105357 1.31594 0.292893 1.14924C0.48043 0.982539 0.734784 0.888889 1 0.888889ZM5 2.22222C4.33696 2.22222 3.70107 2.45635 3.23223 2.8731C2.76339 3.28984 2.5 3.85507 2.5 4.44444C2.5 5.03381 2.76339 5.59905 3.23223 6.01579C3.70107 6.43254 4.33696 6.66667 5 6.66667C5.66304 6.66667 6.29893 6.43254 6.76777 6.01579C7.23661 5.59905 7.5 5.03381 7.5 4.44444C7.5 3.85507 7.23661 3.28984 6.76777 2.8731C6.29893 2.45635 5.66304 2.22222 5 2.22222ZM5 3.11111C5.39782 3.11111 5.77936 3.25159 6.06066 3.50164C6.34196 3.75168 6.5 4.09082 6.5 4.44444C6.5 4.79807 6.34196 5.13721 6.06066 5.38725C5.77936 5.6373 5.39782 5.77778 5 5.77778C4.60218 5.77778 4.22064 5.6373 3.93934 5.38725C3.65804 5.13721 3.5 4.79807 3.5 4.44444C3.5 4.09082 3.65804 3.75168 3.93934 3.50164C4.22064 3.25159 4.60218 3.11111 5 3.11111Z" fill="#606060"/>
</svg>
