<svg width="17" height="16" viewBox="0 0 17 16" fill="none" xmlns="http://www.w3.org/2000/svg">
<path d="M15.25 8.3186C15.25 11.6325 12.2279 14.3186 8.5 14.3186C4.77213 14.3186 1.75 11.6325 1.75 8.3186M5.125 3.1211C6.118 2.6111 7.27037 2.3186 8.5 2.3186C9.72963 2.3186 10.882 2.6111 11.875 3.1211" stroke="white" stroke-width="1.5" stroke-linecap="round"/>
<path d="M1.75 8.31849V1.75149C1.75 1.10237 2.51875 0.75962 3.00137 1.19387L5.125 3.10337M15.25 8.31849V1.75149C15.25 1.10237 14.4812 0.75962 13.9986 1.19387L11.875 3.10337" stroke="white" stroke-width="1.5" stroke-linecap="round" stroke-linejoin="round"/>
<path d="M10.75 7.5686C11.1642 7.5686 11.5 7.23282 11.5 6.8186C11.5 6.40439 11.1642 6.0686 10.75 6.0686C10.3358 6.0686 10 6.40439 10 6.8186C10 7.23282 10.3358 7.5686 10.75 7.5686Z" fill="white"/>
<path d="M6.25 7.5686C6.66421 7.5686 7 7.23282 7 6.8186C7 6.40439 6.66421 6.0686 6.25 6.0686C5.83579 6.0686 5.5 6.40439 5.5 6.8186C5.5 7.23282 5.83579 7.5686 6.25 7.5686Z" fill="white"/>
<path d="M8.5 9.8186C8.91421 9.8186 9.25 9.48282 9.25 9.0686C9.25 8.65439 8.91421 8.3186 8.5 8.3186C8.08579 8.3186 7.75 8.65439 7.75 9.0686C7.75 9.48282 8.08579 9.8186 8.5 9.8186Z" fill="white"/>
<path d="M5.5 9.8186L1 10.1936M6.625 11.6936L2.125 13.9436M11.5 9.8186L16 10.1936M10.375 11.6936L14.875 13.9436" stroke="white" stroke-width="1.5" stroke-linecap="round" stroke-linejoin="round"/>
</svg>
