<svg width="15" height="15" viewBox="0 0 15 15" fill="none" xmlns="http://www.w3.org/2000/svg">
<path d="M7.5 15C3.35775 15 0 11.6422 0 7.5C0 3.35775 3.35775 0 7.5 0C11.6422 0 15 3.35775 15 7.5C15 11.6422 11.6422 15 7.5 15ZM7.5 13.5C9.0913 13.5 10.6174 12.8679 11.7426 11.7426C12.8679 10.6174 13.5 9.0913 13.5 7.5C13.5 5.9087 12.8679 4.38258 11.7426 3.25736C10.6174 2.13214 9.0913 1.5 7.5 1.5C5.9087 1.5 4.38258 2.13214 3.25736 3.25736C2.13214 4.38258 1.5 5.9087 1.5 7.5C1.5 9.0913 2.13214 10.6174 3.25736 11.7426C4.38258 12.8679 5.9087 13.5 7.5 13.5ZM7.5 11.25C6.50544 11.25 5.55161 10.8549 4.84835 10.1517C4.14509 9.44839 3.75 8.49456 3.75 7.5C3.75 6.50544 4.14509 5.55161 4.84835 4.84835C5.55161 4.14509 6.50544 3.75 7.5 3.75C8.49456 3.75 9.44839 4.14509 10.1517 4.84835C10.8549 5.55161 11.25 6.50544 11.25 7.5C11.25 8.49456 10.8549 9.44839 10.1517 10.1517C9.44839 10.8549 8.49456 11.25 7.5 11.25Z" fill="#279EFF"/>
</svg>
