<svg width="17" height="16" viewBox="0 0 17 16" fill="none" xmlns="http://www.w3.org/2000/svg">
<path d="M7.66602 1.83325H9.33268M14.3327 7.66659C13.7768 12.1108 12.3885 14.3333 10.166 14.3333H6.83268C4.61018 14.3333 3.22185 12.1108 2.66602 7.66659" stroke="white" stroke-width="1.5" stroke-linecap="round" stroke-linejoin="round"/>
<path d="M8.4996 12.6667V14.3333M6.83293 6.83333V6.84167M10.1663 6.83333V6.84167M7.66627 11C7.66627 11.5558 7.94377 11.8333 8.4996 11.8333C9.05543 11.8333 9.33293 11.5558 9.33293 11H7.66627ZM2.66627 1L7.66627 1.80833L2.46793 7.38167C2.32191 7.5458 2.11805 7.64708 1.89904 7.66432C1.68003 7.68156 1.46284 7.61342 1.29293 7.47417C1.1777 7.3804 1.09108 7.2562 1.04291 7.11567C0.994737 6.97513 0.986951 6.8239 1.02043 6.67917L2.66627 1ZM14.3329 1L9.33293 1.80833L14.5313 7.38167C14.8296 7.72167 15.3554 7.76333 15.7063 7.47417C15.8215 7.3804 15.9081 7.2562 15.9563 7.11567C16.0045 6.97513 16.0123 6.8239 15.9788 6.67917L14.3329 1Z" stroke="white" stroke-width="1.5" stroke-linecap="round" stroke-linejoin="round"/>
</svg>
