<svg width="15" height="24" viewBox="0 0 15 24" fill="none" xmlns="http://www.w3.org/2000/svg">
<path d="M12.8028 12.9857C14.2183 11.55 15 9.6375 15 7.60714C15 5.57411 14.221 3.66429 12.8028 2.22857C11.3873 0.792857 9.50176 0 7.5 0C5.49824 0 3.61268 0.790178 2.19718 2.22857C0.781691 3.66696 0 5.57411 0 7.60714C0 9.31607 0.551936 10.9393 1.56866 12.2652C1.76144 12.517 1.97007 12.7554 2.19454 12.9857C2.41901 13.2134 2.65669 13.425 2.90229 13.6205C3.94806 14.4455 5.18134 14.9705 6.49648 15.1473V18H3.48592C3.36972 18 3.27465 18.0964 3.27465 18.2143V19.8214C3.27465 19.9393 3.36972 20.0357 3.48592 20.0357H6.49648V23.7857C6.49648 23.9036 6.59155 24 6.70775 24H8.29225C8.40845 24 8.50352 23.9036 8.50352 23.7857V20.0357H11.5141C11.6303 20.0357 11.7254 19.9393 11.7254 19.8214V18.2143C11.7254 18.0964 11.6303 18 11.5141 18H8.50352V15.1473C10.1276 14.9277 11.625 14.1804 12.8028 12.9857ZM7.5 13.1786C6.03169 13.1786 4.65581 12.6 3.61532 11.5473C2.57746 10.4946 2.00704 9.09643 2.00704 7.60714C2.00704 6.11786 2.57746 4.72232 3.61532 3.66696C4.65317 2.61161 6.03169 2.03571 7.5 2.03571C8.96831 2.03571 10.3442 2.61429 11.3847 3.66696C12.4225 4.71964 12.993 6.11786 12.993 7.60714C12.993 9.09643 12.4225 10.492 11.3847 11.5473C10.3442 12.6 8.96831 13.1786 7.5 13.1786Z" fill="black"/>
</svg>
