<svg width="16" height="16" viewBox="0 0 16 16" fill="none" xmlns="http://www.w3.org/2000/svg">
<path d="M5 1.77947C4.73478 1.77947 4.48043 1.8731 4.29289 2.03975C4.10536 2.2064 4 2.43243 4 2.66812C4 2.9038 4.10536 3.12983 4.29289 3.29649C4.48043 3.46314 4.73478 3.55677 5 3.55677C5.26522 3.55677 5.51957 3.46314 5.70711 3.29649C5.89464 3.12983 6 2.9038 6 2.66812C6 2.43243 5.89464 2.2064 5.70711 2.03975C5.51957 1.8731 5.26522 1.77947 5 1.77947ZM2.17 1.77947C2.3766 1.25914 2.75974 0.808566 3.2666 0.489858C3.77346 0.17115 4.37909 0 5 0C5.62091 0 6.22654 0.17115 6.7334 0.489858C7.24026 0.808566 7.6234 1.25914 7.83 1.77947H15C15.2652 1.77947 15.5196 1.8731 15.7071 2.03975C15.8946 2.2064 16 2.43243 16 2.66812C16 2.9038 15.8946 3.12983 15.7071 3.29649C15.5196 3.46314 15.2652 3.55677 15 3.55677H7.83C7.6234 4.0771 7.24026 4.52767 6.7334 4.84638C6.22654 5.16509 5.62091 5.33624 5 5.33624C4.37909 5.33624 3.77346 5.16509 3.2666 4.84638C2.75974 4.52767 2.3766 4.0771 2.17 3.55677H1C0.734784 3.55677 0.48043 3.46314 0.292893 3.29649C0.105357 3.12983 0 2.9038 0 2.66812C0 2.43243 0.105357 2.2064 0.292893 2.03975C0.48043 1.8731 0.734784 1.77947 1 1.77947H2.17ZM11 7.11135C10.7348 7.11135 10.4804 7.20498 10.2929 7.37163C10.1054 7.53828 10 7.76432 10 8C10 8.23568 10.1054 8.46171 10.2929 8.62837C10.4804 8.79502 10.7348 8.88865 11 8.88865C11.2652 8.88865 11.5196 8.79502 11.7071 8.62837C11.8946 8.46171 12 8.23568 12 8C12 7.76432 11.8946 7.53828 11.7071 7.37163C11.5196 7.20498 11.2652 7.11135 11 7.11135ZM8.17 7.11135C8.3766 6.59102 8.75974 6.14045 9.2666 5.82174C9.77346 5.50303 10.3791 5.33188 11 5.33188C11.6209 5.33188 12.2265 5.50303 12.7334 5.82174C13.2403 6.14045 13.6234 6.59102 13.83 7.11135H15C15.2652 7.11135 15.5196 7.20498 15.7071 7.37163C15.8946 7.53828 16 7.76432 16 8C16 8.23568 15.8946 8.46171 15.7071 8.62837C15.5196 8.79502 15.2652 8.88865 15 8.88865H13.83C13.6234 9.40898 13.2403 9.85955 12.7334 10.1783C12.2265 10.497 11.6209 10.6681 11 10.6681C10.3791 10.6681 9.77346 10.497 9.2666 10.1783C8.75974 9.85955 8.3766 9.40898 8.17 8.88865H1C0.734784 8.88865 0.48043 8.79502 0.292893 8.62837C0.105357 8.46171 0 8.23568 0 8C0 7.76432 0.105357 7.53828 0.292893 7.37163C0.48043 7.20498 0.734784 7.11135 1 7.11135H8.17ZM5 12.4432C4.73478 12.4432 4.48043 12.5369 4.29289 12.7035C4.10536 12.8702 4 13.0962 4 13.3319C4 13.5676 4.10536 13.7936 4.29289 13.9603C4.48043 14.1269 4.73478 14.2205 5 14.2205C5.26522 14.2205 5.51957 14.1269 5.70711 13.9603C5.89464 13.7936 6 13.5676 6 13.3319C6 13.0962 5.89464 12.8702 5.70711 12.7035C5.51957 12.5369 5.26522 12.4432 5 12.4432ZM2.17 12.4432C2.3766 11.9229 2.75974 11.4723 3.2666 11.1536C3.77346 10.8349 4.37909 10.6638 5 10.6638C5.62091 10.6638 6.22654 10.8349 6.7334 11.1536C7.24026 11.4723 7.6234 11.9229 7.83 12.4432H15C15.2652 12.4432 15.5196 12.5369 15.7071 12.7035C15.8946 12.8702 16 13.0962 16 13.3319C16 13.5676 15.8946 13.7936 15.7071 13.9603C15.5196 14.1269 15.2652 14.2205 15 14.2205H7.83C7.6234 14.7409 7.24026 15.1914 6.7334 15.5101C6.22654 15.8288 5.62091 16 5 16C4.37909 16 3.77346 15.8288 3.2666 15.5101C2.75974 15.1914 2.3766 14.7409 2.17 14.2205H1C0.734784 14.2205 0.48043 14.1269 0.292893 13.9603C0.105357 13.7936 0 13.5676 0 13.3319C0 13.0962 0.105357 12.8702 0.292893 12.7035C0.48043 12.5369 0.734784 12.4432 1 12.4432H2.17Z" fill="black"/>
</svg>
