<svg width="14" height="14" viewBox="0 0 14 14" fill="none" xmlns="http://www.w3.org/2000/svg">
<path d="M6.99984 12.8334C3.77818 12.8334 1.1665 10.2217 1.1665 7.00008C1.1665 3.77842 3.77818 1.16675 6.99984 1.16675C10.2215 1.16675 12.8332 3.77842 12.8332 7.00008C12.8296 10.2203 10.22 12.8299 6.99984 12.8334ZM2.33317 7.10041C2.36077 9.6678 4.45715 11.7306 7.02465 11.7169C9.59215 11.703 11.6662 9.61779 11.6662 7.05025C11.6662 4.48271 9.59215 2.39745 7.02465 2.38358C4.45715 2.36985 2.36077 4.43269 2.33317 7.00008V7.10041ZM8.1665 9.91675H6.4165V7.58341H5.83317V6.41675H7.58317V8.75008H8.1665V9.91675ZM7.58317 5.25008H6.4165V4.08341H7.58317V5.25008Z" fill="#2E3A59"/>
</svg>
