<svg width="40" height="40" viewBox="0 0 40 40" fill="none" xmlns="http://www.w3.org/2000/svg">
<circle cx="20" cy="20" r="20" fill="#D9D9D9"/>
<path d="M25.1429 20.8571H20.8571V25.1429C20.8571 25.3702 20.7668 25.5882 20.6061 25.7489C20.4453 25.9097 20.2273 26 20 26C19.7727 26 19.5547 25.9097 19.3939 25.7489C19.2332 25.5882 19.1429 25.3702 19.1429 25.1429V20.8571H14.8571C14.6298 20.8571 14.4118 20.7668 14.2511 20.6061C14.0903 20.4453 14 20.2273 14 20C14 19.7727 14.0903 19.5547 14.2511 19.3939C14.4118 19.2332 14.6298 19.1429 14.8571 19.1429H19.1429V14.8571C19.1429 14.6298 19.2332 14.4118 19.3939 14.2511C19.5547 14.0903 19.7727 14 20 14C20.2273 14 20.4453 14.0903 20.6061 14.2511C20.7668 14.4118 20.8571 14.6298 20.8571 14.8571V19.1429H25.1429C25.3702 19.1429 25.5882 19.2332 25.7489 19.3939C25.9097 19.5547 26 19.7727 26 20C26 20.2273 25.9097 20.4453 25.7489 20.6061C25.5882 20.7668 25.3702 20.8571 25.1429 20.8571Z" fill="#606060"/>
</svg>
