<svg width="20" height="20" viewBox="0 0 20 20" fill="none" xmlns="http://www.w3.org/2000/svg">
<path d="M19.2347 0H12.8061C12.7219 0 12.6531 0.0688776 12.6531 0.153061V1.58163C12.6531 1.66582 12.7219 1.73469 12.8061 1.73469H16.898L11.8138 6.81888C10.5383 5.83673 8.98214 5.30612 7.34694 5.30612C5.3852 5.30612 3.53827 6.07143 2.15306 7.45918C0.767857 8.84694 0 10.6913 0 12.6531C0 14.6148 0.765306 16.4617 2.15306 17.8469C3.53827 19.2347 5.3852 20 7.34694 20C9.30867 20 11.1556 19.2347 12.5408 17.8469C13.9286 16.4617 14.6939 14.6148 14.6939 12.6531C14.6939 11.0179 14.1633 9.46684 13.1837 8.19133L18.2653 3.10969V7.19388C18.2653 7.27806 18.3342 7.34694 18.4184 7.34694H19.8469C19.9311 7.34694 20 7.27806 20 7.19388V0.765306C20 0.344388 19.6556 0 19.2347 0ZM7.34694 18.0612C4.3648 18.0612 1.93878 15.6352 1.93878 12.6531C1.93878 9.67092 4.3648 7.2449 7.34694 7.2449C10.3291 7.2449 12.7551 9.67092 12.7551 12.6531C12.7551 15.6352 10.3291 18.0612 7.34694 18.0612Z" fill="black"/>
</svg>
