<svg width="20" height="20" viewBox="0 0 20 20" fill="none" xmlns="http://www.w3.org/2000/svg">
<path d="M9.99992 18.3333C9.07944 18.3333 8.33325 17.5871 8.33325 16.6666H11.6666C11.6666 17.5871 10.9204 18.3333 9.99992 18.3333ZM16.6666 15.8333H3.33325V14.1666L4.99992 13.3333V8.74996C4.99992 5.86496 6.18409 3.99413 8.33325 3.48329V1.66663H11.6666V3.48329C13.8158 3.99329 14.9999 5.86329 14.9999 8.74996V13.3333L16.6666 14.1666V15.8333ZM9.99992 4.79163C8.98298 4.72596 8.00224 5.18102 7.39575 5.99996C6.87704 6.82042 6.62253 7.78028 6.66659 8.74996V14.1666H13.3333V8.74996C13.3772 7.78028 13.1227 6.82045 12.6041 5.99996C11.9976 5.18102 11.0169 4.72596 9.99992 4.79163Z" fill="#2E3A59"/>
</svg>
