<svg width="12" height="12" viewBox="0 0 12 12" fill="none" xmlns="http://www.w3.org/2000/svg">
<path fill-rule="evenodd" clip-rule="evenodd" d="M2.5696 4.71868C2.56973 3.65363 2.92981 2.61995 3.59129 1.78568C4.25277 0.951412 5.17676 0.365616 6.21303 0.123532C7.2493 -0.118552 8.33692 -0.00268981 9.29907 0.452283C10.2612 0.907255 11.0413 1.67458 11.5125 2.62952C11.9837 3.58445 12.1183 4.67083 11.8945 5.71204C11.6706 6.75325 11.1015 7.68806 10.2795 8.36449C9.45756 9.04092 8.43118 9.4192 7.36721 9.43781C6.30325 9.45643 5.26428 9.11429 4.41921 8.46703L3.29511 9.59147L4.19162 10.4888C4.25167 10.5468 4.29957 10.6162 4.33252 10.693C4.36546 10.7698 4.38281 10.8523 4.38353 10.9359C4.38426 11.0194 4.36835 11.1023 4.33674 11.1796C4.30513 11.257 4.25845 11.3272 4.19942 11.3863C4.14039 11.4454 4.07019 11.4921 3.99293 11.5237C3.91566 11.5554 3.83288 11.5713 3.7494 11.5706C3.66592 11.5699 3.58343 11.5525 3.50672 11.5195C3.43002 11.4865 3.36065 11.4386 3.30265 11.3785L2.40614 10.4818L1.07331 11.8158C0.955338 11.9338 0.795372 12.0001 0.628598 12C0.461825 11.9999 0.301905 11.9336 0.18402 11.8155C0.0661352 11.6974 -5.89103e-05 11.5373 3.93398e-08 11.3704C5.8989e-05 11.2035 0.0663661 11.0434 0.184335 10.9255L1.51716 9.59147L0.635108 8.70866C0.575061 8.65061 0.527166 8.58118 0.494216 8.50441C0.461267 8.42764 0.443924 8.34507 0.443199 8.26152C0.442473 8.17797 0.45838 8.09512 0.489991 8.01779C0.521603 7.94046 0.568285 7.8702 0.627315 7.81112C0.686344 7.75204 0.756539 7.70532 0.833804 7.67368C0.911068 7.64204 0.993854 7.62612 1.07733 7.62684C1.16081 7.62757 1.24331 7.64493 1.32001 7.67791C1.39671 7.71088 1.46608 7.75882 1.52408 7.81892L2.40614 8.70174L3.5315 7.5754C2.90606 6.75475 2.56802 5.75081 2.5696 4.71868ZM7.2848 1.25788C6.36773 1.25788 5.48822 1.6225 4.83975 2.27153C4.19129 2.92055 3.82698 3.80082 3.82698 4.71868C3.82698 5.63654 4.19129 6.5168 4.83975 7.16583C5.48822 7.81485 6.36773 8.17947 7.2848 8.17947C8.20186 8.17947 9.08137 7.81485 9.72984 7.16583C10.3783 6.5168 10.7426 5.63654 10.7426 4.71868C10.7426 3.80082 10.3783 2.92055 9.72984 2.27153C9.08137 1.6225 8.20186 1.25788 7.2848 1.25788Z" fill="#4F9CF8"/>
</svg>
