<svg width="14" height="14" viewBox="0 0 14 14" fill="none" xmlns="http://www.w3.org/2000/svg">
<path d="M12.6667 1L8.16667 5.5M12.6667 1H8.5M12.6667 1V5.16667M1 8.5C1 9.60507 1.43899 10.6649 2.22039 11.4463C3.00179 12.2277 4.0616 12.6667 5.16667 12.6667C6.27174 12.6667 7.33154 12.2277 8.11294 11.4463C8.89435 10.6649 9.33333 9.60507 9.33333 8.5C9.33333 7.39493 8.89435 6.33512 8.11294 5.55372C7.33154 4.77232 6.27174 4.33333 5.16667 4.33333C4.0616 4.33333 3.00179 4.77232 2.22039 5.55372C1.43899 6.33512 1 7.39493 1 8.5Z" stroke="#4F9CF8" stroke-width="1.66667" stroke-linecap="round" stroke-linejoin="round"/>
</svg>
