<svg width="12" height="12" viewBox="0 0 12 12" fill="none" xmlns="http://www.w3.org/2000/svg">
<path d="M11.1429 6.85714H6.85714V11.1429C6.85714 11.3702 6.76684 11.5882 6.60609 11.7489C6.44535 11.9097 6.22733 12 6 12C5.77267 12 5.55465 11.9097 5.39391 11.7489C5.23316 11.5882 5.14286 11.3702 5.14286 11.1429V6.85714H0.857143C0.629814 6.85714 0.411797 6.76684 0.251051 6.60609C0.090306 6.44535 0 6.22733 0 6C0 5.77267 0.090306 5.55465 0.251051 5.39391C0.411797 5.23316 0.629814 5.14286 0.857143 5.14286H5.14286V0.857143C5.14286 0.629815 5.23316 0.411797 5.39391 0.251051C5.55465 0.0903056 5.77267 0 6 0C6.22733 0 6.44535 0.0903056 6.60609 0.251051C6.76684 0.411797 6.85714 0.629815 6.85714 0.857143V5.14286H11.1429C11.3702 5.14286 11.5882 5.23316 11.7489 5.39391C11.9097 5.55465 12 5.77267 12 6C12 6.22733 11.9097 6.44535 11.7489 6.60609C11.5882 6.76684 11.3702 6.85714 11.1429 6.85714Z" fill="#606060"/>
</svg>
