<svg width="20" height="20" viewBox="0 0 20 20" fill="none" xmlns="http://www.w3.org/2000/svg">
<path d="M9.99992 18.3333C8.73997 18.3369 7.49594 18.0518 6.36325 17.5C5.94871 17.2983 5.55153 17.0628 5.17575 16.7958L5.06159 16.7125C4.0281 15.9496 3.18315 14.9602 2.59159 13.82C1.9797 12.6399 1.66234 11.3293 1.66655 9.99996C1.66655 5.39759 5.39755 1.66663 9.99992 1.66663C14.6023 1.66663 18.3333 5.39759 18.3333 9.99996C18.3375 11.3286 18.0204 12.6386 17.4091 13.8183C16.8184 14.9578 15.9746 15.947 14.9424 16.71C14.5531 16.995 14.1399 17.2459 13.7074 17.46L13.6408 17.4933C12.5074 18.0481 11.2618 18.3354 9.99992 18.3333ZM9.99992 14.1666C8.75115 14.1642 7.60631 14.8616 7.03575 15.9725C8.90358 16.8976 11.0963 16.8976 12.9641 15.9725V15.9683C12.3928 14.8587 11.2479 14.1628 9.99992 14.1666ZM9.99992 12.5C11.805 12.5023 13.4694 13.4751 14.3574 15.0466L14.3699 15.0358L14.3816 15.0258L14.3674 15.0383L14.3591 15.045C16.4666 13.2242 17.2202 10.2852 16.2488 7.67505C15.2774 5.06486 12.7858 3.33356 10.0008 3.33356C7.21568 3.33356 4.72408 5.06486 3.75271 7.67505C2.78134 10.2852 3.53492 13.2242 5.64242 15.045C6.53097 13.4742 8.19522 12.5021 9.99992 12.5ZM9.99992 11.6666C8.15897 11.6666 6.66659 10.1742 6.66659 8.33329C6.66659 6.49234 8.15897 4.99996 9.99992 4.99996C11.8409 4.99996 13.3333 6.49234 13.3333 8.33329C13.3333 9.21735 12.9821 10.0652 12.3569 10.6903C11.7318 11.3154 10.884 11.6666 9.99992 11.6666ZM9.99992 6.66663C9.07945 6.66663 8.33325 7.41282 8.33325 8.33329C8.33325 9.25377 9.07945 9.99996 9.99992 9.99996C10.9204 9.99996 11.6666 9.25377 11.6666 8.33329C11.6666 7.41282 10.9204 6.66663 9.99992 6.66663Z" fill="#2E3A59"/>
</svg>
